<svg id="Layer_1" data-name="Layer 1" xmlns="http://www.w3.org/2000/svg" viewBox="0 0 256 256"><path d="M251.11,253.66H4.74a2.28,2.28,0,0,1-2.28-2.28V5A2.28,2.28,0,0,1,4.74,2.73H251.11A2.28,2.28,0,0,1,253.39,5V251.38A2.28,2.28,0,0,1,251.11,253.66ZM7,249.09H248.82V7.3H7Z" style="fill:#661ff4"/><path d="M251.11,254.74H4.74a3.37,3.37,0,0,1-3.36-3.36V5A3.37,3.37,0,0,1,4.74,1.65H251.11A3.37,3.37,0,0,1,254.47,5V251.38A3.37,3.37,0,0,1,251.11,254.74ZM4.74,3.8A1.21,1.21,0,0,0,3.54,5V251.38a1.2,1.2,0,0,0,1.2,1.2H251.11a1.2,1.2,0,0,0,1.2-1.2V5a1.21,1.21,0,0,0-1.2-1.21ZM248.82,250.17H7A1.08,1.08,0,0,1,6,249.09V7.3A1.08,1.08,0,0,1,7,6.22H248.82A1.08,1.08,0,0,1,249.9,7.3V249.09A1.09,1.09,0,0,1,248.82,250.17ZM8.11,248H247.74V8.38H8.11Z" style="fill:#661ff4"/><path d="M211.18,153.79H44.67a1.08,1.08,0,1,1,0-2.15H211.18a1.08,1.08,0,1,1,0,2.15Z" style="fill:#661ff4"/><path d="M211.18,155H44.67a2.29,2.29,0,1,1,0-4.57H211.18a2.29,2.29,0,1,1,0,4.57Z" style="fill:#661ff4"/><path d="M211.18,156.08H44.67a3.37,3.37,0,1,1,0-6.73H211.18a3.37,3.37,0,1,1,0,6.73ZM44.67,151.5a1.21,1.21,0,1,0,0,2.42H211.18a1.21,1.21,0,0,0,0-2.42Z" style="fill:#661ff4"/><path d="M183.16,178.21H72.69a1.08,1.08,0,1,1,0-2.15H183.16a1.08,1.08,0,1,1,0,2.15Z" style="fill:#661ff4"/><path d="M183.16,179.42H72.69a2.29,2.29,0,1,1,0-4.57H183.16a2.29,2.29,0,1,1,0,4.57Z" style="fill:#661ff4"/><path d="M183.16,180.5H72.69a3.37,3.37,0,1,1,0-6.73H183.16a3.37,3.37,0,0,1,0,6.73ZM72.69,175.92a1.21,1.21,0,1,0,0,2.42H183.16a1.21,1.21,0,0,0,0-2.42Z" style="fill:#661ff4"/><path d="M127.92,84.37a23.54,23.54,0,1,1,23.54-23.54A23.56,23.56,0,0,1,127.92,84.37Zm0-42.5a19,19,0,1,0,19,19A19,19,0,0,0,127.92,41.87Z" style="fill:#661ff4"/><path d="M127.93,85.45a24.62,24.62,0,1,1,24.61-24.62A24.64,24.64,0,0,1,127.93,85.45Zm0-47.07a22.46,22.46,0,1,0,22.45,22.45A22.48,22.48,0,0,0,127.93,38.38Zm0,42.5a20,20,0,1,1,20-20A20.07,20.07,0,0,1,127.93,80.88Zm0-37.93a17.89,17.89,0,1,0,17.88,17.88A17.9,17.9,0,0,0,127.93,43Z" style="fill:#661ff4"/><path d="M171.87,130.48H84a2.28,2.28,0,0,1-2.28-2.29,46.23,46.23,0,1,1,92.45,0A2.28,2.28,0,0,1,171.87,130.48Zm-85.54-4.57h83.19a41.66,41.66,0,0,0-83.19,0Z" style="fill:#661ff4"/><path d="M171.87,131.56H84a3.37,3.37,0,0,1-3.36-3.37,47.31,47.31,0,1,1,94.61,0A3.37,3.37,0,0,1,171.87,131.56ZM127.92,83a45.21,45.21,0,0,0-45.15,45.15A1.21,1.21,0,0,0,84,129.4h87.89a1.21,1.21,0,0,0,1.21-1.21A45.21,45.21,0,0,0,127.92,83ZM169.52,127H86.33a1.09,1.09,0,0,1-1.08-1.14,42.73,42.73,0,0,1,85.34,0,1,1,0,0,1-.29.8A1.08,1.08,0,0,1,169.52,127Zm-82-2.16h80.89a40.58,40.58,0,0,0-80.89,0Z" style="fill:#661ff4"/><path d="M89.78,226.19a13.46,13.46,0,1,1,13.46-13.46A13.48,13.48,0,0,1,89.78,226.19Zm0-22.35a8.89,8.89,0,1,0,8.89,8.89A8.9,8.9,0,0,0,89.78,203.84Z" style="fill:#661ff4"/><path d="M89.78,227.27a14.54,14.54,0,1,1,14.54-14.54A14.55,14.55,0,0,1,89.78,227.27Zm0-26.93a12.39,12.39,0,1,0,12.39,12.39A12.4,12.4,0,0,0,89.78,200.34Zm0,22.36a10,10,0,1,1,10-10A10,10,0,0,1,89.78,222.7Zm0-17.78a7.81,7.81,0,1,0,7.81,7.81A7.81,7.81,0,0,0,89.78,204.92Z" style="fill:#661ff4"/><path d="M127.92,226.19a13.46,13.46,0,1,1,13.47-13.46A13.48,13.48,0,0,1,127.92,226.19Zm0-22.35a8.89,8.89,0,1,0,8.89,8.89A8.9,8.9,0,0,0,127.92,203.84Z" style="fill:#661ff4"/><path d="M127.93,227.27a14.54,14.54,0,1,1,14.53-14.54A14.55,14.55,0,0,1,127.93,227.27Zm0-26.93a12.39,12.39,0,1,0,12.38,12.39A12.41,12.41,0,0,0,127.93,200.34Zm0,22.36a10,10,0,1,1,10-10A10,10,0,0,1,127.93,222.7Zm0-17.78a7.81,7.81,0,1,0,7.81,7.81A7.82,7.82,0,0,0,127.93,204.92Z" style="fill:#661ff4"/><path d="M166.07,226.19a13.46,13.46,0,1,1,13.46-13.46A13.48,13.48,0,0,1,166.07,226.19Zm0-22.35a8.89,8.89,0,1,0,8.89,8.89A8.9,8.9,0,0,0,166.07,203.84Z" style="fill:#661ff4"/><path d="M166.07,227.27a14.54,14.54,0,1,1,14.54-14.54A14.55,14.55,0,0,1,166.07,227.27Zm0-26.93a12.39,12.39,0,1,0,12.38,12.39A12.41,12.41,0,0,0,166.07,200.34Zm0,22.36a10,10,0,1,1,10-10A10,10,0,0,1,166.07,222.7Zm0-17.78a7.81,7.81,0,1,0,7.81,7.81A7.82,7.82,0,0,0,166.07,204.92Z" style="fill:#661ff4"/></svg>