<svg id="Layer_1" data-name="Layer 1" xmlns="http://www.w3.org/2000/svg" viewBox="0 0 256 256"><path d="M222.53,201.36a13.69,13.69,0,0,0-13,9.59h0a13.83,13.83,0,0,0-.61,4.05,13.39,13.39,0,0,0,2.19,7.39,11.73,11.73,0,0,0,1.71,2.14h0a13.4,13.4,0,0,0,3.85,2.76,13.42,13.42,0,0,0,5.9,1.35,13.66,13.66,0,1,0,0-27.31Zm0,23.22A9.56,9.56,0,1,1,232.1,215,9.57,9.57,0,0,1,222.53,224.58Z" style="fill:#661ff4"/><path d="M222.53,230.22a15,15,0,0,1-6.58-1.51,15.07,15.07,0,0,1-4.28-3.07l-.44-.47a13.31,13.31,0,0,1-1.47-1.93,14.94,14.94,0,0,1-2.43-8.22,15.16,15.16,0,0,1,.61-4.28h0l.07-.25a15.21,15.21,0,1,1,14.52,19.74Zm-8.2-6.31a11.5,11.5,0,0,0,1.15.94,11.33,11.33,0,0,0,1.81,1.07,11.9,11.9,0,0,0,5.24,1.2A12.11,12.11,0,1,0,211,211.26l0,.16a12.22,12.22,0,0,0-.54,3.6,11.93,11.93,0,0,0,1.93,6.54,11,11,0,0,0,1.52,1.89Zm8.2,2.22A11.11,11.11,0,1,1,233.65,215,11.12,11.12,0,0,1,222.53,226.13Zm0-19.12a8,8,0,1,0,8,8A8,8,0,0,0,222.53,207Z" style="fill:#661ff4"/><path d="M250.56,219.79v-9.55l-6.3-3.63c-.14-.34-.27-.68-.42-1l1.88-7L239,191.83l-7,1.88c-.33-.15-.66-.28-1-.42l-3.64-6.3h-9.55l-3.63,6.3c-.35.14-.69.27-1,.42l-4.84-1.3V75.55l4.16-.21,2.23-.1a2.06,2.06,0,0,0,2-2V56.81a2,2,0,0,0-2-2H147.45a2,2,0,0,0-2,2V73.38a2.05,2.05,0,0,0,2,2.05h6v46.12H107.92v-46l2.48-.13,3.6-.2a2,2,0,0,0,1.94-2V56.81a2,2,0,0,0-2-2H90.6v-5l-9.7-5.6c-.29-.79-.61-1.55-.94-2.28l2.89-10.81-9.67-9.67-10.8,2.9c-.74-.34-1.5-.66-2.3-.94l-5.58-9.7H40.82l-5.6,9.7c-.78.28-1.55.6-2.29.94l-10.8-2.9-9.67,9.67,2.9,10.81c-.34.73-.65,1.49-.94,2.28l-9.7,5.6V63.41l9.7,5.6c.29.79.6,1.55.94,2.28L12.46,82.1l9.67,9.67,10.8-2.9c.74.34,1.51.66,2.29.94l5.6,9.7H53.05V222.25l-6.39.31a2.05,2.05,0,0,0-1.95,2V241a2.05,2.05,0,0,0,2,2h67.13a2,2,0,0,0,2-2V224.57a2,2,0,0,0-2-2h-6V176.2h45.48v46l-6.07.32a2,2,0,0,0-1.95,2V241a2.05,2.05,0,0,0,2,2h67.13a2.06,2.06,0,0,0,2-2l1.13,2h9.55l3.64-6.3,1-.41,7,1.88,6.74-6.75-1.88-7c.15-.33.28-.66.42-1ZM52.13,95.42H43.19l-5.18-9-.71-.26A34.18,34.18,0,0,1,34,84.87l-.68-.33-10,2.66L17,80.88l2.68-10-.33-.68A31.63,31.63,0,0,1,18,66.94l-.24-.72-9-5.17V52.1l9-5.16.24-.73a31.63,31.63,0,0,1,1.36-3.28l.33-.68L17,32.27,23.35,26l10,2.67.68-.34a34.18,34.18,0,0,1,3.29-1.34l.71-.26,5.18-8.94h8.94l5.17,8.94.72.26a32.76,32.76,0,0,1,3.27,1.34l.7.34L72,26l6.32,6.32-2.67,10,.33.68a30.38,30.38,0,0,1,1.35,3.28l.25.73,9,5.16v2.67H67.89A20.32,20.32,0,1,0,53.05,76.16V93.83ZM46.76,54.77a2,2,0,0,0-2,2V72.53A16.22,16.22,0,1,1,63.78,54.77ZM212.53,239h-63V226.54l6.07-.32a2,2,0,0,0,1.93-2v-50a2,2,0,0,0-2-2H105.9a2.05,2.05,0,0,0-2.05,2v50.42a2,2,0,0,0,2.05,2.05h5.94V239h-63v-12.4l6.4-.31a2.06,2.06,0,0,0,1.94-2V73.58a2,2,0,0,0-1.94-2l-1.14-.06-5.26-.27V58.86h63V71.25l-1.66.09-4.41.23a2,2,0,0,0-1.94,2.05v50a2.05,2.05,0,0,0,2,2h49.57a2.05,2.05,0,0,0,2.05-2V73.38a2,2,0,0,0-2.05-2h-5.93V58.86h63V71.24h-.29c-2.2.12-4.14.21-6.11.3a2.06,2.06,0,0,0-1.94,2V193.74l-4.85,4.84,1.88,7c-.14.32-.27.66-.41,1l-6.3,3.63v9.55l6.3,3.64c.14.35.27.68.41,1l-1.88,7,6.76,6.75,6.43-1.73Zm28.63-8.72-3.41,3.41L231.56,232l-.68.33a18.32,18.32,0,0,1-2,.82l-.72.25L225,239h-4.82l-3.22-5.56-.28-.1-.43-.15a14.78,14.78,0,0,1-1.62-.65l-.38-.17-.69-.33-1,.26-5.21,1.39-3.41-3.41,1.17-4.33.49-1.86-.33-.68a18.32,18.32,0,0,1-.82-2l-.23-.63,0-.08-5.55-3.21v-4.82l5.55-3.21,0-.09.23-.63a17.38,17.38,0,0,1,.82-2l.33-.69-1.38-5.16-.28-1,3.41-3.41,1,.26,5.23,1.41.69-.34c.62-.3,1.29-.57,2-.83l.71-.25,3.22-5.55H225l3.2,5.55.72.25c.71.26,1.38.53,2,.83l.68.34,6.19-1.67,3.41,3.41L239.5,206l.34.69c.29.62.57,1.3.82,2l.25.72,5.56,3.21v4.82l-5.56,3.21-.25.71c-.25.71-.53,1.38-.82,2l-.34.68Z" style="fill:#661ff4"/><path d="M228.2,244.59H216.87l-.33-.57a3.66,3.66,0,0,1-2,.57H147.45a3.6,3.6,0,0,1-3.59-3.6v-16.4a3.58,3.58,0,0,1,3.41-3.58l4.6-.24v-43H109.49V221h4.4a3.59,3.59,0,0,1,3.59,3.59V241a3.6,3.6,0,0,1-3.59,3.6H46.76a3.6,3.6,0,0,1-3.6-3.6V224.6A3.59,3.59,0,0,1,46.58,221l1.24-.06,3.68-.18V101.06H39.93l-5.77-10c-.43-.17-.88-.35-1.36-.56l-11.13,3L10.73,82.56l3-11.13c-.19-.43-.37-.88-.56-1.35l-10-5.77V48.84l10-5.77c.19-.47.37-.92.56-1.35l-3-11.13L21.67,19.66l11.13,3c.48-.21.93-.39,1.36-.56l5.77-10H55.39l5.76,10c.44.17.89.35,1.36.56l11.14-3L84.58,30.59l-3,11.14c.2.46.38.9.55,1.34l10,5.77v4.38h21.74a3.59,3.59,0,0,1,3.59,3.59V73.19a3.58,3.58,0,0,1-3.4,3.59l-3.6.19-1,.06v43h42.38V77h-4.4a3.6,3.6,0,0,1-3.59-3.6V56.81a3.59,3.59,0,0,1,3.59-3.59h67.13a3.6,3.6,0,0,1,3.6,3.59V73.19a3.62,3.62,0,0,1-3.42,3.6l-3.44.16-1.49.07v114.2l3.18.85,0,0,3.82-6.61H228.2l3.82,6.61,0,0,7.37-2,8,8-2,7.37,0,0,6.61,3.82v11.33l-6.62,3.83s0,0,0,0l2,7.37-8,8-7.37-2,0,0Zm-9.54-3.1h7.75l3.47-6,.5-.2,1-.39.5-.22,6.68,1.79L244,231l-1.79-6.69.21-.49c.14-.32.27-.63.4-1l.19-.5,6-3.47v-7.75l-6-3.46-.19-.5c-.15-.36-.26-.66-.39-.94l-.23-.5L244,199l-5.49-5.48-6.68,1.78-.5-.21c-.31-.14-.62-.27-1-.39l-.5-.2-3.47-6h-7.75l-3.46,6-.51.2c-.31.12-.63.24-.93.38l-.5.23-6.53-1.76V74.08L208.2,74l3-.15,3.43-.16a.5.5,0,0,0,.48-.5V56.81a.5.5,0,0,0-.5-.49H147.45a.5.5,0,0,0-.5.49V73.38a.51.51,0,0,0,.5.5H155V123.1H106.37v-49L109,74l1.36-.07,3.6-.2a.49.49,0,0,0,.47-.49V56.81a.49.49,0,0,0-.5-.49H89.05V50.63L79.64,45.2l-.2-.53c-.25-.69-.55-1.41-.89-2.18l-.23-.5,2.8-10.48-8.4-8.4-10.48,2.8-.5-.22c-.78-.36-1.5-.65-2.19-.9L59,24.6,53.6,15.19H41.72L36.28,24.6l-.52.19c-.67.25-1.37.53-2.2.9l-.5.22L22.6,23.11l-8.41,8.4L17,42l-.24.51c-.3.65-.59,1.36-.89,2.16l-.19.53L6.27,50.63V62.52L15.68,68l.19.53c.3.8.59,1.51.89,2.16l.24.51L14.19,81.64,22.6,90l10.46-2.8.5.22c.83.37,1.52.65,2.2.9l.52.19L41.72,98H54.6V223.72l-1.47.07-5.17.26-1.23,0a.51.51,0,0,0-.47.5V241a.51.51,0,0,0,.5.5h67.13a.5.5,0,0,0,.5-.5V224.57a.5.5,0,0,0-.5-.49h-7.5V174.65H155v49.06l-7.54.39a.51.51,0,0,0-.48.49V241a.51.51,0,0,0,.5.5h67.13a.5.5,0,0,0,.5-.48l.2-5.38Zm7.19-1h-6.62l-3.37-5.84-.16,0c-.63-.22-1.21-.45-1.73-.69l-.47-.22-.15-.07-6.5,1.74-4.67-4.68,1.75-6.49-.08-.16a21.73,21.73,0,0,1-.9-2.18l-.06-.17-5.83-3.36v-6.61l5.83-3.38.07-.18a20.61,20.61,0,0,1,.89-2.15l.08-.17-1.75-6.5,4.68-4.68,6.49,1.75.18-.08a21,21,0,0,1,2.14-.9l.19-.06,3.37-5.83h6.62l3.36,5.83.16,0a20.94,20.94,0,0,1,2.19.91l.16.08,6.49-1.75,4.68,4.68-1.74,6.5.08.17a19,19,0,0,1,.89,2.16l.06.17,5.84,3.38v6.61l-5.84,3.36-.05.17a20.64,20.64,0,0,1-.9,2.17l-.08.17,1.74,6.49-4.68,4.68-6.49-1.74-.16.08a22.92,22.92,0,0,1-2.19.9l-.16.06ZM221,237.4h3l3-5.28,1.26-.44a19.63,19.63,0,0,0,1.86-.76l1.18-.58,5.89,1.57,2.14-2.14-1.57-5.88.58-1.2a18.87,18.87,0,0,0,.76-1.85l.44-1.26,5.28-3v-3l-5.28-3.05-.44-1.26c-.24-.66-.49-1.28-.76-1.84l-.58-1.21,1.57-5.88-2.14-2.14-5.88,1.58-1.21-.58a17.06,17.06,0,0,0-1.86-.77l-1.24-.44-3-5.27h-3L218,197.91l-1.26.44a17.4,17.4,0,0,0-1.82.76l-1.23.59-5.88-1.58-2.14,2.14,1.58,5.88-.58,1.21a16.87,16.87,0,0,0-.76,1.84l-.47,1.27-5.25,3v3l5.25,3,.46,1.25c.23.65.49,1.28.77,1.88l.58,1.19-1.58,5.88,2.14,2.14,5.88-1.57,1.21.58.27.13.1,0c.43.2.93.4,1.47.59l1.26.45Zm-6.94,3.1H148V225.07l7.54-.39a.49.49,0,0,0,.46-.5v-50a.49.49,0,0,0-.49-.49H105.9a.5.5,0,0,0-.5.49v50.42a.5.5,0,0,0,.5.5h7.49V240.5H47.26V225.08l7.87-.38a.51.51,0,0,0,.47-.5V73.58a.49.49,0,0,0-.46-.5l-7.88-.41V57.31h66.13V72.73L109,73l-3.19.17a.49.49,0,0,0-.47.5v50a.51.51,0,0,0,.49.5h49.57a.51.51,0,0,0,.5-.5V73.38a.5.5,0,0,0-.5-.5H148V57.31h66.12V72.74l-1.79.06-6.09.3a.5.5,0,0,0-.46.5V194.38l-4.67,4.67,1.79,6.69-.22.51c-.14.29-.26.61-.39.92l-.19.51-6,3.46v7.75l6,3.47.2.51.39.94.22.5L201.07,231l5.49,5.48,7.52-2Zm-63-3.1h52l-5.48-5.48,2-7.37s0,0,0,0L193,220.68V209.35l6.61-3.82s0,0,0,0l-2-7.37,5-5V73.6A3.59,3.59,0,0,1,206,70l5-.24V60.41H151.05v9.38h4.39a3.6,3.6,0,0,1,3.6,3.59v50.21a3.6,3.6,0,0,1-3.6,3.6H105.87a3.6,3.6,0,0,1-3.59-3.6v-50A3.58,3.58,0,0,1,105.7,70l3.16-.17,1.44-.08V60.41H50.35v9.32l4.94.25a3.59,3.59,0,0,1,3.41,3.6V224.2a3.6,3.6,0,0,1-3.4,3.59l-4.95.24v9.37h60v-9.23h-4.4a3.6,3.6,0,0,1-3.6-3.6V174.15a3.6,3.6,0,0,1,3.6-3.59h49.57a3.59,3.59,0,0,1,3.59,3.59v50a3.6,3.6,0,0,1-3.39,3.59l-4.62.24ZM53,97H42.29L37,87.73l-.18-.06c-1.17-.41-2.33-.89-3.42-1.4l-.18-.09L22.89,88.93l-7.6-7.59,2.76-10.28L18,70.9a32,32,0,0,1-1.42-3.46l-.06-.16L7.26,61.94V51.21l9.23-5.32.06-.18A32,32,0,0,1,18,42.25l.08-.16L15.29,31.81l7.6-7.59L33.17,27l.15-.08a31.94,31.94,0,0,1,3.47-1.42l.16-.06,5.34-9.23H53l5.32,9.22.19.07A36.09,36.09,0,0,1,62,26.88l.19.1,10.28-2.76L80,31.81,77.26,42.09l.07.16a32.69,32.69,0,0,1,1.43,3.46l.06.18,9.23,5.32v5.11H66.48l-.13-1.42A18.77,18.77,0,1,0,47.66,75.34a18.68,18.68,0,0,0,5-.67l2-.55V94.25Zm-9-3.1h7.16l.26-.45V78.1a21.5,21.5,0,0,1-3.84.34,21.87,21.87,0,1,1,21.6-25.22H85V53l-8.69-5-.43-1.27a29.25,29.25,0,0,0-1.29-3.12L74,42.41l2.6-9.68-5.06-5-9.68,2.59-1.21-.6a31.44,31.44,0,0,0-3.1-1.27L56.24,28l-5-8.66H44.08l-5,8.66-1.24.45a30,30,0,0,0-3.15,1.28l-1.18.59-9.68-2.59-5.07,5,2.59,9.68-.58,1.2a27.63,27.63,0,0,0-1.28,3.11L19,48l-8.68,5v7.15l8.68,5,.44,1.26a27.63,27.63,0,0,0,1.28,3.11l.58,1.21-2.59,9.67,5.07,5,9.67-2.58,1.2.58a30.34,30.34,0,0,0,3.12,1.28l1.26.45ZM46.26,74.4l-1.83-.34A17.78,17.78,0,1,1,65.32,54.6l.19,1.72H46.76a.5.5,0,0,0-.5.49Zm1.4-32.5a14.68,14.68,0,0,0-4.5,28.65V56.81a3.6,3.6,0,0,1,3.6-3.59H62A14.66,14.66,0,0,0,47.66,41.9Z" style="fill:#661ff4"/></svg>