<svg id="Layer_1" data-name="Layer 1" xmlns="http://www.w3.org/2000/svg" viewBox="0 0 256 256"><path d="M240.93,251.44H16.28A11.83,11.83,0,0,1,4.47,239.63V15A11.82,11.82,0,0,1,16.28,3.18H240.93A11.82,11.82,0,0,1,252.74,15V239.63A11.83,11.83,0,0,1,240.93,251.44ZM16.28,7.94a7.05,7.05,0,0,0-7,7.05V239.63a7.05,7.05,0,0,0,7.05,7.05H240.93a7.06,7.06,0,0,0,7-7.05V15a7.06,7.06,0,0,0-7-7Z" style="fill:#661ff4"/><path d="M240.93,252.5H16.28A12.88,12.88,0,0,1,3.42,239.63V15A12.88,12.88,0,0,1,16.28,2.12H240.93A12.88,12.88,0,0,1,253.79,15V239.63A12.88,12.88,0,0,1,240.93,252.5ZM16.28,4.23A10.77,10.77,0,0,0,5.53,15V239.63a10.76,10.76,0,0,0,10.75,10.75H240.93a10.76,10.76,0,0,0,10.75-10.75V15A10.77,10.77,0,0,0,240.93,4.23ZM240.93,247.74H16.28a8.11,8.11,0,0,1-8.1-8.11V15a8.11,8.11,0,0,1,8.1-8.11H240.93A8.11,8.11,0,0,1,249,15V239.63A8.11,8.11,0,0,1,240.93,247.74ZM16.28,9a6,6,0,0,0-6,6V239.63a6,6,0,0,0,6,6H240.93a6,6,0,0,0,6-6V15a6,6,0,0,0-6-6Z" style="fill:#661ff4"/><path d="M250.36,58.31H6.85A1.91,1.91,0,0,1,5,56.4V15.06A11.42,11.42,0,0,1,16.36,3.65H240.85a11.42,11.42,0,0,1,11.41,11.41V56.4A1.91,1.91,0,0,1,250.36,58.31ZM8.76,54.5H248.45V15.06a7.61,7.61,0,0,0-7.6-7.6H16.36a7.61,7.61,0,0,0-7.6,7.6Z" style="fill:#661ff4"/><path d="M250.36,59.36H6.85a3,3,0,0,1-3-3V15.06A12.47,12.47,0,0,1,16.35,2.6h224.5a12.48,12.48,0,0,1,12.47,12.46V56.4A3,3,0,0,1,250.36,59.36ZM16.35,4.71A10.36,10.36,0,0,0,6,15.06V56.4a.84.84,0,0,0,.84.85H250.36a.85.85,0,0,0,.84-.85V15.06A10.36,10.36,0,0,0,240.85,4.71Zm232.1,50.84H8.76a1.05,1.05,0,0,1-1.06-1V15.06a8.66,8.66,0,0,1,8.65-8.65h224.5a8.66,8.66,0,0,1,8.66,8.65V54.5A1.05,1.05,0,0,1,248.45,55.55ZM9.81,53.44H247.4V15.06a6.55,6.55,0,0,0-6.55-6.54H16.35a6.55,6.55,0,0,0-6.54,6.54Z" style="fill:#661ff4"/><path d="M88,96.84H6.85A1.91,1.91,0,0,1,5,94.93V56.4a1.9,1.9,0,0,1,1.9-1.9H88a1.9,1.9,0,0,1,1.9,1.9V94.93A1.91,1.91,0,0,1,88,96.84ZM8.76,93H86.12V58.31H8.76Z" style="fill:#661ff4"/><path d="M88,97.89H6.85a3,3,0,0,1-3-3V56.4a3,3,0,0,1,3-3H88a3,3,0,0,1,3,3V94.93A3,3,0,0,1,88,97.89ZM6.85,55.55A.84.84,0,0,0,6,56.4V94.93a.84.84,0,0,0,.84.85H88a.85.85,0,0,0,.85-.85V56.4a.85.85,0,0,0-.85-.85ZM86.12,94.08H8.76A1.05,1.05,0,0,1,7.7,93V58.31a1.05,1.05,0,0,1,1.06-1.06H86.12a1.05,1.05,0,0,1,1,1.06V93A1,1,0,0,1,86.12,94.08ZM9.81,92H85.06V59.36H9.81Z" style="fill:#661ff4"/><path d="M169.19,96.84H88a1.91,1.91,0,0,1-1.9-1.91V56.4A1.9,1.9,0,0,1,88,54.5h81.17a1.9,1.9,0,0,1,1.9,1.9V94.93A1.91,1.91,0,0,1,169.19,96.84ZM89.92,93h77.36V58.31H89.92Z" style="fill:#661ff4"/><path d="M169.19,97.89H88a3,3,0,0,1-3-3V56.4a3,3,0,0,1,3-3h81.17a3,3,0,0,1,3,3V94.93A3,3,0,0,1,169.19,97.89ZM88,55.55a.85.85,0,0,0-.85.85V94.93a.85.85,0,0,0,.85.85h81.17a.85.85,0,0,0,.85-.85V56.4a.85.85,0,0,0-.85-.85Zm79.26,38.53H89.93a1.05,1.05,0,0,1-1.06-1V58.31a1.05,1.05,0,0,1,1.06-1.06h77.35a1.05,1.05,0,0,1,1.06,1.06V93A1.05,1.05,0,0,1,167.28,94.08ZM91,92h75.25V59.36H91Z" style="fill:#661ff4"/><path d="M250.36,96.84H169.19a1.92,1.92,0,0,1-1.91-1.91V56.4a1.91,1.91,0,0,1,1.91-1.9h81.17a1.9,1.9,0,0,1,1.9,1.9V94.93A1.91,1.91,0,0,1,250.36,96.84ZM171.09,93h77.36V58.31H171.09Z" style="fill:#661ff4"/><path d="M250.36,97.89H169.19a3,3,0,0,1-3-3V56.4a3,3,0,0,1,3-3h81.17a3,3,0,0,1,3,3V94.93A3,3,0,0,1,250.36,97.89ZM169.19,55.55a.85.85,0,0,0-.85.85V94.93a.85.85,0,0,0,.85.85h81.17a.85.85,0,0,0,.84-.85V56.4a.85.85,0,0,0-.84-.85Zm79.26,38.53H171.09A1,1,0,0,1,170,93V58.31a1.05,1.05,0,0,1,1.05-1.06h77.36a1.05,1.05,0,0,1,1.06,1.06V93A1.05,1.05,0,0,1,248.45,94.08ZM172.15,92H247.4V59.36H172.15Z" style="fill:#661ff4"/><path d="M88,135.37H6.85A1.9,1.9,0,0,1,5,133.46V94.93A1.9,1.9,0,0,1,6.85,93H88a1.9,1.9,0,0,1,1.9,1.9v38.53A1.9,1.9,0,0,1,88,135.37ZM8.76,131.56H86.12V96.84H8.76Z" style="fill:#661ff4"/><path d="M88,136.43H6.85a3,3,0,0,1-3-3V94.93a3,3,0,0,1,3-3H88a3,3,0,0,1,3,3v38.53A3,3,0,0,1,88,136.43ZM6.85,94.08a.84.84,0,0,0-.84.85v38.53a.84.84,0,0,0,.84.85H88a.85.85,0,0,0,.85-.85V94.93a.85.85,0,0,0-.85-.85Zm79.27,38.54H8.76a1.06,1.06,0,0,1-1.06-1.06V96.84a1.05,1.05,0,0,1,1.06-1.06H86.12a1.05,1.05,0,0,1,1,1.06v34.72A1.06,1.06,0,0,1,86.12,132.62ZM9.81,130.5H85.06V97.89H9.81Z" style="fill:#661ff4"/><path d="M250.36,135.37H169.19a1.91,1.91,0,0,1-1.91-1.91V94.93a1.91,1.91,0,0,1,1.91-1.9h81.17a1.9,1.9,0,0,1,1.9,1.9v38.53A1.9,1.9,0,0,1,250.36,135.37Zm-79.27-3.81h77.36V96.84H171.09Z" style="fill:#661ff4"/><path d="M250.36,136.43H169.19a3,3,0,0,1-3-3V94.93a3,3,0,0,1,3-3h81.17a3,3,0,0,1,3,3v38.53A3,3,0,0,1,250.36,136.43ZM169.19,94.08a.85.85,0,0,0-.85.85v38.53a.85.85,0,0,0,.85.85h81.17a.85.85,0,0,0,.84-.85V94.93a.85.85,0,0,0-.84-.85Zm79.26,38.54H171.09a1.06,1.06,0,0,1-1.05-1.06V96.84a1.05,1.05,0,0,1,1.05-1.06h77.36a1.05,1.05,0,0,1,1.06,1.06v34.72A1.06,1.06,0,0,1,248.45,132.62Zm-76.3-2.12H247.4V97.89H172.15Z" style="fill:#661ff4"/><path d="M88,173.9H6.85A1.9,1.9,0,0,1,5,172V133.46a1.9,1.9,0,0,1,1.9-1.9H88a1.9,1.9,0,0,1,1.9,1.9V172A1.9,1.9,0,0,1,88,173.9ZM8.76,170.09H86.12V135.37H8.76Z" style="fill:#661ff4"/><path d="M88,175H6.85a3,3,0,0,1-3-3V133.46a3,3,0,0,1,3-3H88a3,3,0,0,1,3,3V172A3,3,0,0,1,88,175ZM6.85,132.62a.84.84,0,0,0-.84.84V172a.84.84,0,0,0,.84.84H88a.85.85,0,0,0,.85-.84V133.46a.85.85,0,0,0-.85-.84Zm79.27,38.53H8.76a1.05,1.05,0,0,1-1.06-1.06V135.37a1.06,1.06,0,0,1,1.06-1.06H86.12a1.06,1.06,0,0,1,1,1.06v34.72A1.05,1.05,0,0,1,86.12,171.15ZM9.81,169H85.06V136.43H9.81Z" style="fill:#661ff4"/><path d="M169.19,173.9H88a1.9,1.9,0,0,1-1.9-1.9V133.46a1.9,1.9,0,0,1,1.9-1.9h81.17a1.9,1.9,0,0,1,1.9,1.9V172A1.9,1.9,0,0,1,169.19,173.9Zm-79.27-3.81h77.36V135.37H89.92Z" style="fill:#661ff4"/><path d="M169.19,175H88a3,3,0,0,1-3-3V133.46a3,3,0,0,1,3-3h81.17a3,3,0,0,1,3,3V172A3,3,0,0,1,169.19,175ZM88,132.62a.85.85,0,0,0-.85.84V172a.85.85,0,0,0,.85.84h81.17A.85.85,0,0,0,170,172V133.46a.85.85,0,0,0-.85-.84Zm79.26,38.53H89.93a1.05,1.05,0,0,1-1.06-1.06V135.37a1.06,1.06,0,0,1,1.06-1.06h77.35a1.06,1.06,0,0,1,1.06,1.06v34.72A1.05,1.05,0,0,1,167.28,171.15ZM91,169h75.25V136.43H91Z" style="fill:#661ff4"/><path d="M250.36,173.9H169.19a1.91,1.91,0,0,1-1.91-1.9V133.46a1.91,1.91,0,0,1,1.91-1.9h81.17a1.9,1.9,0,0,1,1.9,1.9V172A1.9,1.9,0,0,1,250.36,173.9Zm-79.27-3.81h77.36V135.37H171.09Z" style="fill:#661ff4"/><path d="M250.36,175H169.19a3,3,0,0,1-3-3V133.46a3,3,0,0,1,3-3h81.17a3,3,0,0,1,3,3V172A3,3,0,0,1,250.36,175Zm-81.17-42.34a.85.85,0,0,0-.85.84V172a.85.85,0,0,0,.85.84h81.17a.85.85,0,0,0,.84-.84V133.46a.85.85,0,0,0-.84-.84Zm79.26,38.53H171.09a1.05,1.05,0,0,1-1.05-1.06V135.37a1.06,1.06,0,0,1,1.05-1.06h77.36a1.06,1.06,0,0,1,1.06,1.06v34.72A1.05,1.05,0,0,1,248.45,171.15ZM172.15,169H247.4V136.43H172.15Z" style="fill:#661ff4"/><path d="M88,212.43H6.85a1.9,1.9,0,0,1-1.9-1.9V172a1.9,1.9,0,0,1,1.9-1.91H88a1.9,1.9,0,0,1,1.9,1.91v38.53A1.9,1.9,0,0,1,88,212.43ZM8.76,208.62H86.12V173.9H8.76Z" style="fill:#661ff4"/><path d="M88,213.49H6.85a3,3,0,0,1-3-3V172a3,3,0,0,1,3-3H88a3,3,0,0,1,3,3v38.53A3,3,0,0,1,88,213.49ZM6.85,171.15A.84.84,0,0,0,6,172v38.53a.84.84,0,0,0,.84.85H88a.85.85,0,0,0,.85-.85V172a.85.85,0,0,0-.85-.85Zm79.27,38.53H8.76a1.05,1.05,0,0,1-1.06-1.06V173.9a1.06,1.06,0,0,1,1.06-1.06H86.12a1.06,1.06,0,0,1,1,1.06v34.72A1.05,1.05,0,0,1,86.12,209.68ZM9.81,207.57H85.06V175H9.81Z" style="fill:#661ff4"/><path d="M169.19,212.43H88a1.9,1.9,0,0,1-1.9-1.9V172a1.9,1.9,0,0,1,1.9-1.91h81.17a1.9,1.9,0,0,1,1.9,1.91v38.53A1.9,1.9,0,0,1,169.19,212.43Zm-79.27-3.81h77.36V173.9H89.92Z" style="fill:#661ff4"/><path d="M169.19,213.49H88a3,3,0,0,1-3-3V172a3,3,0,0,1,3-3h81.17a3,3,0,0,1,3,3v38.53A3,3,0,0,1,169.19,213.49ZM88,171.15a.85.85,0,0,0-.85.85v38.53a.85.85,0,0,0,.85.85h81.17a.85.85,0,0,0,.85-.85V172a.85.85,0,0,0-.85-.85Zm79.26,38.53H89.93a1.05,1.05,0,0,1-1.06-1.06V173.9a1.06,1.06,0,0,1,1.06-1.06h77.35a1.06,1.06,0,0,1,1.06,1.06v34.72A1.05,1.05,0,0,1,167.28,209.68ZM91,207.57h75.25V175H91Z" style="fill:#661ff4"/><path d="M250.36,212.43H169.19a1.91,1.91,0,0,1-1.91-1.9V172a1.91,1.91,0,0,1,1.91-1.91h81.17a1.9,1.9,0,0,1,1.9,1.91v38.53A1.9,1.9,0,0,1,250.36,212.43Zm-79.27-3.81h77.36V173.9H171.09Z" style="fill:#661ff4"/><path d="M250.36,213.49H169.19a3,3,0,0,1-3-3V172a3,3,0,0,1,3-3h81.17a3,3,0,0,1,3,3v38.53A3,3,0,0,1,250.36,213.49Zm-81.17-42.34a.85.85,0,0,0-.85.85v38.53a.85.85,0,0,0,.85.85h81.17a.85.85,0,0,0,.84-.85V172a.85.85,0,0,0-.84-.85Zm79.26,38.53H171.09a1.05,1.05,0,0,1-1.05-1.06V173.9a1.06,1.06,0,0,1,1.05-1.06h77.36a1.06,1.06,0,0,1,1.06,1.06v34.72A1.05,1.05,0,0,1,248.45,209.68Zm-76.3-2.11H247.4V175H172.15Z" style="fill:#661ff4"/><path d="M169.19,251H88a1.9,1.9,0,0,1-1.9-1.9V210.53a1.91,1.91,0,0,1,1.9-1.91h81.17a1.91,1.91,0,0,1,1.9,1.91v38.53A1.9,1.9,0,0,1,169.19,251Zm-79.27-3.8h77.36V212.43H89.92Z" style="fill:#661ff4"/><path d="M169.19,252H88a3,3,0,0,1-3-3V210.53a3,3,0,0,1,3-3h81.17a3,3,0,0,1,3,3v38.53A3,3,0,0,1,169.19,252ZM88,209.68a.85.85,0,0,0-.85.85v38.53a.85.85,0,0,0,.85.85h81.17a.85.85,0,0,0,.85-.85V210.53a.85.85,0,0,0-.85-.85Zm79.26,38.53H89.93a1.05,1.05,0,0,1-1.06-1.05V212.43a1.05,1.05,0,0,1,1.06-1.05h77.35a1.05,1.05,0,0,1,1.06,1.05v34.73A1.05,1.05,0,0,1,167.28,248.21ZM91,246.1h75.25V213.49H91Z" style="fill:#661ff4"/><path d="M240.87,251H169.19a1.91,1.91,0,0,1-1.91-1.9V210.53a1.92,1.92,0,0,1,1.91-1.91h81.17a1.91,1.91,0,0,1,1.9,1.91v29.05A11.39,11.39,0,0,1,240.87,251Zm-69.78-3.8h69.78a7.59,7.59,0,0,0,7.58-7.58V212.43H171.09Z" style="fill:#661ff4"/><path d="M240.87,252H169.19a3,3,0,0,1-3-3V210.53a3,3,0,0,1,3-3h81.17a3,3,0,0,1,3,3v29.05A12.46,12.46,0,0,1,240.87,252Zm-71.68-42.34a.85.85,0,0,0-.85.85v38.53a.85.85,0,0,0,.85.85h71.68a10.34,10.34,0,0,0,10.33-10.33V210.53a.85.85,0,0,0-.84-.85Zm71.68,38.53H171.09a1,1,0,0,1-1.05-1.05V212.43a1,1,0,0,1,1.05-1.05h77.36a1.05,1.05,0,0,1,1.06,1.05v27.15A8.65,8.65,0,0,1,240.87,248.21Zm-68.72-2.11h68.72a6.54,6.54,0,0,0,6.53-6.52V213.49H172.15Z" style="fill:#661ff4"/><path d="M149,41.64H23.06a1.92,1.92,0,0,1-1.91-1.91V22.23a1.91,1.91,0,0,1,1.91-1.91H149a1.91,1.91,0,0,1,1.91,1.91v17.5A1.92,1.92,0,0,1,149,41.64ZM25,37.83H147.09V24.13H25Z" style="fill:#661ff4"/><path d="M149,42.69H23.06a3,3,0,0,1-3-3V22.23a3,3,0,0,1,3-3H149a3,3,0,0,1,3,3v17.5A3,3,0,0,1,149,42.69ZM23.06,21.38a.85.85,0,0,0-.85.85v17.5a.85.85,0,0,0,.85.85H149a.85.85,0,0,0,.85-.85V22.23a.85.85,0,0,0-.85-.85Zm124,17.5H25a1,1,0,0,1-1.05-1.05V24.13A1.06,1.06,0,0,1,25,23.07H147.09a1.06,1.06,0,0,1,1,1.06v13.7A1,1,0,0,1,147.09,38.88ZM26,36.77H146V25.19H26Z" style="fill:#661ff4"/><path d="M173.79,41.64A10.66,10.66,0,1,1,184.45,31,10.68,10.68,0,0,1,173.79,41.64Zm0-17.51A6.85,6.85,0,1,0,180.64,31,6.85,6.85,0,0,0,173.79,24.13Z" style="fill:#661ff4"/><path d="M173.79,42.69A11.71,11.71,0,1,1,185.5,31,11.72,11.72,0,0,1,173.79,42.69Zm0-21.31a9.6,9.6,0,1,0,9.6,9.6A9.62,9.62,0,0,0,173.79,21.38Zm0,17.5a7.91,7.91,0,1,1,7.9-7.9A7.9,7.9,0,0,1,173.79,38.88Zm0-13.69A5.79,5.79,0,1,0,179.58,31,5.79,5.79,0,0,0,173.79,25.19Z" style="fill:#661ff4"/><path d="M199.59,41.64A10.66,10.66,0,1,1,210.25,31,10.67,10.67,0,0,1,199.59,41.64Zm0-17.51A6.85,6.85,0,1,0,206.44,31,6.85,6.85,0,0,0,199.59,24.13Z" style="fill:#661ff4"/><path d="M199.59,42.69A11.71,11.71,0,1,1,211.31,31,11.73,11.73,0,0,1,199.59,42.69Zm0-21.31a9.6,9.6,0,1,0,9.6,9.6A9.62,9.62,0,0,0,199.59,21.38Zm0,17.5A7.91,7.91,0,1,1,207.5,31,7.91,7.91,0,0,1,199.59,38.88Zm0-13.69a5.79,5.79,0,1,0,5.8,5.79A5.79,5.79,0,0,0,199.59,25.19Z" style="fill:#661ff4"/><path d="M225.4,41.64A10.66,10.66,0,1,1,236.06,31,10.68,10.68,0,0,1,225.4,41.64Zm0-17.51A6.85,6.85,0,1,0,232.25,31,6.85,6.85,0,0,0,225.4,24.13Z" style="fill:#661ff4"/><path d="M225.4,42.69A11.71,11.71,0,1,1,237.11,31,11.72,11.72,0,0,1,225.4,42.69Zm0-21.31A9.6,9.6,0,1,0,235,31,9.62,9.62,0,0,0,225.4,21.38Zm0,17.5a7.91,7.91,0,1,1,7.9-7.9A7.91,7.91,0,0,1,225.4,38.88Zm0-13.69A5.79,5.79,0,1,0,231.19,31,5.79,5.79,0,0,0,225.4,25.19Z" style="fill:#661ff4"/></svg>