<svg id="Layer_1" data-name="Layer 1" xmlns="http://www.w3.org/2000/svg" viewBox="0 0 256 256"><path d="M251.08,230.41H4.61a1.89,1.89,0,0,1-1.89-1.89V67.64a1.89,1.89,0,0,1,1.89-1.89H251.08A1.88,1.88,0,0,1,253,67.64V228.52A1.89,1.89,0,0,1,251.08,230.41ZM6.5,226.64H249.19V69.52H6.5Z" style="fill:#661ff4"/><path d="M251.08,231.24H4.61a2.72,2.72,0,0,1-2.72-2.72V67.64a2.72,2.72,0,0,1,2.72-2.72H251.08a2.71,2.71,0,0,1,2.71,2.72V228.52A2.71,2.71,0,0,1,251.08,231.24ZM4.61,66.58a1.06,1.06,0,0,0-1.06,1.06V228.52a1.06,1.06,0,0,0,1.06,1.06H251.08a1.06,1.06,0,0,0,1.06-1.06V67.64a1.06,1.06,0,0,0-1.06-1.06ZM249.19,227.46H6.5a.83.83,0,0,1-.83-.82V69.52a.83.83,0,0,1,.83-.83H249.19a.83.83,0,0,1,.83.83V226.64A.83.83,0,0,1,249.19,227.46ZM7.32,225.81h241V70.35H7.32Z" style="fill:#661ff4"/><path d="M86.77,69.52H4.61a1.89,1.89,0,0,1-1.89-1.88V33.16a1.89,1.89,0,0,1,1.89-1.89H86.77a1.89,1.89,0,0,1,1.88,1.89V67.64A1.88,1.88,0,0,1,86.77,69.52ZM6.5,65.75H84.88V35H6.5Z" style="fill:#661ff4"/><path d="M86.77,70.35H4.61a2.72,2.72,0,0,1-2.72-2.71V33.16a2.72,2.72,0,0,1,2.72-2.72H86.77a2.72,2.72,0,0,1,2.71,2.72V67.64A2.72,2.72,0,0,1,86.77,70.35ZM4.61,32.1a1.06,1.06,0,0,0-1.06,1.06V67.64a1.06,1.06,0,0,0,1.06,1H86.77a1,1,0,0,0,1-1V33.16a1.05,1.05,0,0,0-1-1.06ZM84.88,66.58H6.5a.83.83,0,0,1-.83-.83V35a.83.83,0,0,1,.83-.82H84.88a.83.83,0,0,1,.83.82V65.75A.83.83,0,0,1,84.88,66.58ZM7.32,64.92H84.05V35.87H7.32Z" style="fill:#661ff4"/><path d="M168.92,69.52H86.77a1.88,1.88,0,0,1-1.89-1.88V33.16a1.89,1.89,0,0,1,1.89-1.89h82.15a1.89,1.89,0,0,1,1.89,1.89V67.64A1.89,1.89,0,0,1,168.92,69.52ZM88.65,65.75H167V35H88.65Z" style="fill:#661ff4"/><path d="M168.92,70.35H86.77a2.72,2.72,0,0,1-2.72-2.71V33.16a2.72,2.72,0,0,1,2.72-2.72h82.15a2.72,2.72,0,0,1,2.72,2.72V67.64A2.72,2.72,0,0,1,168.92,70.35ZM86.77,32.1a1.05,1.05,0,0,0-1.06,1.06V67.64a1.05,1.05,0,0,0,1.06,1h82.15a1.05,1.05,0,0,0,1.06-1V33.16a1.05,1.05,0,0,0-1.06-1.06ZM167,66.58H88.65a.83.83,0,0,1-.83-.83V35a.83.83,0,0,1,.83-.82H167a.83.83,0,0,1,.83.82V65.75A.83.83,0,0,1,167,66.58ZM89.48,64.92h76.73V35.87H89.48Z" style="fill:#661ff4"/><path d="M251.08,69.52H168.92A1.88,1.88,0,0,1,167,67.64V33.16a1.89,1.89,0,0,1,1.88-1.89h82.16A1.89,1.89,0,0,1,253,33.16V67.64A1.88,1.88,0,0,1,251.08,69.52Zm-80.27-3.77h78.38V35H170.81Z" style="fill:#661ff4"/><path d="M251.08,70.35H168.92a2.71,2.71,0,0,1-2.71-2.71V33.16a2.71,2.71,0,0,1,2.71-2.72h82.16a2.71,2.71,0,0,1,2.71,2.72V67.64A2.71,2.71,0,0,1,251.08,70.35ZM168.92,32.1a1.06,1.06,0,0,0-1.06,1.06V67.64a1.06,1.06,0,0,0,1.06,1h82.16a1.06,1.06,0,0,0,1.06-1V33.16a1.06,1.06,0,0,0-1.06-1.06Zm80.27,34.48H170.81a.83.83,0,0,1-.83-.83V35a.83.83,0,0,1,.83-.82h78.38A.83.83,0,0,1,250,35V65.75A.83.83,0,0,1,249.19,66.58Zm-77.55-1.66h76.72V35.87H171.64Z" style="fill:#661ff4"/><path d="M235.11,159.7H139.77a1.89,1.89,0,0,1,0-3.78h95.34a1.89,1.89,0,0,1,0,3.78Z" style="fill:#661ff4"/><path d="M235.11,160.52H139.77a2.72,2.72,0,0,1,0-5.43h95.34a2.72,2.72,0,0,1,0,5.43Zm-95.34-3.77a1.06,1.06,0,0,0,0,2.12h95.34a1.06,1.06,0,0,0,0-2.12Z" style="fill:#661ff4"/><path d="M235.11,175.46H139.77a1.89,1.89,0,1,1,0-3.77h95.34a1.89,1.89,0,0,1,0,3.77Z" style="fill:#661ff4"/><path d="M235.11,176.29H139.77a2.72,2.72,0,0,1,0-5.43h95.34a2.72,2.72,0,0,1,0,5.43Zm-95.34-3.77a1.06,1.06,0,1,0,0,2.11h95.34a1.06,1.06,0,1,0,0-2.11Z" style="fill:#661ff4"/><path d="M235.11,191.23H139.77a1.89,1.89,0,1,1,0-3.77h95.34a1.89,1.89,0,0,1,0,3.77Z" style="fill:#661ff4"/><path d="M235.11,192.06H139.77a2.72,2.72,0,0,1,0-5.43h95.34a2.72,2.72,0,0,1,0,5.43Zm-95.34-3.77a1.06,1.06,0,1,0,0,2.11h95.34a1.06,1.06,0,1,0,0-2.11Z" style="fill:#661ff4"/><path d="M206.67,142.76h-66.9a1.89,1.89,0,0,1-1.89-1.89V121.33a1.89,1.89,0,0,1,1.89-1.89h66.9a1.89,1.89,0,0,1,1.89,1.89v19.54A1.89,1.89,0,0,1,206.67,142.76Zm-65-3.78h63.13V123.22H141.66Z" style="fill:#661ff4"/><path d="M206.67,143.59h-66.9a2.71,2.71,0,0,1-2.71-2.72V121.33a2.71,2.71,0,0,1,2.71-2.72h66.9a2.72,2.72,0,0,1,2.72,2.72v19.54A2.72,2.72,0,0,1,206.67,143.59Zm-66.9-23.32a1.07,1.07,0,0,0-1.06,1.06v19.54a1.07,1.07,0,0,0,1.06,1.06h66.9a1.06,1.06,0,0,0,1.06-1.06V121.33a1.06,1.06,0,0,0-1.06-1.06Zm65,19.54H141.66a.83.83,0,0,1-.83-.83V123.22a.83.83,0,0,1,.83-.83h63.13a.83.83,0,0,1,.83.83V139A.83.83,0,0,1,204.79,139.81Zm-62.3-1.66H204v-14.1H142.49Z" style="fill:#661ff4"/><path d="M123,201.42H20.58a1.89,1.89,0,0,1-1.89-1.88V97.12a1.89,1.89,0,0,1,1.89-1.88H123a1.89,1.89,0,0,1,1.89,1.88V199.54A1.89,1.89,0,0,1,123,201.42ZM22.47,197.65H121.1V99H22.47Z" style="fill:#661ff4"/><path d="M123,202.25H20.58a2.72,2.72,0,0,1-2.72-2.71V97.12a2.72,2.72,0,0,1,2.72-2.71H123a2.72,2.72,0,0,1,2.72,2.71V199.54A2.72,2.72,0,0,1,123,202.25ZM20.58,96.07a1.05,1.05,0,0,0-1.06,1.05V199.54a1.05,1.05,0,0,0,1.06,1.05H123a1.06,1.06,0,0,0,1.06-1.05V97.12A1.06,1.06,0,0,0,123,96.07ZM121.1,198.48H22.46a.83.83,0,0,1-.82-.83V99a.83.83,0,0,1,.82-.83H121.1a.83.83,0,0,1,.83.83v98.64A.83.83,0,0,1,121.1,198.48Zm-97.81-1.66h97v-97h-97Z" style="fill:#661ff4"/><path d="M101.13,167.73H42.44a1.89,1.89,0,0,1-1.54-3l18.22-25.3a1.87,1.87,0,0,1,1.49-.79,1.9,1.9,0,0,1,1.53.72l8.43,10.76L86.7,129.65a1.89,1.89,0,0,1,3.25.52l13,35a1.89,1.89,0,0,1-1.77,2.55Zm-55-3.78h52.3L87.58,134.64,72.05,154.36a1.89,1.89,0,0,1-1.48.71h0a1.85,1.85,0,0,1-1.48-.72l-8.37-10.67Z" style="fill:#661ff4"/><path d="M101.13,168.55H42.44a2.71,2.71,0,0,1-2.21-4.3L58.45,139a2.71,2.71,0,0,1,4.34-.09l7.78,9.93,15.48-19.65a2.72,2.72,0,0,1,4.68.74l13,35a2.71,2.71,0,0,1-2.55,3.65ZM60.68,139.48h0a1.09,1.09,0,0,0-.86.44l-18.21,25.3a1,1,0,0,0-.09,1.1,1.07,1.07,0,0,0,.95.58h58.69a1.07,1.07,0,0,0,1-1.43l-13-35a1.06,1.06,0,0,0-.83-.68,1,1,0,0,0-1,.39L71.22,150.65a.8.8,0,0,1-.65.31h0a.83.83,0,0,1-.65-.31l-8.44-10.77A1,1,0,0,0,60.68,139.48Zm37.74,25.3H46.12a.82.82,0,0,1-.74-.45.81.81,0,0,1,.07-.86L60,143.19a.83.83,0,0,1,.66-.34.82.82,0,0,1,.67.32l8.37,10.67a1.08,1.08,0,0,0,1.66,0l15.53-19.72a.82.82,0,0,1,.78-.3.84.84,0,0,1,.65.53L99.2,163.66a.85.85,0,0,1-.1.77A.83.83,0,0,1,98.42,164.78Zm-50.68-1.66H97.23l-9.92-26.81L72.7,154.87a2.67,2.67,0,0,1-2.13,1,2.71,2.71,0,0,1-2.14-1l-7.69-9.8Z" style="fill:#661ff4"/></svg>