<svg id="Layer_1" data-name="Layer 1" xmlns="http://www.w3.org/2000/svg" viewBox="0 0 256 256"><path d="M19.7,130.47a1.59,1.59,0,0,1-1.59-1.59A113,113,0,0,1,131,16a1.6,1.6,0,0,1,0,3.19A109.78,109.78,0,0,0,21.3,128.88,1.6,1.6,0,0,1,19.7,130.47Z" style="fill:#661ff4"/><path d="M19.7,131.61A2.73,2.73,0,0,1,17,128.88a114.11,114.11,0,0,1,114-114,2.74,2.74,0,0,1,0,5.47A108.64,108.64,0,0,0,22.44,128.88,2.74,2.74,0,0,1,19.7,131.61ZM131,17.18a111.83,111.83,0,0,0-111.7,111.7.45.45,0,0,0,.45.45.46.46,0,0,0,.46-.45A110.92,110.92,0,0,1,131,18.09a.45.45,0,0,0,.45-.45A.46.46,0,0,0,131,17.18Z" style="fill:#661ff4"/><path d="M166.58,32.54a14.9,14.9,0,1,1,14.9-14.9A14.92,14.92,0,0,1,166.58,32.54Zm0-26.62a11.72,11.72,0,1,0,11.71,11.72A11.73,11.73,0,0,0,166.58,5.92Z" style="fill:#661ff4"/><path d="M166.58,33.68a16,16,0,1,1,16-16A16.06,16.06,0,0,1,166.58,33.68Zm0-29.8a13.76,13.76,0,1,0,13.76,13.76A13.77,13.77,0,0,0,166.58,3.88Zm0,26.61a12.86,12.86,0,1,1,12.85-12.85A12.87,12.87,0,0,1,166.58,30.49Zm0-23.43a10.58,10.58,0,1,0,10.57,10.58A10.59,10.59,0,0,0,166.58,7.06Z" style="fill:#661ff4"/><path d="M133,240.16a1.6,1.6,0,0,1,0-3.19A109.78,109.78,0,0,0,242.6,127.32a1.6,1.6,0,0,1,3.19,0A113,113,0,0,1,133,240.16Z" style="fill:#661ff4"/><path d="M133,241.3a2.74,2.74,0,0,1,0-5.47A108.64,108.64,0,0,0,241.46,127.32a2.74,2.74,0,0,1,5.47,0A114.11,114.11,0,0,1,133,241.3ZM244.19,126.86a.46.46,0,0,0-.45.46A110.92,110.92,0,0,1,133,238.11a.45.45,0,0,0-.45.45.46.46,0,0,0,.45.46,111.83,111.83,0,0,0,111.7-111.7A.47.47,0,0,0,244.19,126.86Z" style="fill:#661ff4"/><path d="M95.87,253.46a14.9,14.9,0,1,1,14.9-14.9A14.91,14.91,0,0,1,95.87,253.46Zm0-26.61a11.71,11.71,0,1,0,11.71,11.71A11.72,11.72,0,0,0,95.87,226.85Z" style="fill:#661ff4"/><path d="M95.87,254.6a16,16,0,1,1,16-16A16.05,16.05,0,0,1,95.87,254.6Zm0-29.8a13.76,13.76,0,1,0,13.76,13.76A13.77,13.77,0,0,0,95.87,224.8Zm0,26.61a12.85,12.85,0,1,1,12.85-12.85A12.86,12.86,0,0,1,95.87,251.41Zm0-23.42a10.58,10.58,0,1,0,10.57,10.57A10.59,10.59,0,0,0,95.87,228Z" style="fill:#661ff4"/><polygon points="123.38 28.39 121.13 26.14 129.11 18.16 119.31 11.71 121.06 9.05 134.13 17.64 123.38 28.39" style="fill:#661ff4"/><path d="M123.38,30l-3.86-3.86,7.8-7.8L117.73,12l3-4.57,15.19,10Zm-.64-3.86.64.64,9-9-11-7.2-.5.76,10,6.58Z" style="fill:#661ff4"/><polygon points="141.5 248.34 128.44 239.74 139.19 228.99 141.44 231.25 133.46 239.23 143.26 245.67 141.5 248.34" style="fill:#661ff4"/><path d="M141.83,249.91l-15.19-10,12.55-12.54,3.86,3.87-7.8,7.8,9.58,6.3Zm-11.6-10.35,11,7.2.5-.76-10-6.59,8.17-8.16-.64-.64Z" style="fill:#661ff4"/><path d="M190.15,194.23H143.59a1.47,1.47,0,0,1-1.47-1.47V181.38a1.47,1.47,0,0,1,1.4-1.47l4.16-.21V147.87H116.24v32h4.07a1.47,1.47,0,0,1,1.47,1.48v11.39a1.47,1.47,0,0,1-1.47,1.47H73.75a1.47,1.47,0,0,1-1.48-1.47V181.39a1.47,1.47,0,0,1,1.4-1.47l4.39-.22V78l-4.39-.23a1.47,1.47,0,0,1-1.4-1.47V65a1.47,1.47,0,0,1,1.48-1.47h46.56A1.47,1.47,0,0,1,121.78,65V76.36a1.47,1.47,0,0,1-1.39,1.47l-4.17.22v31.8h31.44V78h-4.07a1.47,1.47,0,0,1-1.47-1.47V65a1.47,1.47,0,0,1,1.47-1.47h46.56A1.47,1.47,0,0,1,191.62,65V76.36a1.47,1.47,0,0,1-1.4,1.47l-1.19.06-3.19.16V179.72l4.39.23a1.46,1.46,0,0,1,1.39,1.47v11.34A1.47,1.47,0,0,1,190.15,194.23Zm-45.09-2.95h43.62v-8.46l-4.39-.23a1.47,1.47,0,0,1-1.4-1.47V76.65a1.47,1.47,0,0,1,1.4-1.47l4.39-.22V66.47H145.06V75h4.07a1.47,1.47,0,0,1,1.48,1.47v34.83a1.47,1.47,0,0,1-1.48,1.47H114.75a1.47,1.47,0,0,1-1.47-1.47V76.66a1.47,1.47,0,0,1,1.4-1.47l4.16-.22v-8.5H75.22v8.46l4.39.23A1.46,1.46,0,0,1,81,76.63V181.11a1.47,1.47,0,0,1-1.39,1.47l-4.39.21v8.49h43.62v-8.44h-4.08a1.47,1.47,0,0,1-1.47-1.47v-35a1.47,1.47,0,0,1,1.47-1.48h34.39a1.47,1.47,0,0,1,1.47,1.48v34.69a1.46,1.46,0,0,1-1.39,1.47l-4.17.22ZM190.15,76.36h0Z" style="fill:#661ff4"/><path d="M190.15,195.37H143.59a2.61,2.61,0,0,1-2.61-2.61V181.38a2.6,2.6,0,0,1,2.48-2.6l3.08-.17V149H117.38v29.74h2.93a2.62,2.62,0,0,1,2.61,2.62v11.39a2.61,2.61,0,0,1-2.61,2.61H73.75a2.62,2.62,0,0,1-2.62-2.61V181.39a2.62,2.62,0,0,1,2.49-2.61l3.3-.16V79.11l-3.31-.17a2.61,2.61,0,0,1-2.48-2.61V65a2.62,2.62,0,0,1,2.62-2.61h46.56A2.61,2.61,0,0,1,122.92,65V76.36A2.6,2.6,0,0,1,120.45,79l-3.09.16v29.58h29.16V79.1h-2.93A2.61,2.61,0,0,1,141,76.49V65a2.61,2.61,0,0,1,2.61-2.61h46.56A2.61,2.61,0,0,1,192.76,65V76.36A2.61,2.61,0,0,1,190.28,79l-3.3.16v99.51l3.3.17a2.61,2.61,0,0,1,2.48,2.61v11.34A2.61,2.61,0,0,1,190.15,195.37ZM115.1,146.73h33.72v34.05l-5.25.27a.34.34,0,0,0-.31.33v11.38a.33.33,0,0,0,.33.33h46.56a.33.33,0,0,0,.33-.33V181.42a.32.32,0,0,0-.31-.33l-5.47-.28V77l5.46-.27V75.22h0v1.47h0a.32.32,0,0,0,.31-.33V65a.33.33,0,0,0-.33-.33H143.59a.33.33,0,0,0-.33.33V76.49a.34.34,0,0,0,.33.34h5.21V111H115.09V77l5.24-.28a.32.32,0,0,0,.31-.33V65a.33.33,0,0,0-.33-.33H73.75a.34.34,0,0,0-.34.33V76.33a.32.32,0,0,0,.32.33l5.47.28V180.79l-5.47.27a.33.33,0,0,0-.32.33v11.37a.34.34,0,0,0,.34.33h46.56a.33.33,0,0,0,.33-.33V181.37a.34.34,0,0,0-.33-.34H115.1Zm74.72,45.69h-45.9V181.7l5.25-.27a.34.34,0,0,0,.31-.34V146.4a.34.34,0,0,0-.33-.34H114.76a.34.34,0,0,0-.33.34v35a.33.33,0,0,0,.33.33H120v10.72H74.08V181.71l5.47-.27a.33.33,0,0,0,.31-.33V76.63a.32.32,0,0,0-.31-.33L74.08,76V65.33H120V76.05l-5.24.28a.33.33,0,0,0-.32.33v34.66a.33.33,0,0,0,.33.33h34.38a.34.34,0,0,0,.34-.33V76.49a.34.34,0,0,0-.34-.33h-5.21V65.33h45.9V76.05l-1.66.08-3.81.18a.34.34,0,0,0-.32.34V181.12a.32.32,0,0,0,.32.33l5.47.28Zm-43.62-2.27h41.34V183.9l-3.31-.17a2.61,2.61,0,0,1-2.48-2.61V76.65A2.61,2.61,0,0,1,184.23,74l3.31-.17V67.61H146.2v6.27h2.93a2.61,2.61,0,0,1,2.61,2.61v34.83a2.61,2.61,0,0,1-2.61,2.61H114.75a2.61,2.61,0,0,1-2.61-2.61V76.66a2.61,2.61,0,0,1,2.48-2.61l3.08-.16V67.61H76.36v6.24l3.3.17a2.61,2.61,0,0,1,2.48,2.61V181.11a2.6,2.6,0,0,1-2.48,2.6l-3.3.17v6.27H117.7V184h-2.94a2.61,2.61,0,0,1-2.61-2.61v-35a2.62,2.62,0,0,1,2.61-2.62h34.39a2.62,2.62,0,0,1,2.61,2.62v34.69a2.61,2.61,0,0,1-2.47,2.61l-3.09.16Z" style="fill:#661ff4"/></svg>