<svg id="Layer_1" data-name="Layer 1" xmlns="http://www.w3.org/2000/svg" viewBox="0 0 256 256"><path d="M134.83,252a21.25,21.25,0,1,1,21.24-21.24A21.27,21.27,0,0,1,134.83,252Zm0-35.17a13.93,13.93,0,1,0,13.92,13.93A13.95,13.95,0,0,0,134.83,216.79Z" style="fill:#661ff4"/><path d="M87.32,247.1a16.39,16.39,0,1,1,16.38-16.38A16.4,16.4,0,0,1,87.32,247.1Zm0-25.45a9.07,9.07,0,1,0,9.07,9.07A9.08,9.08,0,0,0,87.32,221.65Z" style="fill:#661ff4"/><path d="M182.33,247.1a16.39,16.39,0,1,1,16.39-16.38A16.4,16.4,0,0,1,182.33,247.1Zm0-25.45a9.07,9.07,0,1,0,9.07,9.07A9.07,9.07,0,0,0,182.33,221.65Z" style="fill:#661ff4"/><path d="M232.41,205.16H36.68A3.66,3.66,0,0,1,33,201.5V5.77a3.66,3.66,0,0,1,3.66-3.66H232.41a3.66,3.66,0,0,1,3.66,3.66V201.5A3.66,3.66,0,0,1,232.41,205.16ZM40.34,197.85H228.75V9.43H40.34Z" style="fill:#661ff4"/><path d="M172.89,98.42H97.13A4.05,4.05,0,0,1,93.84,92l23.52-32.65a4,4,0,0,1,6.46-.14l9.62,12.28L153,46.68a4,4,0,0,1,7,1.1L176.68,93a4,4,0,0,1-3.79,5.45ZM105,90.33h62.06l-12.2-33-18.27,23.2a4,4,0,0,1-3.17,1.54h0a4,4,0,0,1-3.17-1.55l-9.49-12.09Z" style="fill:#661ff4"/><path d="M203.05,139.4H67a4,4,0,1,1,0-8.08H203.05a4,4,0,0,1,0,8.08Z" style="fill:#661ff4"/><path d="M203.05,161.91H67a4,4,0,0,1,0-8.09H203.05a4,4,0,0,1,0,8.09Z" style="fill:#661ff4"/></svg>