<svg id="Layer_1" data-name="Layer 1" xmlns="http://www.w3.org/2000/svg" viewBox="0 0 256 256"><path d="M74.35,201.32a70.15,70.15,0,1,1,70.15-70.15A70.23,70.23,0,0,1,74.35,201.32Zm0-137a66.83,66.83,0,1,0,66.83,66.83A66.91,66.91,0,0,0,74.35,64.34Z" style="fill:#661ff4"/><path d="M74.35,202.08a70.91,70.91,0,1,1,70.91-70.91A71,71,0,0,1,74.35,202.08Zm0-140.3a69.39,69.39,0,1,0,69.39,69.39A69.47,69.47,0,0,0,74.35,61.78Zm0,137a67.59,67.59,0,1,1,67.59-67.59A67.67,67.67,0,0,1,74.35,198.76Zm0-133.66a66.07,66.07,0,1,0,66.07,66.07A66.15,66.15,0,0,0,74.35,65.1Z" style="fill:#661ff4"/><path d="M74.35,185.14a54,54,0,1,1,54-54A54,54,0,0,1,74.35,185.14Zm0-104.62A50.65,50.65,0,1,0,125,131.17,50.71,50.71,0,0,0,74.35,80.52Z" style="fill:#661ff4"/><path d="M74.35,185.9a54.73,54.73,0,1,1,54.73-54.73A54.79,54.79,0,0,1,74.35,185.9ZM74.35,78a53.21,53.21,0,1,0,53.21,53.21A53.27,53.27,0,0,0,74.35,78Zm0,104.62a51.41,51.41,0,1,1,51.41-51.41A51.47,51.47,0,0,1,74.35,182.58Zm0-101.3a49.89,49.89,0,1,0,49.89,49.89A49.95,49.95,0,0,0,74.35,81.28Z" style="fill:#661ff4"/><rect x="69.43" y="99.43" width="8.02" height="47.43" style="fill:#661ff4"/><path d="M77.45,147.62h-8a.76.76,0,0,1-.76-.76V99.43a.77.77,0,0,1,.76-.76h8a.77.77,0,0,1,.76.76v47.43A.76.76,0,0,1,77.45,147.62Zm-7.26-1.52h6.5V100.19h-6.5Z" style="fill:#661ff4"/><rect x="66.1" y="133.96" width="38.28" height="8.02" style="fill:#661ff4"/><path d="M104.38,142.74H66.1a.76.76,0,0,1-.76-.76v-8a.76.76,0,0,1,.76-.76h38.28a.76.76,0,0,1,.76.76v8A.76.76,0,0,1,104.38,142.74Zm-37.52-1.52h36.76v-6.5H66.86Z" style="fill:#661ff4"/><path d="M252.68,84.18H153a1.66,1.66,0,0,1-1.66-1.66V62.68A1.66,1.66,0,0,1,153,61h99.67a1.66,1.66,0,0,1,1.66,1.66V82.52A1.66,1.66,0,0,1,252.68,84.18Zm-98-3.32H251V64.34H154.67Z" style="fill:#661ff4"/><path d="M252.68,84.94H153a2.43,2.43,0,0,1-2.42-2.42V62.68A2.42,2.42,0,0,1,153,60.26h99.67a2.42,2.42,0,0,1,2.42,2.42V82.52A2.43,2.43,0,0,1,252.68,84.94ZM153,61.78a.9.9,0,0,0-.9.9V82.52a.9.9,0,0,0,.9.9h99.67a.9.9,0,0,0,.9-.9V62.68a.9.9,0,0,0-.9-.9Zm98,19.84H154.67a.76.76,0,0,1-.76-.76V64.34a.76.76,0,0,1,.76-.76H251a.76.76,0,0,1,.76.76V80.86A.76.76,0,0,1,251,81.62ZM155.43,80.1h94.83v-15H155.43Z" style="fill:#661ff4"/><path d="M252.68,123.23H153a1.67,1.67,0,0,1-1.66-1.66V101.73a1.66,1.66,0,0,1,1.66-1.66h99.67a1.66,1.66,0,0,1,1.66,1.66v19.84A1.67,1.67,0,0,1,252.68,123.23Zm-98-3.32H251V103.38H154.67Z" style="fill:#661ff4"/><path d="M252.68,124H153a2.43,2.43,0,0,1-2.42-2.42V101.73A2.42,2.42,0,0,1,153,99.31h99.67a2.42,2.42,0,0,1,2.42,2.42v19.84A2.43,2.43,0,0,1,252.68,124ZM153,100.83a.9.9,0,0,0-.9.9v19.84a.91.91,0,0,0,.9.9h99.67a.91.91,0,0,0,.9-.9V101.73a.9.9,0,0,0-.9-.9Zm98,19.84H154.67a.76.76,0,0,1-.76-.76V103.38a.76.76,0,0,1,.76-.76H251a.76.76,0,0,1,.76.76v16.53A.76.76,0,0,1,251,120.67Zm-95.59-1.52h94.83v-15H155.43Z" style="fill:#661ff4"/><path d="M252.68,162.27H153a1.66,1.66,0,0,1-1.66-1.66V140.77a1.67,1.67,0,0,1,1.66-1.66h99.67a1.67,1.67,0,0,1,1.66,1.66v19.84A1.66,1.66,0,0,1,252.68,162.27Zm-98-3.32H251V142.43H154.67Z" style="fill:#661ff4"/><path d="M252.68,163H153a2.42,2.42,0,0,1-2.42-2.42V140.77a2.43,2.43,0,0,1,2.42-2.42h99.67a2.43,2.43,0,0,1,2.42,2.42v19.84A2.42,2.42,0,0,1,252.68,163ZM153,139.87a.91.91,0,0,0-.9.9v19.84a.9.9,0,0,0,.9.9h99.67a.9.9,0,0,0,.9-.9V140.77a.91.91,0,0,0-.9-.9Zm98,19.84H154.67a.76.76,0,0,1-.76-.76V142.43a.76.76,0,0,1,.76-.76H251a.76.76,0,0,1,.76.76V159A.76.76,0,0,1,251,159.71Zm-95.59-1.52h94.83v-15H155.43Z" style="fill:#661ff4"/><path d="M252.68,201.32H153a1.66,1.66,0,0,1-1.66-1.66V179.82a1.66,1.66,0,0,1,1.66-1.66h99.67a1.66,1.66,0,0,1,1.66,1.66v19.84A1.66,1.66,0,0,1,252.68,201.32Zm-98-3.32H251V181.48H154.67Z" style="fill:#661ff4"/><path d="M252.68,202.08H153a2.43,2.43,0,0,1-2.42-2.42V179.82A2.42,2.42,0,0,1,153,177.4h99.67a2.42,2.42,0,0,1,2.42,2.42v19.84A2.43,2.43,0,0,1,252.68,202.08ZM153,178.92a.9.9,0,0,0-.9.9v19.84a.9.9,0,0,0,.9.9h99.67a.9.9,0,0,0,.9-.9V179.82a.9.9,0,0,0-.9-.9Zm98,19.84H154.67a.76.76,0,0,1-.76-.76V181.48a.76.76,0,0,1,.76-.76H251a.76.76,0,0,1,.76.76V198A.76.76,0,0,1,251,198.76Zm-95.59-1.52h94.83v-15H155.43Z" style="fill:#661ff4"/></svg>