<svg id="Layer_1" data-name="Layer 1" xmlns="http://www.w3.org/2000/svg" viewBox="0 0 256 256"><path d="M192.66,125.48H64a3.49,3.49,0,0,1,0-7H192.66a3.49,3.49,0,1,1,0,7Z" style="fill:#661ff4"/><path d="M192.66,146.77H64a3.49,3.49,0,1,1,0-7H192.66a3.49,3.49,0,0,1,0,7Z" style="fill:#661ff4"/><path d="M192.66,168.06H64a3.49,3.49,0,0,1,0-7H192.66a3.49,3.49,0,1,1,0,7Z" style="fill:#661ff4"/><path d="M154.27,102.62H64a3.49,3.49,0,0,1-3.49-3.49V72.75A3.49,3.49,0,0,1,64,69.26h90.32a3.5,3.5,0,0,1,3.5,3.49V99.13A3.5,3.5,0,0,1,154.27,102.62Zm-86.83-7h83.34V76.24H67.44Z" style="fill:#661ff4"/><path d="M128,251.35a21.25,21.25,0,1,1,21.25-21.24A21.27,21.27,0,0,1,128,251.35Zm0-35.17a13.93,13.93,0,1,0,13.93,13.93A13.94,13.94,0,0,0,128,216.18Z" style="fill:#661ff4"/><path d="M80.49,246.49a16.39,16.39,0,1,1,16.39-16.38A16.4,16.4,0,0,1,80.49,246.49Zm0-25.45a9.07,9.07,0,1,0,9.07,9.07A9.07,9.07,0,0,0,80.49,221Z" style="fill:#661ff4"/><path d="M175.51,246.49a16.39,16.39,0,1,1,16.38-16.38A16.4,16.4,0,0,1,175.51,246.49Zm0-25.45a9.07,9.07,0,1,0,9.06,9.07A9.08,9.08,0,0,0,175.51,221Z" style="fill:#661ff4"/><path d="M225.87,204.69H30.13A3.66,3.66,0,0,1,26.47,201V5.29a3.66,3.66,0,0,1,3.66-3.66H225.87a3.66,3.66,0,0,1,3.66,3.66V201A3.66,3.66,0,0,1,225.87,204.69ZM33.79,197.37H222.21V9H33.79Z" style="fill:#661ff4"/></svg>