<svg id="Layer_1" data-name="Layer 1" xmlns="http://www.w3.org/2000/svg" viewBox="0 0 256 256"><path d="M240.89,251.44H15.83A11.84,11.84,0,0,1,4,239.61V14.55A11.84,11.84,0,0,1,15.83,2.72H240.89a11.85,11.85,0,0,1,11.83,11.83V239.61A11.85,11.85,0,0,1,240.89,251.44ZM15.83,7.49a7.07,7.07,0,0,0-7.06,7.06V239.61a7.07,7.07,0,0,0,7.06,7.06H240.89a7.07,7.07,0,0,0,7.06-7.06V14.55a7.07,7.07,0,0,0-7.06-7.06Z" style="fill:#661ff4"/><path d="M240.89,252.5H15.83A12.9,12.9,0,0,1,2.94,239.61V14.55A12.9,12.9,0,0,1,15.83,1.66H240.89a12.9,12.9,0,0,1,12.88,12.89V239.61A12.9,12.9,0,0,1,240.89,252.5ZM15.83,3.78A10.79,10.79,0,0,0,5.05,14.55V239.61a10.79,10.79,0,0,0,10.78,10.77H240.89a10.78,10.78,0,0,0,10.77-10.77V14.55A10.78,10.78,0,0,0,240.89,3.78Zm225.06,244H15.83a8.13,8.13,0,0,1-8.12-8.12V14.55a8.13,8.13,0,0,1,8.12-8.12H240.89A8.12,8.12,0,0,1,249,14.55V239.61A8.12,8.12,0,0,1,240.89,247.73ZM15.83,8.55a6,6,0,0,0-6,6V239.61a6,6,0,0,0,6,6H240.89a6,6,0,0,0,6-6V14.55a6,6,0,0,0-6-6Z" style="fill:#661ff4"/><path d="M87.7,96.55H6.38a1.91,1.91,0,0,1-1.91-1.91V56a1.92,1.92,0,0,1,1.91-1.91H87.7A1.92,1.92,0,0,1,89.61,56v38.6A1.91,1.91,0,0,1,87.7,96.55ZM8.29,92.74h77.5V58H8.29Z" style="fill:#661ff4"/><path d="M87.7,97.61H6.38a3,3,0,0,1-3-3V56a3,3,0,0,1,3-3H87.7a3,3,0,0,1,3,3v38.6A3,3,0,0,1,87.7,97.61ZM6.38,55.19a.85.85,0,0,0-.85.85v38.6a.85.85,0,0,0,.85.85H87.7a.85.85,0,0,0,.85-.85V56a.85.85,0,0,0-.85-.85Zm79.41,38.6H8.29a1.05,1.05,0,0,1-1.06-1.05V58a1.06,1.06,0,0,1,1.06-1.06h77.5A1.07,1.07,0,0,1,86.85,58V92.74A1.06,1.06,0,0,1,85.79,93.79ZM9.35,91.68H84.73V59H9.35Z" style="fill:#661ff4"/><path d="M169,96.55H87.7a1.9,1.9,0,0,1-1.91-1.91V56a1.91,1.91,0,0,1,1.91-1.91H169A1.91,1.91,0,0,1,170.92,56v38.6A1.9,1.9,0,0,1,169,96.55Zm-79.4-3.81h77.5V58H89.61Z" style="fill:#661ff4"/><path d="M169,97.61H87.7a3,3,0,0,1-3-3V56a3,3,0,0,1,3-3H169a3,3,0,0,1,3,3v38.6A3,3,0,0,1,169,97.61ZM87.7,55.19a.85.85,0,0,0-.85.85v38.6a.85.85,0,0,0,.85.85H169a.86.86,0,0,0,.86-.85V56a.86.86,0,0,0-.86-.85Zm79.41,38.6H89.61a1.05,1.05,0,0,1-1.06-1.05V58a1.06,1.06,0,0,1,1.06-1.06h77.5a1.06,1.06,0,0,1,1,1.06V92.74A1,1,0,0,1,167.11,93.79ZM90.66,91.68h75.39V59H90.66Z" style="fill:#661ff4"/><path d="M250.33,96.55H169a1.9,1.9,0,0,1-1.9-1.91V56a1.91,1.91,0,0,1,1.9-1.91h81.32A1.92,1.92,0,0,1,252.24,56v38.6A1.91,1.91,0,0,1,250.33,96.55Zm-79.41-3.81h77.5V58h-77.5Z" style="fill:#661ff4"/><path d="M250.33,97.61H169a3,3,0,0,1-3-3V56a3,3,0,0,1,3-3h81.32a3,3,0,0,1,3,3v38.6A3,3,0,0,1,250.33,97.61ZM169,55.19a.86.86,0,0,0-.85.85v38.6a.86.86,0,0,0,.85.85h81.32a.85.85,0,0,0,.85-.85V56a.85.85,0,0,0-.85-.85Zm79.41,38.6h-77.5a1,1,0,0,1-1-1.05V58a1.06,1.06,0,0,1,1-1.06h77.5A1.06,1.06,0,0,1,249.48,58V92.74A1.05,1.05,0,0,1,248.42,93.79ZM172,91.68h75.39V59H172Z" style="fill:#661ff4"/><path d="M87.7,135.15H6.38a1.91,1.91,0,0,1-1.91-1.9V94.64a1.91,1.91,0,0,1,1.91-1.9H87.7a1.91,1.91,0,0,1,1.91,1.9v38.61A1.91,1.91,0,0,1,87.7,135.15ZM8.29,131.34h77.5V96.55H8.29Z" style="fill:#661ff4"/><path d="M87.7,136.21H6.38a3,3,0,0,1-3-3V94.64a3,3,0,0,1,3-3H87.7a3,3,0,0,1,3,3v38.61A3,3,0,0,1,87.7,136.21ZM6.38,93.79a.86.86,0,0,0-.85.85v38.61a.85.85,0,0,0,.85.85H87.7a.85.85,0,0,0,.85-.85V94.64a.86.86,0,0,0-.85-.85ZM85.79,132.4H8.29a1.06,1.06,0,0,1-1.06-1.06V96.55a1.06,1.06,0,0,1,1.06-1.06h77.5a1.07,1.07,0,0,1,1.06,1.06v34.79A1.07,1.07,0,0,1,85.79,132.4ZM9.35,130.28H84.73V97.61H9.35Z" style="fill:#661ff4"/><path d="M169,135.15H87.7a1.9,1.9,0,0,1-1.91-1.9V94.64a1.9,1.9,0,0,1,1.91-1.9H169a1.9,1.9,0,0,1,1.91,1.9v38.61A1.9,1.9,0,0,1,169,135.15Zm-79.4-3.81h77.5V96.55H89.61Z" style="fill:#661ff4"/><path d="M169,136.21H87.7a3,3,0,0,1-3-3V94.64a3,3,0,0,1,3-3H169a3,3,0,0,1,3,3v38.61A3,3,0,0,1,169,136.21ZM87.7,93.79a.86.86,0,0,0-.85.85v38.61a.85.85,0,0,0,.85.85H169a.86.86,0,0,0,.86-.85V94.64a.86.86,0,0,0-.86-.85Zm79.41,38.61H89.61a1.06,1.06,0,0,1-1.06-1.06V96.55a1.06,1.06,0,0,1,1.06-1.06h77.5a1.06,1.06,0,0,1,1,1.06v34.79A1.06,1.06,0,0,1,167.11,132.4Zm-76.45-2.12h75.39V97.61H90.66Z" style="fill:#661ff4"/><path d="M250.33,135.15H169a1.9,1.9,0,0,1-1.9-1.9V94.64a1.9,1.9,0,0,1,1.9-1.9h81.32a1.91,1.91,0,0,1,1.91,1.9v38.61A1.91,1.91,0,0,1,250.33,135.15Zm-79.41-3.81h77.5V96.55h-77.5Z" style="fill:#661ff4"/><path d="M250.33,136.21H169a3,3,0,0,1-3-3V94.64a3,3,0,0,1,3-3h81.32a3,3,0,0,1,3,3v38.61A3,3,0,0,1,250.33,136.21ZM169,93.79a.86.86,0,0,0-.85.85v38.61a.86.86,0,0,0,.85.85h81.32a.85.85,0,0,0,.85-.85V94.64a.86.86,0,0,0-.85-.85Zm79.41,38.61h-77.5a1.06,1.06,0,0,1-1-1.06V96.55a1.06,1.06,0,0,1,1-1.06h77.5a1.06,1.06,0,0,1,1.06,1.06v34.79A1.06,1.06,0,0,1,248.42,132.4ZM172,130.28h75.39V97.61H172Z" style="fill:#661ff4"/><path d="M87.7,173.76H6.38a1.92,1.92,0,0,1-1.91-1.91v-38.6a1.91,1.91,0,0,1,1.91-1.91H87.7a1.91,1.91,0,0,1,1.91,1.91v38.6A1.92,1.92,0,0,1,87.7,173.76ZM8.29,169.94h77.5V135.15H8.29Z" style="fill:#661ff4"/><path d="M87.7,174.81H6.38a3,3,0,0,1-3-3v-38.6a3,3,0,0,1,3-3H87.7a3,3,0,0,1,3,3v38.6A3,3,0,0,1,87.7,174.81ZM6.38,132.4a.85.85,0,0,0-.85.85v38.6a.85.85,0,0,0,.85.85H87.7a.85.85,0,0,0,.85-.85v-38.6a.85.85,0,0,0-.85-.85ZM85.79,171H8.29a1.05,1.05,0,0,1-1.06-1.06V135.15a1.05,1.05,0,0,1,1.06-1.05h77.5a1.06,1.06,0,0,1,1.06,1.05v34.79A1.06,1.06,0,0,1,85.79,171ZM9.35,168.88H84.73V136.21H9.35Z" style="fill:#661ff4"/><path d="M169,173.76H87.7a1.91,1.91,0,0,1-1.91-1.91v-38.6a1.9,1.9,0,0,1,1.91-1.91H169a1.9,1.9,0,0,1,1.91,1.91v38.6A1.91,1.91,0,0,1,169,173.76Zm-79.4-3.82h77.5V135.15H89.61Z" style="fill:#661ff4"/><path d="M169,174.81H87.7a3,3,0,0,1-3-3v-38.6a3,3,0,0,1,3-3H169a3,3,0,0,1,3,3v38.6A3,3,0,0,1,169,174.81ZM87.7,132.4a.85.85,0,0,0-.85.85v38.6a.85.85,0,0,0,.85.85H169a.86.86,0,0,0,.86-.85v-38.6a.86.86,0,0,0-.86-.85ZM167.11,171H89.61a1.05,1.05,0,0,1-1.06-1.06V135.15a1.05,1.05,0,0,1,1.06-1.05h77.5a1,1,0,0,1,1,1.05v34.79A1.05,1.05,0,0,1,167.11,171Zm-76.45-2.12h75.39V136.21H90.66Z" style="fill:#661ff4"/><path d="M250.33,173.76H169a1.91,1.91,0,0,1-1.9-1.91v-38.6a1.9,1.9,0,0,1,1.9-1.91h81.32a1.91,1.91,0,0,1,1.91,1.91v38.6A1.92,1.92,0,0,1,250.33,173.76Zm-79.41-3.82h77.5V135.15h-77.5Z" style="fill:#661ff4"/><path d="M250.33,174.81H169a3,3,0,0,1-3-3v-38.6a3,3,0,0,1,3-3h81.32a3,3,0,0,1,3,3v38.6A3,3,0,0,1,250.33,174.81ZM169,132.4a.86.86,0,0,0-.85.85v38.6a.86.86,0,0,0,.85.85h81.32a.85.85,0,0,0,.85-.85v-38.6a.85.85,0,0,0-.85-.85ZM248.42,171h-77.5a1.05,1.05,0,0,1-1-1.06V135.15a1,1,0,0,1,1-1.05h77.5a1.05,1.05,0,0,1,1.06,1.05v34.79A1.05,1.05,0,0,1,248.42,171ZM172,168.88h75.39V136.21H172Z" style="fill:#661ff4"/><path d="M87.7,212.36H6.38a1.91,1.91,0,0,1-1.91-1.91v-38.6a1.92,1.92,0,0,1,1.91-1.91H87.7a1.92,1.92,0,0,1,1.91,1.91v38.6A1.91,1.91,0,0,1,87.7,212.36ZM8.29,208.54h77.5V173.76H8.29Z" style="fill:#661ff4"/><path d="M87.7,213.42H6.38a3,3,0,0,1-3-3v-38.6a3,3,0,0,1,3-3H87.7a3,3,0,0,1,3,3v38.6A3,3,0,0,1,87.7,213.42ZM6.38,171a.85.85,0,0,0-.85.85v38.6a.85.85,0,0,0,.85.85H87.7a.85.85,0,0,0,.85-.85v-38.6a.85.85,0,0,0-.85-.85Zm79.41,38.6H8.29a1.05,1.05,0,0,1-1.06-1.06V173.76a1.05,1.05,0,0,1,1.06-1.06h77.5a1.06,1.06,0,0,1,1.06,1.06v34.78A1.06,1.06,0,0,1,85.79,209.6ZM9.35,207.49H84.73V174.81H9.35Z" style="fill:#661ff4"/><path d="M169,212.36H87.7a1.9,1.9,0,0,1-1.91-1.91v-38.6a1.91,1.91,0,0,1,1.91-1.91H169a1.91,1.91,0,0,1,1.91,1.91v38.6A1.9,1.9,0,0,1,169,212.36Zm-79.4-3.82h77.5V173.76H89.61Z" style="fill:#661ff4"/><path d="M169,213.42H87.7a3,3,0,0,1-3-3v-38.6a3,3,0,0,1,3-3H169a3,3,0,0,1,3,3v38.6A3,3,0,0,1,169,213.42ZM87.7,171a.85.85,0,0,0-.85.85v38.6a.85.85,0,0,0,.85.85H169a.86.86,0,0,0,.86-.85v-38.6A.86.86,0,0,0,169,171Zm79.41,38.6H89.61a1.05,1.05,0,0,1-1.06-1.06V173.76a1.05,1.05,0,0,1,1.06-1.06h77.5a1.05,1.05,0,0,1,1,1.06v34.78A1.05,1.05,0,0,1,167.11,209.6Zm-76.45-2.11h75.39V174.81H90.66Z" style="fill:#661ff4"/><path d="M250.33,212.36H169a1.9,1.9,0,0,1-1.9-1.91v-38.6a1.91,1.91,0,0,1,1.9-1.91h81.32a1.92,1.92,0,0,1,1.91,1.91v38.6A1.91,1.91,0,0,1,250.33,212.36Zm-79.41-3.82h77.5V173.76h-77.5Z" style="fill:#661ff4"/><path d="M250.33,213.42H169a3,3,0,0,1-3-3v-38.6a3,3,0,0,1,3-3h81.32a3,3,0,0,1,3,3v38.6A3,3,0,0,1,250.33,213.42ZM169,171a.86.86,0,0,0-.85.85v38.6a.86.86,0,0,0,.85.85h81.32a.85.85,0,0,0,.85-.85v-38.6a.85.85,0,0,0-.85-.85Zm79.41,38.6h-77.5a1.05,1.05,0,0,1-1-1.06V173.76a1.05,1.05,0,0,1,1-1.06h77.5a1.05,1.05,0,0,1,1.06,1.06v34.78A1.05,1.05,0,0,1,248.42,209.6ZM172,207.49h75.39V174.81H172Z" style="fill:#661ff4"/><path d="M87.7,251H14.79A10.32,10.32,0,0,1,4.47,240.65v-30.2a1.92,1.92,0,0,1,1.91-1.91H87.7a1.92,1.92,0,0,1,1.91,1.91v38.6A1.91,1.91,0,0,1,87.7,251ZM8.29,212.36v28.29a6.51,6.51,0,0,0,6.5,6.5h71V212.36Z" style="fill:#661ff4"/><path d="M87.7,252H14.78A11.38,11.38,0,0,1,3.42,240.65v-30.2a3,3,0,0,1,3-3H87.7a3,3,0,0,1,3,3v38.6A3,3,0,0,1,87.7,252ZM6.38,209.6a.85.85,0,0,0-.85.85v30.2a9.27,9.27,0,0,0,9.25,9.26H87.7a.86.86,0,0,0,.85-.86v-38.6a.85.85,0,0,0-.85-.85Zm79.41,38.6h-71a7.56,7.56,0,0,1-7.55-7.55V212.36a1.06,1.06,0,0,1,1.06-1.06h77.5a1.07,1.07,0,0,1,1.06,1.06v34.79A1.06,1.06,0,0,1,85.79,248.2ZM9.35,213.42v27.23a5.44,5.44,0,0,0,5.43,5.44h70V213.42Z" style="fill:#661ff4"/><path d="M169,251H87.7a1.9,1.9,0,0,1-1.91-1.91v-38.6a1.91,1.91,0,0,1,1.91-1.91H169a1.91,1.91,0,0,1,1.91,1.91v38.6A1.9,1.9,0,0,1,169,251Zm-79.4-3.81h77.5V212.36H89.61Z" style="fill:#661ff4"/><path d="M169,252H87.7a3,3,0,0,1-3-3v-38.6a3,3,0,0,1,3-3H169a3,3,0,0,1,3,3v38.6A3,3,0,0,1,169,252ZM87.7,209.6a.85.85,0,0,0-.85.85v38.6a.86.86,0,0,0,.85.86H169a.87.87,0,0,0,.86-.86v-38.6a.86.86,0,0,0-.86-.85Zm79.41,38.6H89.61a1.05,1.05,0,0,1-1.06-1V212.36a1.06,1.06,0,0,1,1.06-1.06h77.5a1.06,1.06,0,0,1,1,1.06v34.79A1,1,0,0,1,167.11,248.2Zm-76.45-2.11h75.39V213.42H90.66Z" style="fill:#661ff4"/><path d="M240.83,251H169a1.9,1.9,0,0,1-1.9-1.91v-38.6a1.91,1.91,0,0,1,1.9-1.91h81.32a1.92,1.92,0,0,1,1.91,1.91v29.1A11.42,11.42,0,0,1,240.83,251Zm-69.91-3.81h69.91a7.6,7.6,0,0,0,7.59-7.6V212.36h-77.5Z" style="fill:#661ff4"/><path d="M240.83,252H169a3,3,0,0,1-3-3v-38.6a3,3,0,0,1,3-3h81.32a3,3,0,0,1,3,3v29.1A12.49,12.49,0,0,1,240.83,252ZM169,209.6a.86.86,0,0,0-.85.85v38.6a.86.86,0,0,0,.85.86h71.82a10.37,10.37,0,0,0,10.35-10.36v-29.1a.85.85,0,0,0-.85-.85Zm71.82,38.6H170.92a1,1,0,0,1-1-1V212.36a1.06,1.06,0,0,1,1-1.06h77.5a1.06,1.06,0,0,1,1.06,1.06v27.19A8.66,8.66,0,0,1,240.83,248.2ZM172,246.09h68.85a6.55,6.55,0,0,0,6.54-6.54V213.42H172Z" style="fill:#661ff4"/></svg>