<svg id="Layer_1" data-name="Layer 1" xmlns="http://www.w3.org/2000/svg" viewBox="0 0 256 256"><path d="M107.45,144H9.74a3.39,3.39,0,0,1-3.39-3.39V103.78a3.39,3.39,0,0,1,3.39-3.39h97.7a29.79,29.79,0,0,1,4.43-3.46H9.74a6.85,6.85,0,0,0-6.85,6.85v36.83a6.85,6.85,0,0,0,6.85,6.85H111.88A29.14,29.14,0,0,1,107.45,144Z" style="fill:#661ff4"/><path d="M114,148.07H9.74a7.47,7.47,0,0,1-7.46-7.46V103.78a7.47,7.47,0,0,1,7.46-7.46h104.2l-1.75,1.12a30.32,30.32,0,0,0-4.33,3.39l-.18.17H9.74A2.79,2.79,0,0,0,7,103.78v36.83a2.78,2.78,0,0,0,2.78,2.78h98l.17.17a28.68,28.68,0,0,0,4.35,3.39ZM9.74,97.54a6.25,6.25,0,0,0-6.24,6.24v36.83a6.25,6.25,0,0,0,6.24,6.25H109.92a29.39,29.39,0,0,1-2.71-2.25H9.74a4,4,0,0,1-4-4V103.78a4,4,0,0,1,4-4H107.2a31.87,31.87,0,0,1,2.71-2.24Z" style="fill:#661ff4"/><path d="M107.45,144H9.74a3.39,3.39,0,0,1-3.39-3.39V103.78a3.39,3.39,0,0,1,3.39-3.39h97.7a29.79,29.79,0,0,1,4.43-3.46H9.74a6.85,6.85,0,0,0-6.85,6.85v36.83a6.85,6.85,0,0,0,6.85,6.85H111.88A29.14,29.14,0,0,1,107.45,144Z" style="fill:#661ff4"/><path d="M114,148.07H9.74a7.47,7.47,0,0,1-7.46-7.46V103.78a7.47,7.47,0,0,1,7.46-7.46h104.2l-1.75,1.12a30.32,30.32,0,0,0-4.33,3.39l-.18.17H9.74A2.79,2.79,0,0,0,7,103.78v36.83a2.78,2.78,0,0,0,2.78,2.78h98l.17.17a28.68,28.68,0,0,0,4.35,3.39ZM9.74,97.54a6.25,6.25,0,0,0-6.24,6.24v36.83a6.25,6.25,0,0,0,6.24,6.25H109.92a29.39,29.39,0,0,1-2.71-2.25H9.74a4,4,0,0,1-4-4V103.78a4,4,0,0,1,4-4H107.2a31.87,31.87,0,0,1,2.71-2.24Z" style="fill:#661ff4"/><path d="M136,129.22l7-7-7-7a1.73,1.73,0,1,1,2.45-2.45l8.25,8.25a1.74,1.74,0,0,1,0,2.45l-8.25,8.25a1.73,1.73,0,0,1-2.45-2.45Z" style="fill:#661ff4"/><path d="M137.25,132.78a2.32,2.32,0,0,1-1.65-.68,2.36,2.36,0,0,1,0-3.31h0l6.59-6.6-6.59-6.59a2.34,2.34,0,1,1,3.31-3.31l8.25,8.25a2.35,2.35,0,0,1,0,3.31l-8.25,8.25A2.33,2.33,0,0,1,137.25,132.78Zm-.79-3.13a1.13,1.13,0,0,0,0,1.59,1.15,1.15,0,0,0,1.6,0L146.3,123a1.1,1.1,0,0,0,.32-.79,1.13,1.13,0,0,0-.32-.8l-8.25-8.25a1.13,1.13,0,1,0-1.59,1.6l7.45,7.44Z" style="fill:#661ff4"/><path d="M246.88,98.66H146.55l2,1.73a29.92,29.92,0,0,1,0,43.61c-.64.61-1.31,1.19-2,1.73H246.88a4.49,4.49,0,0,0,4.49-4.49V103.15A4.49,4.49,0,0,0,246.88,98.66Zm2.76,42a3.39,3.39,0,0,1-3.39,3.39H153.33a33.37,33.37,0,0,0,0-43.61h92.92a3.39,3.39,0,0,1,3.39,3.39Z" style="fill:#661ff4;stroke:#661ff4;stroke-miterlimit:10;stroke-width:2px"/><path d="M146.73,121l-8.25-8.25a1.73,1.73,0,1,0-2.45,2.45l7,7-7,7a1.73,1.73,0,1,0,2.45,2.45l8.25-8.25A1.74,1.74,0,0,0,146.73,121Z" style="fill:#661ff4"/><path d="M137.25,132.78a2.32,2.32,0,0,1-1.65-.68,2.36,2.36,0,0,1,0-3.31l6.6-6.6-6.59-6.59a2.34,2.34,0,1,1,3.31-3.31l8.25,8.25a2.35,2.35,0,0,1,0,3.31l-8.25,8.25A2.33,2.33,0,0,1,137.25,132.78Zm0-20a1.13,1.13,0,0,0-.8.33,1.14,1.14,0,0,0,0,1.6l7.45,7.44-7.46,7.46a1.14,1.14,0,0,0,0,1.59,1.15,1.15,0,0,0,1.6,0L146.3,123a1.1,1.1,0,0,0,.32-.79,1.13,1.13,0,0,0-.32-.8h0l-8.25-8.25A1.13,1.13,0,0,0,137.25,112.82Z" style="fill:#661ff4"/><path d="M146.73,121l-8.25-8.25a1.73,1.73,0,1,0-2.45,2.45l7,7-7,7a1.73,1.73,0,1,0,2.45,2.45l8.25-8.25A1.74,1.74,0,0,0,146.73,121Z" style="fill:#661ff4"/><path d="M137.25,132.78a2.32,2.32,0,0,1-1.65-.68,2.36,2.36,0,0,1,0-3.31l6.6-6.6-6.59-6.59a2.34,2.34,0,1,1,3.31-3.31l8.25,8.25a2.35,2.35,0,0,1,0,3.31l-8.25,8.25A2.33,2.33,0,0,1,137.25,132.78Zm0-20a1.13,1.13,0,0,0-.8.33,1.14,1.14,0,0,0,0,1.6l7.45,7.44-7.46,7.46a1.14,1.14,0,0,0,0,1.59,1.15,1.15,0,0,0,1.6,0L146.3,123a1.1,1.1,0,0,0,.32-.79,1.13,1.13,0,0,0-.32-.8h0l-8.25-8.25A1.13,1.13,0,0,0,137.25,112.82Z" style="fill:#661ff4"/><path d="M146.73,121l-8.25-8.25a1.73,1.73,0,1,0-2.45,2.45l7,7-7,7a1.73,1.73,0,1,0,2.45,2.45l8.25-8.25A1.74,1.74,0,0,0,146.73,121Z" style="fill:#661ff4"/><path d="M137.25,132.78a2.32,2.32,0,0,1-1.65-.68,2.36,2.36,0,0,1,0-3.31l6.6-6.6-6.59-6.59a2.34,2.34,0,1,1,3.31-3.31l8.25,8.25a2.35,2.35,0,0,1,0,3.31l-8.25,8.25A2.33,2.33,0,0,1,137.25,132.78Zm0-20a1.13,1.13,0,0,0-.8.33,1.14,1.14,0,0,0,0,1.6l7.45,7.44-7.46,7.46a1.14,1.14,0,0,0,0,1.59,1.15,1.15,0,0,0,1.6,0L146.3,123a1.1,1.1,0,0,0,.32-.79,1.13,1.13,0,0,0-.32-.8h0l-8.25-8.25A1.13,1.13,0,0,0,137.25,112.82Z" style="fill:#661ff4"/><path d="M146.73,121l-8.25-8.25a1.73,1.73,0,1,0-2.45,2.45l7,7-7,7a1.73,1.73,0,1,0,2.45,2.45l8.25-8.25A1.74,1.74,0,0,0,146.73,121Z" style="fill:#661ff4"/><path d="M137.25,132.78a2.32,2.32,0,0,1-1.65-.68,2.36,2.36,0,0,1,0-3.31l6.6-6.6-6.59-6.59a2.34,2.34,0,1,1,3.31-3.31l8.25,8.25a2.35,2.35,0,0,1,0,3.31l-8.25,8.25A2.33,2.33,0,0,1,137.25,132.78Zm0-20a1.13,1.13,0,0,0-.8.33,1.14,1.14,0,0,0,0,1.6l7.45,7.44-7.46,7.46a1.14,1.14,0,0,0,0,1.59,1.15,1.15,0,0,0,1.6,0L146.3,123a1.1,1.1,0,0,0,.32-.79,1.13,1.13,0,0,0-.32-.8h0l-8.25-8.25A1.13,1.13,0,0,0,137.25,112.82Z" style="fill:#661ff4"/><path d="M146.73,121l-8.25-8.25a1.73,1.73,0,1,0-2.45,2.45l7,7-7,7a1.73,1.73,0,1,0,2.45,2.45l8.25-8.25A1.74,1.74,0,0,0,146.73,121Z" style="fill:#661ff4"/><path d="M137.25,132.78a2.32,2.32,0,0,1-1.65-.68,2.36,2.36,0,0,1,0-3.31l6.6-6.6-6.59-6.59a2.34,2.34,0,1,1,3.31-3.31l8.25,8.25a2.35,2.35,0,0,1,0,3.31l-8.25,8.25A2.33,2.33,0,0,1,137.25,132.78Zm0-20a1.13,1.13,0,0,0-.8.33,1.14,1.14,0,0,0,0,1.6l7.45,7.44-7.46,7.46a1.14,1.14,0,0,0,0,1.59,1.15,1.15,0,0,0,1.6,0L146.3,123a1.1,1.1,0,0,0,.32-.79,1.13,1.13,0,0,0-.32-.8h0l-8.25-8.25A1.13,1.13,0,0,0,137.25,112.82Z" style="fill:#661ff4"/><path d="M146.73,121l-8.25-8.25a1.73,1.73,0,1,0-2.45,2.45l7,7-7,7a1.73,1.73,0,1,0,2.45,2.45l8.25-8.25A1.74,1.74,0,0,0,146.73,121Z" style="fill:#661ff4"/><path d="M137.25,132.78a2.32,2.32,0,0,1-1.65-.68,2.36,2.36,0,0,1,0-3.31l6.6-6.6-6.59-6.59a2.34,2.34,0,1,1,3.31-3.31l8.25,8.25a2.35,2.35,0,0,1,0,3.31l-8.25,8.25A2.33,2.33,0,0,1,137.25,132.78Zm0-20a1.13,1.13,0,0,0-.8.33,1.14,1.14,0,0,0,0,1.6l7.45,7.44-7.46,7.46a1.14,1.14,0,0,0,0,1.59,1.15,1.15,0,0,0,1.6,0L146.3,123a1.1,1.1,0,0,0,.32-.79,1.13,1.13,0,0,0-.32-.8h0l-8.25-8.25A1.13,1.13,0,0,0,137.25,112.82Z" style="fill:#661ff4"/><path d="M146.73,121l-8.25-8.25a1.73,1.73,0,1,0-2.45,2.45l7,7-7,7a1.73,1.73,0,1,0,2.45,2.45l8.25-8.25A1.74,1.74,0,0,0,146.73,121Z" style="fill:#661ff4"/><path d="M137.25,132.78a2.32,2.32,0,0,1-1.65-.68,2.36,2.36,0,0,1,0-3.31l6.6-6.6-6.59-6.59a2.34,2.34,0,1,1,3.31-3.31l8.25,8.25a2.35,2.35,0,0,1,0,3.31l-8.25,8.25A2.33,2.33,0,0,1,137.25,132.78Zm0-20a1.13,1.13,0,0,0-.8.33,1.14,1.14,0,0,0,0,1.6l7.45,7.44-7.46,7.46a1.14,1.14,0,0,0,0,1.59,1.15,1.15,0,0,0,1.6,0L146.3,123a1.1,1.1,0,0,0,.32-.79,1.13,1.13,0,0,0-.32-.8h0l-8.25-8.25A1.13,1.13,0,0,0,137.25,112.82Z" style="fill:#661ff4"/><path d="M146.73,121l-8.25-8.25a1.73,1.73,0,1,0-2.45,2.45l7,7-7,7a1.73,1.73,0,1,0,2.45,2.45l8.25-8.25A1.74,1.74,0,0,0,146.73,121Z" style="fill:#661ff4"/><path d="M137.25,132.78a2.32,2.32,0,0,1-1.65-.68,2.36,2.36,0,0,1,0-3.31l6.6-6.6-6.59-6.59a2.34,2.34,0,1,1,3.31-3.31l8.25,8.25a2.35,2.35,0,0,1,0,3.31l-8.25,8.25A2.33,2.33,0,0,1,137.25,132.78Zm0-20a1.13,1.13,0,0,0-.8.33,1.14,1.14,0,0,0,0,1.6l7.45,7.44-7.46,7.46a1.14,1.14,0,0,0,0,1.59,1.15,1.15,0,0,0,1.6,0L146.3,123a1.1,1.1,0,0,0,.32-.79,1.13,1.13,0,0,0-.32-.8h0l-8.25-8.25A1.13,1.13,0,0,0,137.25,112.82Z" style="fill:#661ff4"/><path d="M253.1,103.78v36.83a6.85,6.85,0,0,1-6.85,6.85H144.11a27.6,27.6,0,0,0,2.44-1.73c.69-.54,1.36-1.12,2-1.73h97.7a3.39,3.39,0,0,0,3.39-3.39V103.78a3.39,3.39,0,0,0-3.39-3.39h-97.7l-2-1.73c-.78-.61-1.58-1.19-2.42-1.73H246.25A6.85,6.85,0,0,1,253.1,103.78Z" style="fill:#661ff4"/><path d="M246.25,148.07H142l1.76-1.12a28.64,28.64,0,0,0,2.39-1.7c.68-.54,1.34-1.11,1.95-1.69l.18-.17h97.94a2.77,2.77,0,0,0,2.78-2.78V103.78a2.78,2.78,0,0,0-2.78-2.78H148.33l-2.18-1.88a28.5,28.5,0,0,0-2.35-1.68l-1.74-1.12H246.25a7.47,7.47,0,0,1,7.46,7.46v36.83A7.47,7.47,0,0,1,246.25,148.07Zm-100.18-1.21H246.25a6.25,6.25,0,0,0,6.25-6.25V103.78a6.25,6.25,0,0,0-6.25-6.24H146.08l.85.64,1.85,1.6h97.47a4,4,0,0,1,4,4v36.83a4,4,0,0,1-4,4H148.79c-.59.55-1.21,1.09-1.86,1.6Z" style="fill:#661ff4"/><path d="M98,122.19a29.9,29.9,0,0,1,9.43-21.8h-4.78a33.37,33.37,0,0,0,0,43.61h4.79A29.87,29.87,0,0,1,98,122.19Zm0,0a29.9,29.9,0,0,1,9.43-21.8h-4.78a33.37,33.37,0,0,0,0,43.61h4.79A29.87,29.87,0,0,1,98,122.19Zm0,0a29.9,29.9,0,0,1,9.43-21.8h-4.78a33.37,33.37,0,0,0,0,43.61h4.79A29.87,29.87,0,0,1,98,122.19Zm0,0a29.9,29.9,0,0,1,9.43-21.8h-4.78a33.37,33.37,0,0,0,0,43.61h4.79A29.87,29.87,0,0,1,98,122.19Zm55.32-21.8c-.51-.59-1-1.17-1.6-1.73s-1.21-1.18-1.85-1.73A33.42,33.42,0,0,0,102.66,144a34.15,34.15,0,0,0,3.45,3.46,33.37,33.37,0,0,0,43.77,0c.64-.55,1.26-1.13,1.85-1.73s1.09-1.13,1.6-1.73a33.37,33.37,0,0,0,0-43.61ZM148.55,144c-.64.61-1.31,1.19-2,1.73a27.6,27.6,0,0,1-2.44,1.73,29.87,29.87,0,0,1-32.23,0,29.14,29.14,0,0,1-4.43-3.46,30,30,0,0,1,36.68-47.07c.84.54,1.64,1.12,2.42,1.73s1.37,1.12,2,1.73a29.92,29.92,0,0,1,0,43.61ZM98,122.19a29.9,29.9,0,0,1,9.43-21.8h-4.78a33.37,33.37,0,0,0,0,43.61h4.79A29.87,29.87,0,0,1,98,122.19Zm0,0a29.9,29.9,0,0,1,9.43-21.8h-4.78a33.37,33.37,0,0,0,0,43.61h4.79A29.87,29.87,0,0,1,98,122.19Zm0,0a29.9,29.9,0,0,1,9.43-21.8h-4.78a33.37,33.37,0,0,0,0,43.61h4.79A29.87,29.87,0,0,1,98,122.19Z" style="fill:#661ff4"/><path d="M128,156.25a34,34,0,0,1-22.29-8.33,35.86,35.86,0,0,1-3.33-3.31h0l-.18-.21c-.5-.58-1-1.18-1.44-1.79A34.07,34.07,0,0,1,94,124.44c0-.75-.08-1.5-.08-2.25A34.05,34.05,0,0,1,102.2,100l.11-.12.07-.09a34.69,34.69,0,0,1,3.33-3.31,34,34,0,0,1,44.57,0c.68.58,1.31,1.18,1.88,1.76s1.12,1.16,1.63,1.76a34,34,0,0,1,0,44.41c-.51.6-1.06,1.19-1.63,1.76s-1.2,1.18-1.88,1.76A34,34,0,0,1,128,156.25Zm-24-11.64a31.16,31.16,0,0,0,2.49,2.39,32.74,32.74,0,0,0,43,0c.65-.56,1.26-1.13,1.81-1.69s1.08-1.12,1.57-1.7a32.77,32.77,0,0,0,0-42.82h0c-.49-.58-1-1.16-1.57-1.7s-1.16-1.14-1.81-1.7a32.77,32.77,0,0,0-43,0A33.18,33.18,0,0,0,104,99.78h3.18A30.59,30.59,0,0,1,128,91.6a30.41,30.41,0,0,1,16.45,4.82c.85.54,1.68,1.14,2.48,1.76s1.42,1.18,2,1.77a30.53,30.53,0,0,1,0,44.49c-.64.61-1.33,1.21-2,1.77s-1.67,1.24-2.49,1.77a30.54,30.54,0,0,1-37.23-3.37Zm3.93-1a28.72,28.72,0,0,0,4.26,3.31,29.29,29.29,0,0,0,31.58,0,28.64,28.64,0,0,0,2.39-1.7c.68-.54,1.34-1.11,1.95-1.69h0a29.33,29.33,0,0,0,0-42.73c-.6-.56-1.26-1.13-2-1.69a27.74,27.74,0,0,0-2.37-1.7,29.34,29.34,0,0,0-31.61,0,30.32,30.32,0,0,0-4.33,3.39l-.23.22a29.32,29.32,0,0,0,.23,42.51Zm-5-.25h3a30.23,30.23,0,0,1-8.56-20.61v-.59A30.25,30.25,0,0,1,106,101h-3a32.81,32.81,0,0,0-7.78,20.64v.55A32.8,32.8,0,0,0,102.94,143.39Z" style="fill:#661ff4"/><path d="M118.74,132.18a1.72,1.72,0,0,1-1.22-.51l-8.25-8.25a1.73,1.73,0,0,1,0-2.45l8.25-8.25a1.73,1.73,0,0,1,2.45,0,1.74,1.74,0,0,1,0,2.45l-7,7,7,7a1.74,1.74,0,0,1-1.23,3Z" style="fill:#661ff4"/><path d="M118.74,132.78a2.32,2.32,0,0,1-1.65-.68l-8.25-8.25a2.33,2.33,0,0,1,0-3.31l8.25-8.25a2.34,2.34,0,1,1,3.31,3.31l-6.6,6.6,6.6,6.59a2.34,2.34,0,0,1-1.66,4Zm0-20a1.11,1.11,0,0,0-.79.33l-8.25,8.25a1.09,1.09,0,0,0-.33.8,1.07,1.07,0,0,0,.33.79l8.25,8.25a1.16,1.16,0,0,0,1.59,0,1.14,1.14,0,0,0,0-1.59l-7.46-7.45,7.46-7.46a1.14,1.14,0,0,0,0-1.59A1.13,1.13,0,0,0,118.74,112.82Z" style="fill:#661ff4"/></svg>