<svg id="Layer_1" data-name="Layer 1" xmlns="http://www.w3.org/2000/svg" viewBox="0 0 256 256"><path d="M215.61,211.38H42.8a9.09,9.09,0,0,1-9.08-9.08V29.49A9.09,9.09,0,0,1,42.8,20.4H215.61a9.1,9.1,0,0,1,9.09,9.09V202.3A9.09,9.09,0,0,1,215.61,211.38ZM42.8,24.06a5.43,5.43,0,0,0-5.42,5.43V202.3a5.42,5.42,0,0,0,5.42,5.42H215.61A5.42,5.42,0,0,0,221,202.3V29.49a5.43,5.43,0,0,0-5.42-5.43Z" style="fill:#661ff4"/><path d="M215.61,212.84H42.8A10.55,10.55,0,0,1,32.26,202.3V29.49A10.55,10.55,0,0,1,42.8,19H215.61a10.55,10.55,0,0,1,10.54,10.54V202.3A10.55,10.55,0,0,1,215.61,212.84ZM42.8,21.86a7.64,7.64,0,0,0-7.63,7.63V202.3a7.64,7.64,0,0,0,7.63,7.62H215.61a7.63,7.63,0,0,0,7.63-7.62V29.49a7.64,7.64,0,0,0-7.63-7.63ZM215.61,209.17H42.8a6.88,6.88,0,0,1-6.87-6.87V29.49a6.88,6.88,0,0,1,6.87-6.88H215.61a6.89,6.89,0,0,1,6.88,6.88V202.3A6.88,6.88,0,0,1,215.61,209.17ZM42.8,25.52a4,4,0,0,0-4,4V202.3a4,4,0,0,0,4,4H215.61a4,4,0,0,0,4-4V29.49a4,4,0,0,0-4-4Z" style="fill:#661ff4"/><path d="M164.75,89.09H56.63V58H164.75ZM60.29,85.43h100.8V61.67H60.29Z" style="fill:#661ff4"/><path d="M164.75,90.55H56.63a1.46,1.46,0,0,1-1.46-1.46V58a1.46,1.46,0,0,1,1.46-1.46H164.75A1.46,1.46,0,0,1,166.21,58V89.09A1.46,1.46,0,0,1,164.75,90.55ZM58.08,87.63H163.3V59.46H58.08Zm103-.75H60.29a1.46,1.46,0,0,1-1.46-1.45V61.67a1.47,1.47,0,0,1,1.46-1.46h100.8a1.47,1.47,0,0,1,1.46,1.46V85.43A1.46,1.46,0,0,1,161.09,86.88ZM61.75,84h97.89V63.13H61.75Z" style="fill:#661ff4"/><rect x="56.99" y="114.06" width="138.56" height="3.66" style="fill:#661ff4"/><path d="M195.55,119.18H57a1.46,1.46,0,0,1-1.46-1.46v-3.66A1.46,1.46,0,0,1,57,112.6H195.55a1.47,1.47,0,0,1,1.46,1.46v3.66A1.46,1.46,0,0,1,195.55,119.18ZM58.44,116.27H194.09v-.75H58.44Z" style="fill:#661ff4"/><rect x="56.99" y="137.27" width="108.98" height="3.66" style="fill:#661ff4"/><path d="M166,142.39H57a1.46,1.46,0,0,1-1.46-1.46v-3.66A1.45,1.45,0,0,1,57,135.82H166a1.45,1.45,0,0,1,1.45,1.45v3.66A1.45,1.45,0,0,1,166,142.39ZM58.44,139.48H164.51v-.75H58.44Z" style="fill:#661ff4"/><rect x="56.99" y="160.49" width="79.69" height="3.66" style="fill:#661ff4"/><path d="M136.68,165.6H57a1.45,1.45,0,0,1-1.46-1.45v-3.66A1.46,1.46,0,0,1,57,159h79.69a1.45,1.45,0,0,1,1.45,1.46v3.66A1.45,1.45,0,0,1,136.68,165.6Zm-78.24-2.91h76.78v-.75H58.44Z" style="fill:#661ff4"/><path d="M11.77,193.18l-5.92-.46a18.73,18.73,0,0,0,1.15,10l5.82-1.15a16,16,0,0,1-1.16-4.14c0-.36-.05-.72-.08-1.07a7.79,7.79,0,0,1,0-1.08A13.86,13.86,0,0,1,11.77,193.18Z" style="fill:#661ff4;fill-rule:evenodd"/><path d="M6.1,204.42l-.45-1.12a20.16,20.16,0,0,1-1.24-10.83l.23-1.31,8.94.7-.4,1.66a6.89,6.89,0,0,0-.13,1.27c0,.22,0,.43,0,.64a2.67,2.67,0,0,0,0,.49c0,.15,0,.29,0,.44l0,.34a5.44,5.44,0,0,0,0,.58,14.32,14.32,0,0,0,1,3.73l.76,1.67Zm1-10.14A17.28,17.28,0,0,0,8,201.09l2.91-.58a20,20,0,0,1-.63-2.81c-.05-.31-.06-.58-.08-.84l0-.35a2.93,2.93,0,0,0,0-.36,4.84,4.84,0,0,1,0-1c0-.12,0-.31,0-.5v-.13Z" style="fill:#661ff4"/><path d="M19.93,180.41l-4.79-3.15a34.7,34.7,0,0,0-6.54,7.88l5.64,1.71A30.1,30.1,0,0,1,19.93,180.41Z" style="fill:#661ff4;fill-rule:evenodd"/><path d="M14.88,188.57,6.41,186l.94-1.59a35.92,35.92,0,0,1,6.81-8.21l.83-.76,7.34,4.82-1.44,1.26a28.12,28.12,0,0,0-5.42,6.12Zm-4-4.27,2.77.84a30,30,0,0,1,3.94-4.54l-2.27-1.49A34.33,34.33,0,0,0,10.86,184.3Z" style="fill:#661ff4"/><path d="M43.37,223.53l-1.92,5.14c1.48.59,3,1.08,4.48,1.59l2.25.75,2.26.69,1.6-5.26-2.19-.66-2.17-.73C46.23,224.56,44.78,224.08,43.37,223.53Z" style="fill:#661ff4;fill-rule:evenodd"/><path d="M51.41,233.51l-3.65-1.1-2.88-1c-1.3-.44-2.64-.89-4-1.41l-1.33-.52,2.93-7.88,1.38.54c1.19.47,2.45.9,3.66,1.3l2.75.93,3.55,1.07Zm-8.09-5.69c.83.3,1.67.58,2.49.86l3.67,1.21.75-2.48-.8-.24-2.8-.94c-.79-.26-1.6-.54-2.41-.83Z" style="fill:#661ff4"/><path d="M28.66,216.84l-3.09,4.56,2.29,1.27,2.22,1.14c.71.37,1.44.7,2.17,1s1.44.68,2.18,1l2.21-5C33.88,219.57,31.09,218.25,28.66,216.84Z" style="fill:#661ff4;fill-rule:evenodd"/><path d="M35.18,227.75l-1.33-.57c-.49-.21-1-.43-1.46-.66l-.75-.35c-.75-.34-1.5-.69-2.23-1.07L27.19,224l-3.72-2.07,4.74-7,1.18.68c2.57,1.49,5.55,2.87,7.85,3.91l1.32.6Zm-7.52-6.85.9.5,2.18,1.11c.71.37,1.41.69,2.11,1l.77.36.07,0,1-2.36c-1.75-.81-3.73-1.76-5.62-2.79Z" style="fill:#661ff4"/><path d="M16.53,207.45l-5.33,2.37a42.29,42.29,0,0,0,7.5,7.07l4.24-3.71A37.92,37.92,0,0,1,16.53,207.45Z" style="fill:#661ff4;fill-rule:evenodd"/><path d="M18.77,218.76l-.95-.71a43.8,43.8,0,0,1-7.75-7.31l-1.2-1.47,8.05-3.59.71.81A36.12,36.12,0,0,0,23.8,212l1.47,1.08Zm-5.19-8.4A42.75,42.75,0,0,0,18.64,215l2-1.74a39.83,39.83,0,0,1-4.47-4.06Z" style="fill:#661ff4"/><path d="M91.56,234.41l-.65,5.45c1.55.18,3.11.38,4.66.53l4.67.44.48-5.47-4.58-.44C94.61,234.78,93.08,234.58,91.56,234.41Z" style="fill:#661ff4;fill-rule:evenodd"/><path d="M101.57,242.42l-6.13-.58c-1-.1-2-.22-3.06-.34l-1.63-.19-1.46-.16,1-8.35,1.44.16,1.63.19,2.92.33,6,.57Zm-9-3.83.19,0c1,.12,2,.24,3,.33l3.21.3.23-2.57-3.15-.3c-1-.09-2-.21-3-.33l-.18,0Z" style="fill:#661ff4"/><path d="M75.22,232l-1,5.41c1.54.3,3.09.54,4.63.79s3.09.52,4.65.72l.79-5.43c-1.53-.2-3-.47-4.55-.71S76.73,232.27,75.22,232Z" style="fill:#661ff4;fill-rule:evenodd"/><path d="M84.75,240.52l-1.42-.18c-1.19-.16-2.38-.35-3.56-.55l-2.22-.36c-1.2-.19-2.4-.39-3.6-.63l-1.4-.27,1.5-8.27,1.45.28c1.13.23,2.27.41,3.4.6l2.21.36c1.13.18,2.25.37,3.38.51l1.47.19Zm-8.82-4.31,2.08.35,2.23.36,2,.33.38-2.56-2-.32-2.2-.36-2-.34Z" style="fill:#661ff4"/><path d="M59.16,228.46l-1.38,5.32c3,.76,6.11,1.53,9.18,2.16l1.15-5.38C65.11,230,62.13,229.2,59.16,228.46Z" style="fill:#661ff4;fill-rule:evenodd"/><path d="M68.08,237.65l-1.41-.29c-3.18-.65-6.4-1.46-9.24-2.17L56,234.83l2.12-8.13,1.4.35c2.89.72,5.89,1.48,8.88,2.09l1.44.29Zm-8.52-4.93c2,.5,4.14,1,6.28,1.49l.54-2.52c-2.08-.46-4.15-1-6.17-1.47Z" style="fill:#661ff4"/><path d="M141.15,236.36l.2,5.5c1.56,0,3.12-.12,4.68-.21l4.68-.25-.35-5.48-4.6.25C144.22,236.25,142.69,236.33,141.15,236.36Z" style="fill:#661ff4;fill-rule:evenodd"/><path d="M139.94,243.34l-.3-8.4,1.48,0c1.55,0,3.1-.12,4.56-.2l6-.32.54,8.38-6.15.34c-1.5.08-3.1.16-4.73.2Zm2.72-5.57.09,2.59,3.2-.16,3.22-.17-.17-2.58-3.16.17C144.82,237.68,143.75,237.73,142.66,237.77Z" style="fill:#661ff4"/><polygon points="124.61 236.54 124.54 242.04 129.22 242.08 133.91 242.04 133.83 236.54 129.22 236.59 124.61 236.54" style="fill:#661ff4;fill-rule:evenodd"/><path d="M129.24,243.54l-6.18-.06.11-8.41,6.07.07,6-.07.11,8.41ZM126,240.6l3.23,0,3.19,0,0-2.59-3.16,0-3.19,0Z" style="fill:#661ff4"/><path d="M108.14,235.92l-.35,5.49,4.68.25c1.56.09,3.12.16,4.68.2l.2-5.49c-1.54,0-3.08-.11-4.61-.2Z" style="fill:#661ff4;fill-rule:evenodd"/><path d="M118.56,243.35l-1.44,0c-1.73,0-3.44-.13-4.73-.2l-6.15-.33.54-8.39,6,.33c1.26.07,2.91.15,4.56.19l1.47,0ZM109.33,240l3.22.18c.91,0,2,.11,3.2.15l.09-2.58-3.18-.15-3.16-.17Z" style="fill:#661ff4"/><path d="M190.38,230.54l1.16,5.38c1.53-.33,3.07-.65,4.59-1s3.07-.71,4.59-1.13l-1.39-5.31c-1.48.4-3,.73-4.46,1.1S191.88,230.23,190.38,230.54Z" style="fill:#661ff4;fill-rule:evenodd"/><path d="M190.42,237.64l-1.77-8.22,1.78-.37c1.34-.29,2.74-.58,4.08-.92l1.61-.39c.95-.23,1.89-.45,2.83-.71l1.42-.39,2.12,8.14-1.39.38c-1,.27-2,.51-3,.75l-1.6.38c-1.44.37-2.9.68-4.32,1Zm1.69-6,.54,2.53c1-.22,2.1-.46,3.13-.72l1.63-.39,1.53-.37-.65-2.5-1.49.36-1.58.38C194.19,231.21,193.14,231.44,192.11,231.66Z" style="fill:#661ff4"/><path d="M174.14,233.45l.79,5.44c1.55-.2,3.09-.48,4.64-.73s3.1-.49,4.64-.79l-1-5.41c-1.5.3-3,.53-4.53.78S175.66,233.25,174.14,233.45Z" style="fill:#661ff4;fill-rule:evenodd"/><path d="M173.69,240.51l-1.21-8.31L174,232c1.11-.15,2.21-.33,3.31-.51l2.19-.36c1.17-.19,2.33-.37,3.49-.6l1.45-.29,1.51,8.27-1.41.28c-1.23.24-2.47.44-3.68.64l-2.21.36c-1.16.19-2.32.38-3.49.53Zm2.1-5.82.37,2.55,2-.31,2.22-.37,2.17-.36-.47-2.54-2.13.36-2.19.35Z" style="fill:#661ff4"/><path d="M157.77,235.35l.48,5.47,4.68-.44c1.55-.15,3.11-.35,4.66-.53l-.65-5.45c-1.53.17-3.05.37-4.58.52Z" style="fill:#661ff4;fill-rule:evenodd"/><path d="M156.93,242.41,156.2,234l6-.57c1-.1,1.95-.21,2.92-.33l1.64-.19,1.44-.16,1,8.34-1.46.17-1.63.19c-1,.12-2,.24-3.05.34Zm2.42-5.75.23,2.58,3.21-.31c1-.1,2-.21,3-.33l.19,0-.3-2.56-.18,0c-1,.12-2,.24-3,.33Z" style="fill:#661ff4"/><path d="M235.53,213.13l4.26,3.7a42.28,42.28,0,0,0,7.48-7.09l-5.34-2.36A38,38,0,0,1,235.53,213.13Z" style="fill:#661ff4;fill-rule:evenodd"/><path d="M239.73,218.7,233.2,213l1.48-1.08a36.35,36.35,0,0,0,6.15-5.52l.7-.82,8.06,3.57-1.19,1.48a43.72,43.72,0,0,1-7.73,7.33Zm-1.89-5.49,2,1.73a41.1,41.1,0,0,0,5-4.66l-2.58-1.14A38.12,38.12,0,0,1,237.84,213.21Z" style="fill:#661ff4"/><path d="M221.8,220.8l2.22,5c.73-.32,1.45-.67,2.18-1s1.45-.67,2.16-1l1.08-.55,1.15-.59,2.28-1.27-3.09-4.56A88.56,88.56,0,0,1,221.8,220.8Z" style="fill:#661ff4;fill-rule:evenodd"/><path d="M223.27,227.74l-3.39-7.67,1.32-.59c2.29-1,5.25-2.42,7.85-3.92l1.17-.68,4.75,7-3.67,2-.87.45-1.41.72c-.72.37-1.47.72-2.22,1.06l-.75.35c-.48.23-1,.46-1.46.67Zm.44-6.21,1,2.37.07,0,.77-.35c.7-.33,1.41-.65,2.1-1l1.44-.73.76-.4.89-.49-1.45-2.14C227.43,219.78,225.45,220.73,223.71,221.53Z" style="fill:#661ff4"/><path d="M206.45,226.42l1.6,5.25,2.27-.69,2.25-.75c1.5-.51,3-1,4.48-1.59l-1.92-5.15c-1.42.56-2.87,1-4.32,1.53l-2.17.73Z" style="fill:#661ff4;fill-rule:evenodd"/><path d="M207.08,233.49l-2.45-8,3.59-1.09,2.35-.79c1.33-.45,2.71-.91,4-1.43l1.38-.54,2.94,7.87-1.33.53c-1.46.57-2.94,1.07-4.38,1.55l-2.42.81Zm1.19-6.1.75,2.47.88-.27,2.37-.8c1-.32,1.94-.65,2.91-1l-.91-2.42c-.93.34-1.86.65-2.78,1Z" style="fill:#661ff4"/><path d="M233,175.29l3.75-4.11c-.71-.5-1.47-.93-2.21-1.4s-1.49-.9-2.26-1.32-1.52-.87-2.29-1.25l-5.51-3v6.31l2.92,1.54c.65.32,1.26.69,1.9,1s1.26.7,1.86,1.08S232.36,174.89,233,175.29Z" style="fill:#661ff4;fill-rule:evenodd"/><path d="M233.19,177.2l-1-.7c-.37-.25-.74-.47-1.12-.7l-.67-.4c-.64-.4-1.3-.77-1.8-1l-.69-.38c-.38-.21-.76-.43-1.15-.62l-3.74-2v-9.65l7.67,4.19c.47.24,1,.53,1.5.82l.79.44c1,.52,1.69.94,2.35,1.37l.76.47c.5.31,1,.61,1.49.95l1.37,1Zm-7.3-7.57,2.15,1.14c.4.19.83.43,1.26.67l.65.36c.54.29,1.24.69,2,1.13l.63.38.17.1,1.77-1.94-.75-.46c-.61-.39-1.28-.78-2.17-1.27l-.83-.46c-.47-.26-.94-.53-1.42-.77l-3.41-1.86Z" style="fill:#661ff4"/><path d="M244.14,186.82l5.64-1.72a34.43,34.43,0,0,0-6.55-7.86l-4.78,3.15A30,30,0,0,1,244.14,186.82Z" style="fill:#661ff4;fill-rule:evenodd"/><path d="M243.51,188.54l-.6-.94a28.31,28.31,0,0,0-5.42-6.11l-1.44-1.26,7.33-4.83.83.76a36.15,36.15,0,0,1,6.82,8.2L252,186Zm-2.7-8a29.48,29.48,0,0,1,3.94,4.53l2.77-.84a34.33,34.33,0,0,0-4.44-5.19Z" style="fill:#661ff4"/><path d="M245.63,201.53l5.81,1.14a21,21,0,0,0,1.25-4.95l.08-1.28a7.82,7.82,0,0,0,0-1.28,16.56,16.56,0,0,0-.25-2.54l-5.91.47a15.43,15.43,0,0,1,.13,4.29A17,17,0,0,1,245.63,201.53Z" style="fill:#661ff4;fill-rule:evenodd"/><path d="M252.33,204.32l-8.78-1.71.75-1.68a15.21,15.21,0,0,0,1-3.72,13.84,13.84,0,0,0-.12-3.83l-.33-1.61,8.83-.71.27,1.25a16,16,0,0,1,.25,2.31l0,.45a8,8,0,0,1,0,1.2l-.11,1.66a22.36,22.36,0,0,1-1.35,5.29Zm-4.75-3.89,2.92.57a22.7,22.7,0,0,0,.74-3.43l.09-1.49a5,5,0,0,0,0-.76l0-.54,0-.6-3,.24a21.79,21.79,0,0,1-.06,3.08v.12A22.94,22.94,0,0,1,247.58,200.43Z" style="fill:#661ff4"/><polygon points="20.21 191.16 16.55 190.96 17.23 178.93 4.85 180.76 4.31 177.14 21.14 174.65 20.21 191.16" style="fill:#661ff4"/><path d="M21.58,192.7,15,192.33l.66-11.7L3.62,182.42l-1-6.51,20-3Zm-3.49-3.11.75,0,.75-13.28L6,178.37l.11.74,12.72-1.88Z" style="fill:#661ff4"/></svg>