<svg id="Layer_1" data-name="Layer 1" xmlns="http://www.w3.org/2000/svg" viewBox="0 0 256 256"><path d="M237.57,201.22H215.39a1.54,1.54,0,0,1,0-3.08H236V177.5a1.54,1.54,0,0,1,3.08,0v22.18A1.54,1.54,0,0,1,237.57,201.22Z" style="fill:#661ff4"/><path d="M237.57,201.88H215.39a2.2,2.2,0,0,1,0-4.4h20v-20a2.2,2.2,0,0,1,4.4,0v22.18A2.21,2.21,0,0,1,237.57,201.88Zm-22.18-3.08a.88.88,0,0,0,0,1.75h22.18a.87.87,0,0,0,.87-.87V177.5a.88.88,0,0,0-1.75,0v20.64a.65.65,0,0,1-.66.66Z" style="fill:#661ff4"/><path d="M252.47,216.12H212.62a1.54,1.54,0,1,1,0-3.07h38.32V174.73a1.54,1.54,0,1,1,3.07,0v39.85A1.54,1.54,0,0,1,252.47,216.12Z" style="fill:#661ff4"/><path d="M252.47,216.78H212.62a2.2,2.2,0,0,1,0-4.4h37.65V174.73a2.2,2.2,0,0,1,4.4,0v39.85A2.21,2.21,0,0,1,252.47,216.78Zm-39.85-3.07a.88.88,0,1,0,0,1.75h39.85a.89.89,0,0,0,.88-.88V174.73a.88.88,0,1,0-1.75,0v38.32a.67.67,0,0,1-.66.66Z" style="fill:#661ff4"/><path d="M17.8,92.19a1.54,1.54,0,0,1-1.54-1.53V68.48a1.54,1.54,0,0,1,1.54-1.54H40A1.54,1.54,0,0,1,40,70H19.33V90.66A1.53,1.53,0,0,1,17.8,92.19Z" style="fill:#661ff4"/><path d="M17.8,92.85a2.2,2.2,0,0,1-2.2-2.19V68.48a2.21,2.21,0,0,1,2.2-2.2H40a2.2,2.2,0,0,1,0,4.4H20v20A2.19,2.19,0,0,1,17.8,92.85Zm0-25.25a.88.88,0,0,0-.88.88V90.66a.88.88,0,0,0,1.75,0V70a.66.66,0,0,1,.66-.66H40a.88.88,0,1,0,0-1.76Z" style="fill:#661ff4"/><path d="M2.89,95a1.53,1.53,0,0,1-1.53-1.54V53.58A1.53,1.53,0,0,1,2.89,52H42.75a1.54,1.54,0,1,1,0,3.07H4.43V93.43A1.54,1.54,0,0,1,2.89,95Z" style="fill:#661ff4"/><path d="M2.89,95.63A2.19,2.19,0,0,1,.7,93.43V53.58a2.19,2.19,0,0,1,2.19-2.2H42.75a2.2,2.2,0,1,1,0,4.39H5.09V93.43A2.19,2.19,0,0,1,2.89,95.63Zm0-42.93a.87.87,0,0,0-.87.88V93.43a.88.88,0,1,0,1.75,0V55.11a.66.66,0,0,1,.66-.66H42.75a.88.88,0,1,0,0-1.75Z" style="fill:#661ff4"/><path d="M147.68,81H31.55A1.53,1.53,0,0,0,30,82.53V198.65a1.53,1.53,0,0,0,1.53,1.55H147.68a1.54,1.54,0,0,0,1.53-1.55V183.21h-3.07v13.91h-113v-113h113V98h3.07V82.53A1.54,1.54,0,0,0,147.68,81Z" style="fill:#661ff4"/><path d="M147.68,200.86H31.55a2.21,2.21,0,0,1-2.2-2.2V82.53a2.21,2.21,0,0,1,2.2-2.2H147.68a2.2,2.2,0,0,1,2.19,2.2V98a.66.66,0,0,1-.66.66h-3.07a.67.67,0,0,1-.66-.66V84.73H33.75V196.46H145.48V183.21a.67.67,0,0,1,.66-.66h3.07a.66.66,0,0,1,.66.66v15.45A2.2,2.2,0,0,1,147.68,200.86ZM31.55,81.65a.88.88,0,0,0-.87.88V198.66a.87.87,0,0,0,.87.87H147.68a.87.87,0,0,0,.87-.87V183.87H146.8v13.25a.65.65,0,0,1-.66.66h-113a.66.66,0,0,1-.66-.66v-113a.66.66,0,0,1,.66-.66h113a.65.65,0,0,1,.66.66V97.32h1.75V82.53a.88.88,0,0,0-.87-.88Z" style="fill:#661ff4"/><path d="M221.81,94.9H133.5A1.54,1.54,0,0,0,132,96.44v88.31a1.54,1.54,0,0,0,1.54,1.53h88.31a1.54,1.54,0,0,0,1.53-1.53V96.44A1.54,1.54,0,0,0,221.81,94.9Zm-1.55,88.31H135V98h85.22Z" style="fill:#661ff4;stroke:#661ff4;stroke-linecap:round;stroke-linejoin:round;stroke-width:2px"/><path d="M122,160.31l-15-40.65a1.53,1.53,0,0,0-1.2-1,1.49,1.49,0,0,0-1.44.57L85.12,143.67l-10.3-13.15a1.55,1.55,0,0,0-2.46.06L51.22,159.94a1.54,1.54,0,0,0,1.24,2.44H120.6a1.54,1.54,0,0,0,1.44-2.07Zm-66.57-1L73.66,134l10.25,13.08a1.55,1.55,0,0,0,2.42,0l18.74-23.81,13.32,36Z" style="fill:#661ff4;stroke:#661ff4;stroke-linecap:round;stroke-linejoin:round;stroke-width:2px"/><path d="M201.3,153.24l-9.8-26.5a1.53,1.53,0,0,0-2.64-.43l-12.13,15.4-6.29-8a1.53,1.53,0,0,0-1.25-.59,1.57,1.57,0,0,0-1.22.64l-13.78,19.15a1.54,1.54,0,0,0,1.24,2.44h44.44a1.54,1.54,0,0,0,1.43-2.07Zm-42.86-1,10.84-15,6.24,8a1.55,1.55,0,0,0,1.21.59,1.58,1.58,0,0,0,1.21-.58l11.63-14.78,8.09,21.86Z" style="fill:#661ff4;stroke:#661ff4;stroke-linecap:round;stroke-linejoin:round;stroke-width:2px"/></svg>