<svg id="Layer_1" data-name="Layer 1" xmlns="http://www.w3.org/2000/svg" viewBox="0 0 256 256"><path d="M242.4,2.37H13.71a3,3,0,0,0-3,3V234.09a3,3,0,0,0,3,3H118.92l3.79-6.05h-106V8.42H239.37V231.06h-106l3.81,6.05H242.4a3,3,0,0,0,3-3V5.4A3,3,0,0,0,242.4,2.37ZM126.63,237.09l0,0h2.94l0,0A3,3,0,0,0,126.63,237.09Z" style="fill:#661ff4"/><path d="M242.4,238.27H137.2a1.18,1.18,0,0,1-1-.54l-3.81-6a1.18,1.18,0,0,1,0-1.18,1.16,1.16,0,0,1,1-.59H238.22V9.58H17.89V229.91H122.71a1.15,1.15,0,0,1,1,1.77l-3.8,6a1.15,1.15,0,0,1-1,.55H13.71a4.18,4.18,0,0,1-4.18-4.18V5.4a4.18,4.18,0,0,1,4.18-4.18H242.4a4.18,4.18,0,0,1,4.18,4.18V234.09A4.19,4.19,0,0,1,242.4,238.27ZM137.84,236H242.4a1.87,1.87,0,0,0,1.87-1.87V5.4a1.87,1.87,0,0,0-1.87-1.87H13.71A1.87,1.87,0,0,0,11.84,5.4V234.09A1.87,1.87,0,0,0,13.71,236H118.28l2.35-3.74H16.73a1.16,1.16,0,0,1-1.15-1.16V8.42a1.15,1.15,0,0,1,1.15-1.15H239.37a1.15,1.15,0,0,1,1.16,1.15V231.06a1.16,1.16,0,0,1-1.16,1.16H135.48Zm-8.31,2.31h-3a1.16,1.16,0,0,1-.51-2.19l.51.92h0l-.51-.93a4.15,4.15,0,0,1,4,0,1.19,1.19,0,0,1,.59,1.31A1.14,1.14,0,0,1,129.53,238.27Z" style="fill:#661ff4"/><rect x="37.21" y="145.35" width="154.57" height="6.05" style="fill:#661ff4"/><path d="M191.78,152.56H37.21a1.16,1.16,0,0,1-1.16-1.16v-6.05a1.16,1.16,0,0,1,1.16-1.15H191.78a1.16,1.16,0,0,1,1.15,1.15v6.05A1.16,1.16,0,0,1,191.78,152.56ZM38.36,150.25H190.62v-3.74H38.36Z" style="fill:#661ff4"/><rect x="37.21" y="168.11" width="154.57" height="6.05" style="fill:#661ff4"/><path d="M191.78,175.32H37.21a1.16,1.16,0,0,1-1.16-1.15v-6.06A1.16,1.16,0,0,1,37.21,167H191.78a1.16,1.16,0,0,1,1.15,1.15v6.06A1.16,1.16,0,0,1,191.78,175.32ZM38.36,173H190.62v-3.74H38.36Z" style="fill:#661ff4"/><rect x="37.21" y="190.78" width="154.57" height="6.05" style="fill:#661ff4"/><path d="M191.78,198H37.21a1.16,1.16,0,0,1-1.16-1.15v-6.06a1.16,1.16,0,0,1,1.16-1.15H191.78a1.16,1.16,0,0,1,1.15,1.15v6.06A1.16,1.16,0,0,1,191.78,198ZM38.36,195.68H190.62v-3.74H38.36Z" style="fill:#661ff4"/><path d="M98.87,115.94H40.68a3,3,0,0,1-3-3v-17a3,3,0,0,1,3-3H98.87a3,3,0,0,1,3,3v17A3,3,0,0,1,98.87,115.94Zm-55.16-6H95.84V99H43.71Z" style="fill:#661ff4"/><path d="M98.87,117.1H40.68a4.19,4.19,0,0,1-4.18-4.18v-17a4.19,4.19,0,0,1,4.18-4.18H98.87a4.19,4.19,0,0,1,4.18,4.18v17A4.19,4.19,0,0,1,98.87,117.1Zm-58.19-23a1.87,1.87,0,0,0-1.87,1.87v17a1.87,1.87,0,0,0,1.87,1.87H98.87a1.87,1.87,0,0,0,1.87-1.87v-17a1.87,1.87,0,0,0-1.87-1.87Zm55.16,17H43.71a1.16,1.16,0,0,1-1.16-1.16V99a1.16,1.16,0,0,1,1.16-1.16H95.84A1.16,1.16,0,0,1,97,99v10.94A1.16,1.16,0,0,1,95.84,111.05Zm-51-2.31H94.69V100.1H44.86Z" style="fill:#661ff4"/><path d="M152.23,249.67l-7.88-12.56-3.81-6.05-9.92-15.79a3,3,0,0,0-5.12,0l-9.93,15.79-3.8,6.05-7.89,12.56a3,3,0,0,0,4,4.28l20.2-10.77L148.25,254a2.88,2.88,0,0,0,1.42.36,3,3,0,0,0,2.56-4.64Zm-22.71-12.56,0,0a3,3,0,0,0-2.85,0l0,0-11.53,6.15,3.87-6.15,3.79-6.05,5.35-8.49,5.33,8.49,3.81,6.05,3.86,6.14Z" style="fill:#661ff4;stroke:#661ff4;stroke-linecap:round;stroke-linejoin:round;stroke-width:2px"/></svg>