<svg id="Layer_1" data-name="Layer 1" xmlns="http://www.w3.org/2000/svg" viewBox="0 0 256 256"><path d="M251.59,226.78H5.15A1.73,1.73,0,0,1,3.42,225V44.83a1.73,1.73,0,0,1,1.73-1.74H251.59a1.74,1.74,0,0,1,1.74,1.74V225A1.74,1.74,0,0,1,251.59,226.78ZM6.89,223.3h243V46.57H6.89Z" style="fill:#661ff4"/><path d="M251.59,227.54H5.15A2.5,2.5,0,0,1,2.66,225V44.83a2.5,2.5,0,0,1,2.49-2.49H251.59a2.5,2.5,0,0,1,2.5,2.49V225A2.5,2.5,0,0,1,251.59,227.54ZM5.15,43.85a1,1,0,0,0-1,1V225a1,1,0,0,0,1,1H251.59a1,1,0,0,0,1-1V44.83a1,1,0,0,0-1-1Zm244.7,180.21H6.89a.76.76,0,0,1-.75-.76V46.57a.76.76,0,0,1,.75-.76h243a.76.76,0,0,1,.76.76V223.3A.76.76,0,0,1,249.85,224.06ZM7.65,222.54H249.1V47.33H7.65Z" style="fill:#661ff4"/><path d="M128.37,198.48A63.5,63.5,0,1,1,160.16,190,63.53,63.53,0,0,1,128.37,198.48Zm0-123.61a60,60,0,1,0,30,8A60,60,0,0,0,128.37,74.87Z" style="fill:#661ff4"/><path d="M128.37,199.23a64.26,64.26,0,1,1,32.17-8.59A64.42,64.42,0,0,1,128.37,199.23Zm0-127.08a62.76,62.76,0,1,0,31.41,8.39A62.68,62.68,0,0,0,128.37,72.15Zm0,123.61a60.79,60.79,0,1,1,30.43-8.13A60.79,60.79,0,0,1,128.37,195.76Zm0-120.13A59.27,59.27,0,1,0,158,83.55,59.39,59.39,0,0,0,128.37,75.63Z" style="fill:#661ff4"/><path d="M157.93,154.3H98.82a1.73,1.73,0,0,1-1.41-2.75l18.34-25.48a1.75,1.75,0,0,1,1.38-.72,1.64,1.64,0,0,1,1.4.67l8.62,11,16.37-20.78a1.74,1.74,0,0,1,3,.47L159.56,152a1.72,1.72,0,0,1-.21,1.6A1.71,1.71,0,0,1,157.93,154.3Zm-55.71-3.47h53.21l-11.1-30L128.52,140.9a1.75,1.75,0,0,1-1.37.67h0a1.75,1.75,0,0,1-1.37-.67L117.22,130Z" style="fill:#661ff4"/><path d="M157.93,155.06H98.82a2.5,2.5,0,0,1-2-3.95l18.35-25.48a2.52,2.52,0,0,1,2-1,2.44,2.44,0,0,1,2,1l8,10.24,15.76-20a2.49,2.49,0,0,1,4.3.68l13.05,35.26a2.49,2.49,0,0,1-2.34,3.36Zm-40.7-29h0a1,1,0,0,0-.81.41L98,152a1,1,0,0,0-.07,1,1,1,0,0,0,.87.54h59.11a1,1,0,0,0,.92-1.32l-13-35.27a1,1,0,0,0-1.7-.26l-16.36,20.78a.77.77,0,0,1-.6.29h0a.75.75,0,0,1-.59-.29l-8.62-11A.93.93,0,0,0,117.23,126.1Zm38.2,25.48H102.22a.76.76,0,0,1-.68-.41.77.77,0,0,1,.06-.79l15-20.84a.75.75,0,0,1,.6-.31.73.73,0,0,1,.61.29l8.56,10.91a1,1,0,0,0,1.54,0l15.82-20.09a.76.76,0,0,1,.71-.28.78.78,0,0,1,.59.49l11.1,30a.79.79,0,0,1-.09.7A.75.75,0,0,1,155.43,151.58Zm-51.74-1.51h50.65l-10.25-27.72-15,19a2.45,2.45,0,0,1-2,.95,2.48,2.48,0,0,1-2-.95l-7.94-10.13Z" style="fill:#661ff4"/></svg>