<svg id="Layer_1" data-name="Layer 1" xmlns="http://www.w3.org/2000/svg" viewBox="0 0 256 256"><path d="M175.48,196.11H144.74a1.59,1.59,0,0,1-1.58-1.59v-133a1.58,1.58,0,0,1,1.58-1.58h30.74a1.58,1.58,0,0,1,1.58,1.58v133A1.59,1.59,0,0,1,175.48,196.11Zm-29.15-3.17h27.56V63.1H146.33Z" style="fill:#661ff4"/><path d="M175.48,196.86H144.74a2.34,2.34,0,0,1-2.33-2.34v-133a2.34,2.34,0,0,1,2.33-2.34h30.74a2.34,2.34,0,0,1,2.33,2.34v133A2.34,2.34,0,0,1,175.48,196.86ZM144.74,60.69a.83.83,0,0,0-.83.83v133a.84.84,0,0,0,.83.84h30.74a.84.84,0,0,0,.83-.84v-133a.83.83,0,0,0-.83-.83Zm29.15,133H146.33a.75.75,0,0,1-.75-.75V63.1a.75.75,0,0,1,.75-.75h27.56a.75.75,0,0,1,.75.75V192.94A.75.75,0,0,1,173.89,193.69Zm-26.81-1.5h26.06V63.86H147.08Z" style="fill:#661ff4"/><path d="M213.8,196.11H183.07a1.59,1.59,0,0,1-1.58-1.59v-133a1.58,1.58,0,0,1,1.58-1.58H213.8a1.58,1.58,0,0,1,1.59,1.58v133A1.59,1.59,0,0,1,213.8,196.11Zm-29.14-3.17h27.56V63.1H184.66Z" style="fill:#661ff4"/><path d="M213.8,196.86H183.07a2.33,2.33,0,0,1-2.33-2.34v-133a2.33,2.33,0,0,1,2.33-2.34H213.8a2.34,2.34,0,0,1,2.34,2.34v133A2.34,2.34,0,0,1,213.8,196.86ZM183.07,60.69a.83.83,0,0,0-.83.83v133a.84.84,0,0,0,.83.84H213.8a.85.85,0,0,0,.84-.84v-133a.84.84,0,0,0-.84-.83Zm29.15,133H184.66a.75.75,0,0,1-.75-.75V63.1a.75.75,0,0,1,.75-.75h27.56a.75.75,0,0,1,.75.75V192.94A.75.75,0,0,1,212.22,193.69Zm-26.81-1.5h26.06V63.86H185.41Z" style="fill:#661ff4"/><path d="M252.13,196.06H221.4a1.58,1.58,0,0,1-1.58-1.58v-133a1.59,1.59,0,0,1,1.58-1.59h30.73a1.59,1.59,0,0,1,1.59,1.59v133A1.58,1.58,0,0,1,252.13,196.06ZM223,192.9h27.56V63.06H223Z" style="fill:#661ff4"/><path d="M252.13,196.82H221.4a2.33,2.33,0,0,1-2.33-2.34v-133a2.33,2.33,0,0,1,2.33-2.34h30.73a2.34,2.34,0,0,1,2.34,2.34v133A2.34,2.34,0,0,1,252.13,196.82ZM221.4,60.64a.84.84,0,0,0-.83.84v133a.83.83,0,0,0,.83.83h30.73a.83.83,0,0,0,.83-.83v-133a.84.84,0,0,0-.83-.84Zm29.15,133H223a.76.76,0,0,1-.76-.75V63.06a.76.76,0,0,1,.76-.75h27.56a.76.76,0,0,1,.75.75V192.9A.76.76,0,0,1,250.55,193.65Zm-26.81-1.51H249.8V63.81H223.74Z" style="fill:#661ff4"/><path d="M137.15,196.11H4.23a1.58,1.58,0,0,1-1.58-1.59V61.61A1.58,1.58,0,0,1,4.23,60H137.15a1.59,1.59,0,0,1,1.58,1.59V194.52A1.59,1.59,0,0,1,137.15,196.11ZM5.81,192.94H135.56V63.19H5.81Z" style="fill:#661ff4"/><path d="M137.15,196.86H4.23a2.34,2.34,0,0,1-2.34-2.34V61.61a2.34,2.34,0,0,1,2.34-2.34H137.15a2.34,2.34,0,0,1,2.33,2.34V194.52A2.34,2.34,0,0,1,137.15,196.86ZM4.23,60.77a.84.84,0,0,0-.83.84V194.52a.84.84,0,0,0,.83.84H137.15a.84.84,0,0,0,.83-.84V61.61a.84.84,0,0,0-.83-.84ZM135.56,193.69H5.81a.76.76,0,0,1-.75-.75V63.19a.76.76,0,0,1,.75-.75H135.56a.75.75,0,0,1,.75.75V192.94A.75.75,0,0,1,135.56,193.69Zm-129-1.5H134.81V63.94H6.57Z" style="fill:#661ff4"/><path d="M106.15,152.82h-78a1.59,1.59,0,0,1-1.29-2.51l24.2-33.61a1.61,1.61,0,0,1,1.26-.66,1.54,1.54,0,0,1,1.28.61l11.93,15.22L87.7,103.74a1.58,1.58,0,0,1,1.49-.59,1.6,1.6,0,0,1,1.24,1l17.21,46.52a1.59,1.59,0,0,1-1.49,2.13Zm-74.89-3.17h72.61L88.44,107.92,66.79,135.41a1.59,1.59,0,0,1-1.24.61h0a1.59,1.59,0,0,1-1.24-.61L52.42,120.26Z" style="fill:#661ff4"/><path d="M106.15,153.58h-78a2.35,2.35,0,0,1-1.9-3.71l24.2-33.61a2.35,2.35,0,0,1,1.85-1,2.29,2.29,0,0,1,1.89.89l11.34,14.47L87.1,103.27a2.37,2.37,0,0,1,2.21-.86,2.33,2.33,0,0,1,1.82,1.5l17.21,46.52a2.34,2.34,0,0,1-2.19,3.15ZM52.41,116.79h0a.87.87,0,0,0-.69.35l-24.2,33.61a.83.83,0,0,0-.06.87.81.81,0,0,0,.74.45h78a.81.81,0,0,0,.68-.36.79.79,0,0,0,.1-.76L89.72,104.43a.81.81,0,0,0-.65-.53.82.82,0,0,0-.78.3L66.14,132.33a.75.75,0,0,1-.59.29h0a.75.75,0,0,1-.59-.29L53,117.11A.78.78,0,0,0,52.41,116.79Zm51.46,33.62H31.26a.75.75,0,0,1-.61-1.19l21.16-29.4a.78.78,0,0,1,.6-.31.76.76,0,0,1,.6.29L64.89,135a.87.87,0,0,0,1.31,0l21.64-27.5a.74.74,0,0,1,.71-.27.73.73,0,0,1,.59.48l15.44,41.73a.77.77,0,0,1-.09.69A.74.74,0,0,1,103.87,150.41ZM32.73,148.9h70.06L88.2,109.44,67.38,135.88a2.34,2.34,0,0,1-1.83.89,2.31,2.31,0,0,1-1.84-.9L52.45,121.51Z" style="fill:#661ff4"/></svg>