<svg id="Layer_1" data-name="Layer 1" xmlns="http://www.w3.org/2000/svg" viewBox="0 0 256 256"><path d="M128.35,45.06H4.58a1.47,1.47,0,0,0-1.47,1.47V170.3a1.48,1.48,0,0,0,1.47,1.48H128.35a1.48,1.48,0,0,0,1.47-1.48V128.51q-.72.06-1.47.06c-.5,0-1,0-1.48-.06v40.32H6.06V48H126.87V88.16c.49,0,1-.06,1.48-.06s1,0,1.47.06V46.53A1.47,1.47,0,0,0,128.35,45.06Z" style="fill:#661ff4"/><path d="M128.35,172.48H4.58A2.19,2.19,0,0,1,2.4,170.3V46.53a2.18,2.18,0,0,1,2.18-2.17H128.35a2.17,2.17,0,0,1,2.17,2.17V88.16a.69.69,0,0,1-.76.7,16.72,16.72,0,0,0-2.83,0,.69.69,0,0,1-.53-.18.68.68,0,0,1-.23-.52V48.71H6.76V168.12H126.17V128.51a.68.68,0,0,1,.23-.51.7.7,0,0,1,.53-.19,16.72,16.72,0,0,0,2.83,0,.68.68,0,0,1,.54.19.7.7,0,0,1,.22.51V170.3A2.18,2.18,0,0,1,128.35,172.48ZM4.58,45.76a.78.78,0,0,0-.77.77V170.3a.78.78,0,0,0,.77.78H128.35a.77.77,0,0,0,.77-.78v-41c-.51,0-1,0-1.55,0v39.57a.7.7,0,0,1-.7.7H6.06a.71.71,0,0,1-.71-.7V48a.7.7,0,0,1,.71-.7H126.87a.7.7,0,0,1,.7.7V87.42a13.36,13.36,0,0,1,1.55,0V46.53a.77.77,0,0,0-.77-.77Z" style="fill:#661ff4"/><path d="M87.86,124.54H38.5a1.48,1.48,0,0,1-1.2-2.34l15.32-21.28a1.46,1.46,0,0,1,1.17-.61,1.44,1.44,0,0,1,1.19.56L62.16,110,75.81,92.7a1.47,1.47,0,0,1,2.54.4l10.9,29.45a1.48,1.48,0,0,1-.18,1.35A1.45,1.45,0,0,1,87.86,124.54Zm-46.48-3H85.74l-9.24-25L63.32,113.33a1.47,1.47,0,0,1-1.16.57h0a1.46,1.46,0,0,1-1.16-.57l-7.13-9.09Z" style="fill:#661ff4"/><path d="M87.86,125.24H38.5a2.18,2.18,0,0,1-1.77-3.45l15.32-21.28a2.18,2.18,0,0,1,1.72-.9,2.1,2.1,0,0,1,1.76.83l6.63,8.46,13.1-16.63a2.17,2.17,0,0,1,3.75.59L89.9,122.31a2.14,2.14,0,0,1-.25,2A2.18,2.18,0,0,1,87.86,125.24ZM53.87,101h0a.76.76,0,0,0-.64.32L37.87,122.61a.75.75,0,0,0-.06.8.77.77,0,0,0,.69.43H87.86a.78.78,0,0,0,.73-1L77.69,93.34a.74.74,0,0,0-.6-.49.76.76,0,0,0-.73.28L62.71,110.47a.68.68,0,0,1-.55.26h0a.69.69,0,0,1-.55-.26l-7.18-9.16A.74.74,0,0,0,53.87,101Zm31.87,21.28H41.38a.71.71,0,0,1-.63-.38.69.69,0,0,1,.06-.73L53.3,103.83a.68.68,0,0,1,.55-.29.75.75,0,0,1,.57.26l7.13,9.1a.8.8,0,0,0,1.22,0L76,96.16a.69.69,0,0,1,.66-.26.71.71,0,0,1,.55.45l9.24,25a.71.71,0,0,1-.08.65A.73.73,0,0,1,85.74,122.29Zm-43-1.41h42L76.28,98,63.87,113.77a2.17,2.17,0,0,1-3.42,0l-6.56-8.36Z" style="fill:#661ff4"/><path d="M252.12,45.06H128.35a1.47,1.47,0,0,0-1.48,1.47V88.16c.49,0,1-.06,1.48-.06s1,0,1.47.06V48H250.64V168.83H129.82V128.51q-.72.06-1.47.06c-.5,0-1,0-1.48-.06V170.3a1.48,1.48,0,0,0,1.48,1.48H252.12a1.48,1.48,0,0,0,1.47-1.48V46.53A1.47,1.47,0,0,0,252.12,45.06Z" style="fill:#661ff4"/><path d="M252.12,172.48H128.35a2.19,2.19,0,0,1-2.18-2.18V128.51a.68.68,0,0,1,.23-.51.7.7,0,0,1,.53-.19,16.72,16.72,0,0,0,2.83,0,.68.68,0,0,1,.54.19.7.7,0,0,1,.22.51v39.61H249.94V48.71H130.52V88.16a.69.69,0,0,1-.76.7,16.72,16.72,0,0,0-2.83,0,.69.69,0,0,1-.53-.18.68.68,0,0,1-.23-.52V46.53a2.18,2.18,0,0,1,2.18-2.17H252.12a2.17,2.17,0,0,1,2.17,2.17V170.3A2.18,2.18,0,0,1,252.12,172.48ZM127.57,129.26v41a.78.78,0,0,0,.78.78H252.12a.78.78,0,0,0,.77-.78V46.53a.78.78,0,0,0-.77-.77H128.35a.78.78,0,0,0-.78.77V87.42a13.36,13.36,0,0,1,1.55,0V48a.7.7,0,0,1,.7-.7H250.64a.7.7,0,0,1,.7.7V168.83a.7.7,0,0,1-.7.7H129.82a.71.71,0,0,1-.7-.7V129.26C128.61,129.28,128.09,129.28,127.57,129.26Z" style="fill:#661ff4"/><path d="M129.82,85.2c-.48,0-1,0-1.47,0s-1,0-1.48,0a23.18,23.18,0,0,0,0,46.27c.49,0,1,.05,1.48.05s1,0,1.47-.05a23.18,23.18,0,0,0,0-46.27Zm0,43.31q-.72.06-1.47.06c-.5,0-1,0-1.48-.06a20.23,20.23,0,0,1,0-40.35c.49,0,1-.06,1.48-.06s1,0,1.47.06a20.23,20.23,0,0,1,0,40.35Z" style="fill:#661ff4;stroke:#661ff4;stroke-linecap:round;stroke-linejoin:round;stroke-width:2px"/><path d="M122,115.46a1.51,1.51,0,0,1-1-.43l-5.65-5.65a1.5,1.5,0,0,1-.43-1,1.53,1.53,0,0,1,.43-1l5.65-5.64a1.47,1.47,0,1,1,2.09,2.08l-4.61,4.61,4.61,4.6a1.49,1.49,0,0,1,0,2.09A1.52,1.52,0,0,1,122,115.46Z" style="fill:#661ff4"/><path d="M122,116.16a2.19,2.19,0,0,1-1.54-.64l-5.64-5.65a2.15,2.15,0,0,1-.64-1.53,2.17,2.17,0,0,1,.64-1.54l5.64-5.65a2.18,2.18,0,1,1,3.08,3.08l-4.11,4.11,4.11,4.11a2.15,2.15,0,0,1,.64,1.53,2.19,2.19,0,0,1-2.18,2.18Zm0-14.25a.76.76,0,0,0-.54.23l-5.65,5.65a.76.76,0,0,0-.23.55.74.74,0,0,0,.23.54l5.65,5.65a.79.79,0,0,0,1.09,0,.76.76,0,0,0,.23-.55.74.74,0,0,0-.23-.54l-4.6-4.61a.69.69,0,0,1,0-1l4.6-4.6a.78.78,0,0,0-.55-1.33Z" style="fill:#661ff4"/><path d="M134.68,115.46a1.51,1.51,0,0,1-1-.43,1.47,1.47,0,0,1,0-2.09l4.61-4.6-4.61-4.61a1.47,1.47,0,0,1,2.09-2.08l5.65,5.64a1.53,1.53,0,0,1,.43,1,1.5,1.5,0,0,1-.43,1L135.73,115A1.52,1.52,0,0,1,134.68,115.46Z" style="fill:#661ff4"/><path d="M134.68,116.16a2.18,2.18,0,0,1-1.53-3.72l4.11-4.1-4.11-4.11a2.17,2.17,0,0,1,0-3.08,2.22,2.22,0,0,1,3.07,0l5.65,5.65a2.17,2.17,0,0,1,.64,1.54,2.15,2.15,0,0,1-.64,1.53l-5.65,5.65A2.15,2.15,0,0,1,134.68,116.16Zm0-14.25a.74.74,0,0,0-.54.23.77.77,0,0,0,0,1.1l4.6,4.6a.69.69,0,0,1,0,1l-4.6,4.61a.74.74,0,0,0-.23.54.76.76,0,0,0,.23.55.79.79,0,0,0,1.09,0l5.65-5.65a.74.74,0,0,0,.23-.54.79.79,0,0,0-.23-.55l-5.65-5.65A.75.75,0,0,0,134.68,101.91Z" style="fill:#661ff4"/><path d="M222.43,124.54H173.06a1.48,1.48,0,0,1-1.19-2.34l15.32-21.28a1.48,1.48,0,0,1,2.36,0l7.18,9.16L210.38,92.7a1.48,1.48,0,0,1,1.39-.55,1.51,1.51,0,0,1,1.15.95l10.89,29.45a1.44,1.44,0,0,1-.17,1.35A1.48,1.48,0,0,1,222.43,124.54Zm-46.49-3h44.37l-9.24-25-13.19,16.74a1.45,1.45,0,0,1-1.15.57h0a1.47,1.47,0,0,1-1.16-.57l-7.13-9.09Z" style="fill:#661ff4"/><path d="M222.43,125.24H173.06a2.18,2.18,0,0,1-1.76-3.45l15.32-21.28a2.18,2.18,0,0,1,1.72-.9,2.12,2.12,0,0,1,1.76.83l6.63,8.46,13.1-16.63a2.17,2.17,0,0,1,2-.81,2.19,2.19,0,0,1,1.71,1.4l10.89,29.45a2.18,2.18,0,0,1-2,2.93Zm-34-24.23h0a.76.76,0,0,0-.64.32l-15.33,21.28a.77.77,0,0,0-.06.8.79.79,0,0,0,.69.43h49.37a.8.8,0,0,0,.64-.34.81.81,0,0,0,.09-.71l-10.9-29.45a.77.77,0,0,0-.6-.49.75.75,0,0,0-.73.28l-13.65,17.34a.69.69,0,0,1-.55.26h0a.68.68,0,0,1-.55-.26L189,101.31A.72.72,0,0,0,188.43,101Zm31.88,21.28H175.94a.7.7,0,0,1-.57-1.11l12.5-17.35a.66.66,0,0,1,.55-.29.73.73,0,0,1,.57.26l7.13,9.1a.79.79,0,0,0,1.21,0l13.18-16.74a.71.71,0,0,1,.66-.26.69.69,0,0,1,.55.45l9.25,25a.71.71,0,0,1-.08.65A.73.73,0,0,1,220.31,122.29Zm-43-1.41h42L210.84,98l-12.41,15.76a2.14,2.14,0,0,1-1.71.83,2.17,2.17,0,0,1-1.71-.84l-6.55-8.36Z" style="fill:#661ff4"/></svg>