<svg id="Layer_1" data-name="Layer 1" xmlns="http://www.w3.org/2000/svg" viewBox="0 0 256 256"><path d="M122,139H21.61a2.17,2.17,0,0,1-2.17-2.16V36.46a2.17,2.17,0,0,1,2.17-2.16H122a2.16,2.16,0,0,1,2.16,2.16V136.87A2.16,2.16,0,0,1,122,139Zm-98.25-4.32h96.08V38.62H23.77Z" style="fill:#661ff4"/><path d="M122,140H21.61a3.15,3.15,0,0,1-3.14-3.14V36.46a3.15,3.15,0,0,1,3.14-3.14H122a3.14,3.14,0,0,1,3.13,3.14V136.87A3.14,3.14,0,0,1,122,140ZM21.61,35.27a1.19,1.19,0,0,0-1.19,1.19V136.87a1.18,1.18,0,0,0,1.19,1.18H122a1.18,1.18,0,0,0,1.18-1.18V36.46A1.19,1.19,0,0,0,122,35.27Zm98.24,100.41H23.77a1,1,0,0,1-1-1V38.62a1,1,0,0,1,1-1h96.08a1,1,0,0,1,1,1v96.09A1,1,0,0,1,119.85,135.68Zm-95.11-2h94.14V39.6H24.74Z" style="fill:#661ff4"/><path d="M122,253.17H21.61A2.16,2.16,0,0,1,19.44,251V150.6a2.17,2.17,0,0,1,2.17-2.16H122a2.16,2.16,0,0,1,2.16,2.16V251A2.16,2.16,0,0,1,122,253.17Zm-98.25-4.32h96.08V152.76H23.77Z" style="fill:#661ff4"/><path d="M122,254.15H21.61A3.15,3.15,0,0,1,18.47,251V150.6a3.14,3.14,0,0,1,3.14-3.13H122a3.13,3.13,0,0,1,3.13,3.13V251A3.14,3.14,0,0,1,122,254.15ZM21.61,149.42a1.18,1.18,0,0,0-1.19,1.18V251a1.19,1.19,0,0,0,1.19,1.19H122A1.18,1.18,0,0,0,123.2,251V150.6a1.18,1.18,0,0,0-1.18-1.18Zm98.24,100.41H23.77a1,1,0,0,1-1-1V152.76a1,1,0,0,1,1-1h96.08a1,1,0,0,1,1,1v96.09A1,1,0,0,1,119.85,249.83Zm-95.11-2h94.14V153.74H24.74Z" style="fill:#661ff4"/><path d="M237.15,139H136.74a2.16,2.16,0,0,1-2.16-2.16V36.46a2.16,2.16,0,0,1,2.16-2.16H237.15a2.16,2.16,0,0,1,2.16,2.16V136.87A2.16,2.16,0,0,1,237.15,139Zm-98.25-4.32H235V38.62H138.9Z" style="fill:#661ff4"/><path d="M237.15,140H136.74a3.15,3.15,0,0,1-3.14-3.14V36.46a3.15,3.15,0,0,1,3.14-3.14H237.15a3.14,3.14,0,0,1,3.13,3.14V136.87A3.14,3.14,0,0,1,237.15,140ZM136.74,35.27a1.19,1.19,0,0,0-1.19,1.19V136.87a1.18,1.18,0,0,0,1.19,1.18H237.15a1.18,1.18,0,0,0,1.18-1.18V36.46a1.19,1.19,0,0,0-1.18-1.19ZM235,135.68H138.9a1,1,0,0,1-1-1V38.62a1,1,0,0,1,1-1H235a1,1,0,0,1,1,1v96.09A1,1,0,0,1,235,135.68Zm-95.12-2H234V39.6H139.87Z" style="fill:#661ff4"/><path d="M237.15,253.17H136.74a2.15,2.15,0,0,1-2.16-2.16V150.6a2.16,2.16,0,0,1,2.16-2.16H237.15a2.16,2.16,0,0,1,2.16,2.16V251A2.16,2.16,0,0,1,237.15,253.17Zm-98.25-4.32H235V152.76H138.9Z" style="fill:#661ff4"/><path d="M237.15,254.15H136.74A3.15,3.15,0,0,1,133.6,251V150.6a3.14,3.14,0,0,1,3.14-3.13H237.15a3.13,3.13,0,0,1,3.13,3.13V251A3.14,3.14,0,0,1,237.15,254.15ZM136.74,149.42a1.18,1.18,0,0,0-1.19,1.18V251a1.19,1.19,0,0,0,1.19,1.19H237.15a1.18,1.18,0,0,0,1.18-1.19V150.6a1.18,1.18,0,0,0-1.18-1.18ZM235,249.83H138.9a1,1,0,0,1-1-1V152.76a1,1,0,0,1,1-1H235a1,1,0,0,1,1,1v96.09A1,1,0,0,1,235,249.83Zm-95.12-2H234V153.74H139.87Z" style="fill:#661ff4"/><path d="M212.37,106H154.82a2.16,2.16,0,0,1-1.76-3.42l17.86-24.81a2.16,2.16,0,0,1,3.46-.07l8,10.24L198,68.16a2.15,2.15,0,0,1,3.72.59l12.71,34.33a2.18,2.18,0,0,1-.26,2A2.14,2.14,0,0,1,212.37,106ZM159,101.67h50.23L199,73.87,184.1,92.76a2.16,2.16,0,0,1-1.7.83h0a2.18,2.18,0,0,1-1.7-.83l-7.95-10.14Z" style="fill:#661ff4"/><path d="M212.37,107H154.82a3.14,3.14,0,0,1-2.55-5l17.86-24.81a3.15,3.15,0,0,1,2.49-1.3,3.11,3.11,0,0,1,2.53,1.2l7.26,9.26L197.2,67.56a3.14,3.14,0,0,1,5.41.85l12.7,34.33a3.15,3.15,0,0,1-2.94,4.23ZM172.7,77.84h0a1.18,1.18,0,0,0-.95.49l-17.86,24.81a1.17,1.17,0,0,0,1,1.87h57.55a1.19,1.19,0,0,0,1-.5,1.21,1.21,0,0,0,.14-1.09l-12.7-34.33a1.19,1.19,0,0,0-.93-.76,1.16,1.16,0,0,0-1.11.44L183.17,88.53a1,1,0,0,1-.76.38h0a1,1,0,0,1-.77-.38l-8-10.24A1.19,1.19,0,0,0,172.7,77.84Zm36.57,24.81H159a1,1,0,0,1-.8-1.55l13.72-19a1,1,0,0,1,1.56,0l7.95,10.14a1.22,1.22,0,0,0,1.86,0l14.88-18.9a1,1,0,0,1,.92-.36,1,1,0,0,1,.77.63l10.28,27.8a1,1,0,0,1-.91,1.32Zm-48.33-2h46.92l-9.19-24.85-13.8,17.53a3.15,3.15,0,0,1-4.94,0l-7.14-9.12Z" style="fill:#661ff4"/><path d="M100.1,106H42.55a2.16,2.16,0,0,1-1.75-3.42L58.66,77.76a2.19,2.19,0,0,1,1.71-.9,2.16,2.16,0,0,1,1.74.83l8,10.24L85.71,68.16a2.16,2.16,0,0,1,2-.8,2.19,2.19,0,0,1,1.69,1.39l12.7,34.33a2.15,2.15,0,0,1-2,2.91Zm-53.33-4.32H97L86.72,73.87,71.84,92.76a2.18,2.18,0,0,1-1.7.83h0a2.16,2.16,0,0,1-1.7-.83L60.49,82.62Z" style="fill:#661ff4"/><path d="M100.1,107H42.55A3.14,3.14,0,0,1,40,102L57.87,77.19a3.14,3.14,0,0,1,5-.1l7.26,9.26,14.8-18.79a3.12,3.12,0,0,1,3-1.16,3.17,3.17,0,0,1,2.46,2l12.7,34.33a3.15,3.15,0,0,1-3,4.23ZM60.44,77.84h0a1.21,1.21,0,0,0-.95.49L41.59,103.14a1.18,1.18,0,0,0-.09,1.23,1.17,1.17,0,0,0,1,.64H100.1a1.22,1.22,0,0,0,1-.5,1.21,1.21,0,0,0,.14-1.09L88.51,69.09a1.18,1.18,0,0,0-2-.32L70.91,88.53a1,1,0,0,1-.77.38h0a1,1,0,0,1-.77-.38l-8-10.24A1.2,1.2,0,0,0,60.44,77.84ZM97,102.65H46.77a1,1,0,0,1-.87-.54,1,1,0,0,1,.08-1l13.71-19a1,1,0,0,1,.78-.41,1,1,0,0,1,.79.38l7.95,10.14a1.22,1.22,0,0,0,1.86,0L86,73.26a1,1,0,0,1,.92-.36,1,1,0,0,1,.76.63l10.29,27.8a1,1,0,0,1-.12.9A1,1,0,0,1,97,102.65Zm-48.32-2H95.6L86.4,75.84,72.6,93.37a3.14,3.14,0,0,1-4.93,0l-7.15-9.12Z" style="fill:#661ff4"/><path d="M212.37,220.21H154.82a2.17,2.17,0,0,1-1.76-3.42L170.92,192a2.16,2.16,0,0,1,3.46-.07l8,10.24L198,182.38a2.15,2.15,0,0,1,3.72.59L214.4,217.3a2.17,2.17,0,0,1-2,2.91ZM159,215.89h50.23L199,188.08,184.1,207a2.16,2.16,0,0,1-1.7.83h0a2.21,2.21,0,0,1-1.7-.83l-7.95-10.14Z" style="fill:#661ff4"/><path d="M212.37,221.18H154.82a3.13,3.13,0,0,1-2.55-5l17.86-24.81a3.12,3.12,0,0,1,2.49-1.3,3.09,3.09,0,0,1,2.53,1.2l7.26,9.26,14.79-18.79a3.14,3.14,0,0,1,3-1.16,3.11,3.11,0,0,1,2.45,2L215.31,217a3.13,3.13,0,0,1-2.94,4.22ZM172.7,192.06h0a1.16,1.16,0,0,0-.95.49l-17.86,24.81a1.17,1.17,0,0,0,1,1.87h57.55a1.19,1.19,0,0,0,1.11-1.59l-12.7-34.33a1.19,1.19,0,0,0-2-.33l-15.57,19.77a.94.94,0,0,1-.76.37h0a1,1,0,0,1-.77-.37l-8-10.24A1.19,1.19,0,0,0,172.7,192.06Zm36.57,24.8H159a1,1,0,0,1-.87-.53,1,1,0,0,1,.07-1l13.72-19a1,1,0,0,1,1.56,0l7.95,10.15a1.23,1.23,0,0,0,1.86,0l14.88-18.9a1,1,0,0,1,.92-.36,1,1,0,0,1,.77.62l10.28,27.81a1,1,0,0,1-.11.9A1,1,0,0,1,209.27,216.86Zm-48.33-2h46.92l-9.19-24.85-13.8,17.53a3.15,3.15,0,0,1-4.94,0l-7.14-9.12Z" style="fill:#661ff4"/><path d="M100.1,220.21H42.55a2.16,2.16,0,0,1-1.75-3.42L58.66,192a2.16,2.16,0,0,1,1.71-.9,2.14,2.14,0,0,1,1.74.83l8,10.24,15.57-19.77a2.15,2.15,0,0,1,3.72.59l12.7,34.33a2.15,2.15,0,0,1-.25,2A2.18,2.18,0,0,1,100.1,220.21Zm-53.33-4.32H97L86.72,188.08,71.84,207a2.18,2.18,0,0,1-1.7.83h0a2.19,2.19,0,0,1-1.7-.83l-7.95-10.14Z" style="fill:#661ff4"/><path d="M100.1,221.18H42.55a3.13,3.13,0,0,1-2.54-5l17.86-24.81a3.14,3.14,0,0,1,5-.1l7.26,9.26,14.8-18.79a3.14,3.14,0,0,1,5.41.85L103.05,217a3.13,3.13,0,0,1-3,4.22ZM60.44,192.06h0a1.18,1.18,0,0,0-.95.49L41.59,217.36a1.18,1.18,0,0,0-.09,1.23,1.17,1.17,0,0,0,1,.64H100.1a1.2,1.2,0,0,0,1-.51,1.18,1.18,0,0,0,.14-1.08L88.51,183.31a1.14,1.14,0,0,0-.92-.76,1.16,1.16,0,0,0-1.12.43L70.91,202.75a1,1,0,0,1-.77.37h0a1,1,0,0,1-.77-.37l-8-10.24A1.2,1.2,0,0,0,60.44,192.06ZM97,216.86H46.77a1,1,0,0,1-.87-.53,1,1,0,0,1,.08-1l13.71-19a1,1,0,0,1,1.57,0l7.95,10.15a1.23,1.23,0,0,0,1.86,0L86,187.48a1,1,0,0,1,1.68.26l10.29,27.81a1,1,0,0,1-.12.9A1,1,0,0,1,97,216.86Zm-48.32-2H95.6l-9.2-24.85L72.6,207.59a3.14,3.14,0,0,1-4.93,0l-7.15-9.12Z" style="fill:#661ff4"/><path d="M66.45,20.69H21.61a2.17,2.17,0,0,1-2.17-2.16V4.9a2.17,2.17,0,0,1,2.17-2.16H66.45A2.16,2.16,0,0,1,68.61,4.9V18.53A2.16,2.16,0,0,1,66.45,20.69ZM23.77,16.36H64.29V7.06H23.77Z" style="fill:#661ff4"/><path d="M66.45,21.66H21.61a3.14,3.14,0,0,1-3.14-3.13V4.9a3.14,3.14,0,0,1,3.14-3.13H66.45A3.14,3.14,0,0,1,69.59,4.9V18.53A3.14,3.14,0,0,1,66.45,21.66ZM21.61,3.72A1.18,1.18,0,0,0,20.42,4.9V18.53a1.18,1.18,0,0,0,1.19,1.18H66.45a1.19,1.19,0,0,0,1.19-1.18V4.9a1.19,1.19,0,0,0-1.19-1.18ZM64.29,17.34H23.77a1,1,0,0,1-1-1V7.06a1,1,0,0,1,1-1H64.29a1,1,0,0,1,1,1v9.3A1,1,0,0,1,64.29,17.34ZM24.74,15.39H63.31V8H24.74Z" style="fill:#661ff4"/><path d="M123.35,20.69H78.5a2.16,2.16,0,0,1-2.16-2.16V4.9A2.16,2.16,0,0,1,78.5,2.74h44.85a2.16,2.16,0,0,1,2.16,2.16V18.53A2.16,2.16,0,0,1,123.35,20.69ZM80.66,16.36h40.53V7.06H80.66Z" style="fill:#661ff4"/><path d="M123.35,21.66H78.5a3.13,3.13,0,0,1-3.13-3.13V4.9A3.13,3.13,0,0,1,78.5,1.77h44.85a3.14,3.14,0,0,1,3.14,3.13V18.53A3.14,3.14,0,0,1,123.35,21.66ZM78.5,3.72A1.18,1.18,0,0,0,77.32,4.9V18.53a1.18,1.18,0,0,0,1.18,1.18h44.85a1.18,1.18,0,0,0,1.18-1.18V4.9a1.18,1.18,0,0,0-1.18-1.18Zm42.69,13.62H80.66a1,1,0,0,1-1-1V7.06a1,1,0,0,1,1-1h40.53a1,1,0,0,1,1,1v9.3A1,1,0,0,1,121.19,17.34ZM81.64,15.39h38.57V8H81.64Z" style="fill:#661ff4"/><path d="M180.25,20.69H135.4a2.16,2.16,0,0,1-2.16-2.16V4.9a2.16,2.16,0,0,1,2.16-2.16h44.85a2.16,2.16,0,0,1,2.16,2.16V18.53A2.16,2.16,0,0,1,180.25,20.69Zm-42.69-4.33h40.53V7.06H137.56Z" style="fill:#661ff4"/><path d="M180.25,21.66H135.4a3.13,3.13,0,0,1-3.13-3.13V4.9a3.13,3.13,0,0,1,3.13-3.13h44.85a3.13,3.13,0,0,1,3.13,3.13V18.53A3.13,3.13,0,0,1,180.25,21.66ZM135.4,3.72a1.18,1.18,0,0,0-1.18,1.18V18.53a1.18,1.18,0,0,0,1.18,1.18h44.85a1.18,1.18,0,0,0,1.18-1.18V4.9a1.18,1.18,0,0,0-1.18-1.18Zm42.69,13.62H137.56a1,1,0,0,1-1-1V7.06a1,1,0,0,1,1-1h40.53a1,1,0,0,1,1,1v9.3A1,1,0,0,1,178.09,17.34Zm-39.55-1.95h38.57V8H138.54Z" style="fill:#661ff4"/><path d="M237.15,20.69H192.3a2.16,2.16,0,0,1-2.16-2.16V4.9a2.16,2.16,0,0,1,2.16-2.16h44.85a2.16,2.16,0,0,1,2.16,2.16V18.53A2.16,2.16,0,0,1,237.15,20.69Zm-42.69-4.33H235V7.06H194.46Z" style="fill:#661ff4"/><path d="M237.15,21.66H192.3a3.14,3.14,0,0,1-3.14-3.13V4.9a3.14,3.14,0,0,1,3.14-3.13h44.85a3.13,3.13,0,0,1,3.13,3.13V18.53A3.13,3.13,0,0,1,237.15,21.66ZM192.3,3.72a1.18,1.18,0,0,0-1.18,1.18V18.53a1.18,1.18,0,0,0,1.18,1.18h44.85a1.18,1.18,0,0,0,1.18-1.18V4.9a1.18,1.18,0,0,0-1.18-1.18ZM235,17.34H194.46a1,1,0,0,1-1-1V7.06a1,1,0,0,1,1-1H235a1,1,0,0,1,1,1v9.3A1,1,0,0,1,235,17.34Zm-39.55-1.95H234V8H195.44Z" style="fill:#661ff4"/></svg>