<svg id="Layer_1" data-name="Layer 1" xmlns="http://www.w3.org/2000/svg" viewBox="0 0 256 256"><path d="M128.84,251.67a21.25,21.25,0,1,1,21.24-21.25A21.28,21.28,0,0,1,128.84,251.67Zm0-35.18a13.93,13.93,0,1,0,13.92,13.93A13.95,13.95,0,0,0,128.84,216.49Z" style="fill:#661ff4"/><path d="M81.33,246.8a16.39,16.39,0,1,1,16.38-16.38A16.4,16.4,0,0,1,81.33,246.8Zm0-25.45a9.07,9.07,0,1,0,9.07,9.07A9.08,9.08,0,0,0,81.33,221.35Z" style="fill:#661ff4"/><path d="M176.34,246.8a16.39,16.39,0,1,1,16.39-16.38A16.4,16.4,0,0,1,176.34,246.8Zm0-25.45a9.07,9.07,0,1,0,9.07,9.07A9.07,9.07,0,0,0,176.34,221.35Z" style="fill:#661ff4"/><path d="M226.7,204.87H31a3.66,3.66,0,0,1-3.66-3.66V5.47A3.65,3.65,0,0,1,31,1.82H226.7a3.65,3.65,0,0,1,3.66,3.65V201.21A3.66,3.66,0,0,1,226.7,204.87ZM34.63,197.55H223V9.13H34.63Z" style="fill:#661ff4"/><path d="M181.54,135.46H76.12A3.43,3.43,0,0,1,73.33,130l32.72-45.44a3.44,3.44,0,0,1,5.5-.11l15.11,19.27L155.58,67a3.43,3.43,0,0,1,5.92.94l23.27,62.88a3.43,3.43,0,0,1-3.23,4.63Zm-98.7-6.87h93.77l-19.43-52.5-27.83,35.34a3.43,3.43,0,0,1-2.7,1.32h0a3.47,3.47,0,0,1-2.7-1.32L109,92.31Z" style="fill:#661ff4"/></svg>