<svg id="Layer_1" data-name="Layer 1" xmlns="http://www.w3.org/2000/svg" viewBox="0 0 256 256"><path d="M188.56,150.08H67.44a4,4,0,0,1-3.21-6.26l37.59-52.21A4,4,0,0,1,105,90a3.93,3.93,0,0,1,3.19,1.52l17.36,22.14,33.23-42.2a3.95,3.95,0,0,1,6.81,1.08l26.73,72.25a4,4,0,0,1-3.71,5.32Zm-113.41-7.9H182.89L160.57,81.86l-32,40.61a4,4,0,0,1-3.11,1.51h0a4,4,0,0,1-3.11-1.51l-17.22-22Z" style="fill:#661ff4"/><path d="M188.56,151.23H67.44a5.1,5.1,0,0,1-4.14-8.08l37.59-52.21a5.12,5.12,0,0,1,4-2.11,5.06,5.06,0,0,1,4.12,2l16.46,21,32.32-41a5.1,5.1,0,0,1,8.79,1.39l26.73,72.25a5.09,5.09,0,0,1-4.78,6.87ZM105.09,91.12H105a2.87,2.87,0,0,0-2.24,1.17l-37.59,52.2a2.8,2.8,0,0,0,2.28,4.44H188.56a2.8,2.8,0,0,0,2.63-3.77L164.46,72.9a2.81,2.81,0,0,0-4.83-.76l-33.23,42.2a1.14,1.14,0,0,1-.9.44h0a1.16,1.16,0,0,1-.91-.44L107.23,92.2A2.75,2.75,0,0,0,105.09,91.12Zm77.8,52.21H75.15a1.15,1.15,0,0,1-.93-1.82l30-41.68a1.14,1.14,0,0,1,.91-.48,1.18,1.18,0,0,1,.93.44l17.22,22a2.8,2.8,0,0,0,4.4,0l32-40.61a1.15,1.15,0,0,1,2,.31L184,141.78a1.11,1.11,0,0,1-.13,1.06A1.14,1.14,0,0,1,182.89,143.33ZM77.4,141H181.24l-21-56.85-30.71,39a5.09,5.09,0,0,1-8,0L105.2,102.41Z" style="fill:#661ff4"/><path d="M241.85,2.92H14.15a3,3,0,0,0-3,3v227.7a3,3,0,0,0,3,3H118.91l3.78-6H17.17V8.94H238.83V230.62H133.31l3.79,6H241.85a3,3,0,0,0,3-3V5.93A3,3,0,0,0,241.85,2.92ZM126.59,236.62l0,0h2.92l-.05,0A2.89,2.89,0,0,0,126.59,236.62Z" style="fill:#661ff4"/><path d="M241.85,237.79H137.1a1.14,1.14,0,0,1-1-.54l-3.79-6a1.14,1.14,0,0,1,0-1.17,1.17,1.17,0,0,1,1-.59H237.68V10.09H18.31V229.47H122.69a1.17,1.17,0,0,1,1,.59,1.14,1.14,0,0,1,0,1.17l-3.78,6a1.14,1.14,0,0,1-1,.54H14.15A4.17,4.17,0,0,1,10,233.63V5.93a4.16,4.16,0,0,1,4.16-4.16h227.7A4.16,4.16,0,0,1,246,5.93v227.7A4.17,4.17,0,0,1,241.85,237.79Zm-104.11-2.3H241.85a1.86,1.86,0,0,0,1.86-1.86V5.93a1.87,1.87,0,0,0-1.86-1.87H14.15a1.87,1.87,0,0,0-1.86,1.87v227.7a1.86,1.86,0,0,0,1.86,1.86H118.27l2.34-3.72H17.17A1.15,1.15,0,0,1,16,230.62V8.94a1.14,1.14,0,0,1,1.15-1.15H238.83A1.14,1.14,0,0,1,240,8.94V230.62a1.15,1.15,0,0,1-1.15,1.15H135.39Zm-8.28,2.3h-2.92a1.15,1.15,0,0,1-.51-2.18l.51.92h0l-.5-.92a4.07,4.07,0,0,1,3.92,0,1.17,1.17,0,0,1,.59,1.3A1.14,1.14,0,0,1,129.46,237.79Z" style="fill:#661ff4"/><path d="M152.08,249.15l-7.86-12.51-3.78-6-9.89-15.73a3,3,0,0,0-5.1,0l-9.89,15.73-3.78,6-7.86,12.51a3,3,0,0,0,4,4.26L128,242.69l20.1,10.72a3.06,3.06,0,0,0,1.43.36,3,3,0,0,0,2.55-4.62Zm-22.62-12.51-.05,0a2.89,2.89,0,0,0-2.82,0l0,0-11.48,6.13,3.85-6.13,3.78-6,5.31-8.46,5.31,8.46,3.79,6,3.84,6.11Z" style="fill:#661ff4;stroke:#661ff4;stroke-linecap:round;stroke-linejoin:round;stroke-width:2px"/></svg>