<svg id="Layer_1" data-name="Layer 1" xmlns="http://www.w3.org/2000/svg" viewBox="0 0 256 256"><path d="M132,252.46a21.25,21.25,0,1,1,21.24-21.25A21.27,21.27,0,0,1,132,252.46Zm0-35.18a13.93,13.93,0,1,0,13.92,13.93A13.95,13.95,0,0,0,132,217.28Z" style="fill:#661ff4"/><path d="M84.51,247.6a16.39,16.39,0,1,1,16.39-16.39A16.4,16.4,0,0,1,84.51,247.6Zm0-25.46a9.07,9.07,0,1,0,9.07,9.07A9.07,9.07,0,0,0,84.51,222.14Z" style="fill:#661ff4"/><path d="M179.52,247.6a16.39,16.39,0,1,1,16.39-16.39A16.4,16.4,0,0,1,179.52,247.6Zm0-25.46a9.07,9.07,0,1,0,9.07,9.07A9.07,9.07,0,0,0,179.52,222.14Z" style="fill:#661ff4"/><path d="M229.6,205.66H33.87A3.66,3.66,0,0,1,30.21,202V6.27a3.66,3.66,0,0,1,3.66-3.66H229.6a3.65,3.65,0,0,1,3.66,3.66V202A3.66,3.66,0,0,1,229.6,205.66ZM37.53,198.34H226V9.93H37.53Z" style="fill:#661ff4"/><path d="M132,129.88A25.94,25.94,0,1,1,158,104,26,26,0,0,1,132,129.88Zm0-44a18,18,0,1,0,18,18A18.05,18.05,0,0,0,132,85.91Z" style="fill:#661ff4"/><path d="M163.78,157.45H100.25A24.53,24.53,0,0,1,75.75,133v-58a24.52,24.52,0,0,1,24.5-24.49h63.53a24.52,24.52,0,0,1,24.5,24.49v58A24.53,24.53,0,0,1,163.78,157.45ZM100.25,58.5A16.47,16.47,0,0,0,83.8,74.94v58a16.47,16.47,0,0,0,16.45,16.45h63.53A16.47,16.47,0,0,0,180.23,133v-58A16.47,16.47,0,0,0,163.78,58.5Z" style="fill:#661ff4"/></svg>