<svg id="Layer_1" data-name="Layer 1" xmlns="http://www.w3.org/2000/svg" viewBox="0 0 256 256"><path d="M156.91,74.07c-.2-.55-.43-1.1-.67-1.64h-3.61c.27.53.52,1.09.74,1.64s.44,1.09.63,1.64h3.45C157.29,75.16,157.1,74.61,156.91,74.07Zm94.65-1.64H241.37v3.28h8.55V186.12H151.17c-.36.57-.74,1.11-1.15,1.64s-.87,1.11-1.34,1.64H251.56a1.63,1.63,0,0,0,1.64-1.64V74.07A1.64,1.64,0,0,0,251.56,72.43Z" style="fill:#661ff4"/><path d="M251.56,190.22H148.68a.83.83,0,0,1-.75-.48.85.85,0,0,1,.13-.89c.51-.56.93-1.08,1.3-1.57s.76-1,1.12-1.6a.81.81,0,0,1,.69-.38h97.92V76.53h-7.72a.82.82,0,0,1-.82-.82V72.43a.82.82,0,0,1,.82-.82h10.19A2.46,2.46,0,0,1,254,74.07V187.76A2.46,2.46,0,0,1,251.56,190.22Zm-101.12-1.64H251.56a.82.82,0,0,0,.82-.82V74.07a.82.82,0,0,0-.82-.82H242.2v1.64h7.72a.82.82,0,0,1,.82.82V186.12a.82.82,0,0,1-.82.82h-98.3c-.31.46-.62.9-1,1.33Zm7-112H154a.83.83,0,0,1-.78-.55c-.2-.6-.4-1.11-.6-1.58s-.45-1.05-.73-1.6a.82.82,0,0,1,.74-1.19h3.62a.82.82,0,0,1,.75.49c.26.59.48,1.14.68,1.69h0c.17.5.38,1.09.55,1.69a.82.82,0,0,1-.79,1Zm-2.87-1.64h1.74q-.09-.28-.18-.54c-.14-.37-.28-.73-.44-1.1h-1.78l.22.52C154.28,74.11,154.43,74.48,154.58,74.89Z" style="fill:#661ff4"/><path d="M129.33,78.58a9.52,9.52,0,0,0-1.64-1.89V91.34a9.52,9.52,0,0,0,1.64-1.89,9.88,9.88,0,0,0,0-10.87ZM243,61.08H141.91a24.81,24.81,0,0,1,2.52,1.65,24.39,24.39,0,0,1,2,1.63h94.92V174.77H155.26c-.07.55-.15,1.1-.25,1.64s-.21,1.1-.35,1.64H243a1.63,1.63,0,0,0,1.63-1.64V62.73A1.63,1.63,0,0,0,243,61.08Z" style="fill:#661ff4"/><path d="M243,178.87H154.66a.8.8,0,0,1-.65-.31.83.83,0,0,1-.15-.71c.13-.51.24-1,.34-1.59s.18-1,.24-1.59a.82.82,0,0,1,.82-.72h85.29V65.18h-94.1a.81.81,0,0,1-.55-.21c-.64-.57-1.29-1.1-2-1.58a27.14,27.14,0,0,0-2.45-1.6.82.82,0,0,1,.41-1.53H243a2.47,2.47,0,0,1,2.46,2.47V176.41A2.46,2.46,0,0,1,243,178.87Zm-87.33-1.64H243a.82.82,0,0,0,.81-.82V62.73a.82.82,0,0,0-.81-.83H144.7l.22.16c.62.45,1.24.95,1.84,1.48h94.61a.83.83,0,0,1,.83.82V174.77a.83.83,0,0,1-.83.82H156c0,.33-.1.65-.16,1S155.74,177,155.69,177.23Zm-28-85.07a.83.83,0,0,1-.34-.07.84.84,0,0,1-.48-.75V76.69a.82.82,0,0,1,1.37-.61,10.44,10.44,0,0,1,1.77,2,10.62,10.62,0,0,1,0,11.77,9.72,9.72,0,0,1-1.78,2A.78.78,0,0,1,127.69,92.16Zm.82-13.31V89.18a1.27,1.27,0,0,0,.13-.19,9,9,0,0,0,0-9.95h0Z" style="fill:#661ff4"/><path d="M205.21,105.14,190.7,123.57l-8.17-10.42-15,20.85h48.38Zm-22.63,10.74,6.82,8.7a1.65,1.65,0,0,0,2.59,0l12.7-16.14,8.84,23.91H170.71Z" style="fill:#661ff4;stroke:#661ff4;stroke-linecap:round;stroke-linejoin:round;stroke-width:2px"/><path d="M217.43,133.43l-10.68-28.86a1.62,1.62,0,0,0-1.28-1,1.66,1.66,0,0,0-1.55.6L190.7,120.91l-6.88-8.77a1.55,1.55,0,0,0-1.32-.64,1.64,1.64,0,0,0-1.3.68l-15,20.86a1.63,1.63,0,0,0-.13,1.7,1.65,1.65,0,0,0,1.46.9h48.38a1.65,1.65,0,0,0,1.54-2.21Zm-46.72-1.07,11.87-16.48,6.82,8.7a1.65,1.65,0,0,0,2.59,0l12.7-16.14,8.84,23.91Z" style="fill:#661ff4;stroke:#661ff4;stroke-linecap:round;stroke-linejoin:round;stroke-width:2px"/><path d="M157.45,75.71H154a26.44,26.44,0,0,1,1.44,8.66v87.26a29.58,29.58,0,0,1-.18,3.14h3.3c.1-1,.16-2.08.16-3.14V84.37A29.89,29.89,0,0,0,157.45,75.71Zm0,0H154a26.44,26.44,0,0,1,1.44,8.66v87.26a29.58,29.58,0,0,1-.18,3.14h3.3c.1-1,.16-2.08.16-3.14V84.37A29.89,29.89,0,0,0,157.45,75.71Zm0,0H154a26.44,26.44,0,0,1,1.44,8.66v87.26a29.58,29.58,0,0,1-.18,3.14h3.3c.1-1,.16-2.08.16-3.14V84.37A29.89,29.89,0,0,0,157.45,75.71Zm0,0H154a26.44,26.44,0,0,1,1.44,8.66v87.26a29.58,29.58,0,0,1-.18,3.14h3.3c.1-1,.16-2.08.16-3.14V84.37A29.89,29.89,0,0,0,157.45,75.71Zm0,0H154a26.44,26.44,0,0,1,1.44,8.66v87.26a29.58,29.58,0,0,1-.18,3.14h3.3c.1-1,.16-2.08.16-3.14V84.37A29.89,29.89,0,0,0,157.45,75.71Zm0,0c-.16-.55-.35-1.1-.54-1.64s-.43-1.1-.67-1.64a29.77,29.77,0,0,0-5.16-8.07,22.13,22.13,0,0,0-1.58-1.63c-.59-.58-1.2-1.13-1.84-1.65a29.92,29.92,0,0,0-19-6.8H33.31A30.11,30.11,0,0,0,3.23,84.37v87.26a30.11,30.11,0,0,0,30.08,30.09h95.32A30.06,30.06,0,0,0,152.9,189.4c.39-.53.76-1.08,1.12-1.64s.67-1.08,1-1.64a29.61,29.61,0,0,0,3-8.07c.12-.54.22-1.09.31-1.64s.16-1.09.22-1.64c.1-1,.16-2.08.16-3.14V84.37A29.89,29.89,0,0,0,157.45,75.71ZM155,176.41c-.1.56-.21,1.1-.35,1.64a26.59,26.59,0,0,1-3.49,8.07c-.36.57-.74,1.11-1.15,1.64s-.87,1.11-1.34,1.64a26.74,26.74,0,0,1-20.05,9H33.31a26.83,26.83,0,0,1-26.8-26.81V84.37a26.83,26.83,0,0,1,26.8-26.81h95.32a26.68,26.68,0,0,1,13.28,3.52,24.81,24.81,0,0,1,2.52,1.65,24.39,24.39,0,0,1,2,1.63,26.73,26.73,0,0,1,6.18,8.07c.27.53.52,1.09.74,1.64s.44,1.09.63,1.64a26.44,26.44,0,0,1,1.44,8.66v87.26a29.58,29.58,0,0,1-.18,3.14C155.19,175.32,155.11,175.87,155,176.41Zm2.44-100.7H154a26.44,26.44,0,0,1,1.44,8.66v87.26a29.58,29.58,0,0,1-.18,3.14h3.3c.1-1,.16-2.08.16-3.14V84.37A29.89,29.89,0,0,0,157.45,75.71Zm0,0H154a26.44,26.44,0,0,1,1.44,8.66v87.26a29.58,29.58,0,0,1-.18,3.14h3.3c.1-1,.16-2.08.16-3.14V84.37A29.89,29.89,0,0,0,157.45,75.71Zm0,0H154a26.44,26.44,0,0,1,1.44,8.66v87.26a29.58,29.58,0,0,1-.18,3.14h3.3c.1-1,.16-2.08.16-3.14V84.37A29.89,29.89,0,0,0,157.45,75.71Zm0,0H154a26.44,26.44,0,0,1,1.44,8.66v87.26a29.58,29.58,0,0,1-.18,3.14h3.3c.1-1,.16-2.08.16-3.14V84.37A29.89,29.89,0,0,0,157.45,75.71Zm0,0H154a26.44,26.44,0,0,1,1.44,8.66v87.26a29.58,29.58,0,0,1-.18,3.14h3.3c.1-1,.16-2.08.16-3.14V84.37A29.89,29.89,0,0,0,157.45,75.71Z" style="fill:#661ff4"/><path d="M128.63,202.54H33.31A30.94,30.94,0,0,1,2.4,171.63V84.37A30.94,30.94,0,0,1,33.31,53.46h95.32a30.91,30.91,0,0,1,19.55,7c.61.5,1.23,1.05,1.89,1.7.53.49,1.08,1.06,1.63,1.68A30.68,30.68,0,0,1,157,72.1c.26.59.48,1.14.68,1.69s.39,1.1.56,1.69a31,31,0,0,1,1.3,8.89v87.26a29.33,29.33,0,0,1-.17,3.22h0c-.06.57-.12,1.12-.22,1.68s-.19,1.13-.32,1.69a30,30,0,0,1-3.12,8.29c-.29.53-.61,1.09-1,1.68s-.78,1.17-1.16,1.69A31,31,0,0,1,128.63,202.54ZM33.31,55.1A29.3,29.3,0,0,0,4.05,84.37v87.26A29.3,29.3,0,0,0,33.31,200.9h95.32a29.36,29.36,0,0,0,23.6-12c.37-.48.72-1,1.1-1.59s.66-1.08.94-1.59a29.08,29.08,0,0,0,3-7.85c.12-.54.21-1.07.3-1.61,0-.22.07-.45.1-.68H156c0,.33-.1.65-.16,1-.11.6-.22,1.16-.37,1.71a27.14,27.14,0,0,1-3.59,8.31c-.38.59-.77,1.15-1.19,1.7s-.84,1.07-1.38,1.68a27.61,27.61,0,0,1-20.66,9.31H33.31A27.65,27.65,0,0,1,5.69,171.63V84.37A27.65,27.65,0,0,1,33.31,56.74h95.32a27.62,27.62,0,0,1,13.69,3.63,25.17,25.17,0,0,1,2.6,1.69A26.55,26.55,0,0,1,147,63.75a27.54,27.54,0,0,1,6.36,8.31q.45.89.78,1.71c.14.34.29.71.44,1.12h1.74q-.09-.28-.18-.54c-.2-.53-.42-1.06-.65-1.59a28.78,28.78,0,0,0-5-7.85c-.52-.58-1-1.12-1.53-1.59s-1.22-1.14-1.8-1.6a29.23,29.23,0,0,0-18.51-6.62Zm0,3.28a26,26,0,0,0-26,26v87.26a26,26,0,0,0,26,26h95.32a26,26,0,0,0,19.43-8.76c.51-.57.93-1.09,1.3-1.58s.76-1,1.12-1.6a25.77,25.77,0,0,0,3.38-7.82c.13-.52.24-1,.34-1.6h0c.1-.52.18-1,.24-1.58.11-1,.17-2,.18-3V84.37a25.6,25.6,0,0,0-1.4-8.39c-.2-.6-.4-1.11-.6-1.58s-.45-1.05-.73-1.6a25.79,25.79,0,0,0-6-7.82,23.42,23.42,0,0,0-2-1.59,27.14,27.14,0,0,0-2.45-1.6,26,26,0,0,0-12.87-3.41ZM156.16,174h1.64c.06-.7.09-1.4.1-2.09V84.37a29.13,29.13,0,0,0-1.07-7.84h-1.7a27.45,27.45,0,0,1,1.13,7.39v87.71C156.26,172.38,156.23,173.16,156.16,174Z" style="fill:#661ff4"/><path d="M81,91.68A36.32,36.32,0,1,0,117.3,128,36.36,36.36,0,0,0,81,91.68ZM81,161a33,33,0,1,1,33-33A33.08,33.08,0,0,1,81,161Z" style="fill:#661ff4;stroke:#661ff4;stroke-linecap:round;stroke-linejoin:round;stroke-width:2px"/><path d="M81,107.83A20.17,20.17,0,1,0,101.14,128,20.17,20.17,0,0,0,81,107.83Zm0,38.7A18.53,18.53,0,1,1,99.5,128,18.55,18.55,0,0,1,81,146.53Z" style="fill:#661ff4;stroke:#661ff4;stroke-linecap:round;stroke-linejoin:round;stroke-width:2px"/><path d="M81,106.19A21.81,21.81,0,1,0,102.78,128,21.84,21.84,0,0,0,81,106.19Zm0,40.34A18.53,18.53,0,1,1,99.5,128,18.55,18.55,0,0,1,81,146.53Z" style="fill:#661ff4;stroke:#661ff4;stroke-linecap:round;stroke-linejoin:round;stroke-width:2px"/><path d="M129.33,78.58a9.52,9.52,0,0,0-1.64-1.89,9.86,9.86,0,1,0,0,14.65,9.52,9.52,0,0,0,1.64-1.89,9.88,9.88,0,0,0,0-10.87Zm-8.21,12A6.57,6.57,0,1,1,127.69,84,6.57,6.57,0,0,1,121.12,90.59Z" style="fill:#661ff4;stroke:#661ff4;stroke-linecap:round;stroke-linejoin:round;stroke-width:2px"/></svg>