<svg id="Layer_1" data-name="Layer 1" xmlns="http://www.w3.org/2000/svg" viewBox="0 0 256 256"><path d="M151.39,124.51H4.07a1.64,1.64,0,0,1-1.64-1.65V33.4a1.64,1.64,0,0,1,1.64-1.65H151.39A1.65,1.65,0,0,1,153,33.4v89.46A1.65,1.65,0,0,1,151.39,124.51ZM5.72,121.22h144V35H5.72Z" style="fill:#661ff4"/><path d="M151.39,125.3H4.08a2.44,2.44,0,0,1-2.44-2.44V33.4A2.44,2.44,0,0,1,4.08,31H151.39a2.44,2.44,0,0,1,2.44,2.44v89.46A2.44,2.44,0,0,1,151.39,125.3ZM4.08,32.54a.85.85,0,0,0-.86.86v89.46a.85.85,0,0,0,.86.86H151.39a.85.85,0,0,0,.86-.86V33.4a.85.85,0,0,0-.86-.86ZM149.75,122H5.72a.8.8,0,0,1-.79-.79V35a.79.79,0,0,1,.79-.78h144a.78.78,0,0,1,.78.78v86.18A.79.79,0,0,1,149.75,122ZM6.51,120.43H149V35.83H6.51Z" style="fill:#661ff4"/><path d="M103.37,95.07H52.1a1.64,1.64,0,0,1-1.47-.89,1.67,1.67,0,0,1,.13-1.72l15.91-22.1A1.69,1.69,0,0,1,68,69.67a1.66,1.66,0,0,1,1.33.64l7.37,9.4L90.76,61.82a1.65,1.65,0,0,1,2.84.44l11.32,30.59a1.64,1.64,0,0,1-1.55,2.22ZM55.31,91.78H101L91.53,66.17,78,83.39a1.64,1.64,0,0,1-1.3.63h0a1.63,1.63,0,0,1-1.29-.63l-7.31-9.32Z" style="fill:#661ff4"/><path d="M103.37,95.86H52.09a2.44,2.44,0,0,1-2-3.86L66,69.9a2.44,2.44,0,0,1,1.93-1,2.41,2.41,0,0,1,2,.93l6.75,8.61,13.46-17.1a2.44,2.44,0,0,1,2.3-.9A2.4,2.4,0,0,1,94.34,62l11.32,30.59a2.44,2.44,0,0,1-2.29,3.28ZM68,70.46h0a.88.88,0,0,0-.69.36L51.4,92.92a.86.86,0,0,0,.69,1.37h51.28a.86.86,0,0,0,.81-1.16L92.86,62.54a.83.83,0,0,0-.67-.55.87.87,0,0,0-.81.31L77.3,80.19a.8.8,0,0,1-.62.31h0a.82.82,0,0,1-.62-.31l-7.37-9.4A.89.89,0,0,0,68,70.46Zm33,22.11H55.31a.79.79,0,0,1-.64-1.25L67.43,73.6a.75.75,0,0,1,.62-.32.77.77,0,0,1,.64.3L76,82.9a.89.89,0,0,0,1.35,0L90.91,65.68a.77.77,0,0,1,.75-.29.76.76,0,0,1,.61.5l9.48,25.61a.8.8,0,0,1-.74,1.07ZM56.85,91h43L91.28,67.76,78.59,83.88a2.44,2.44,0,0,1-3.83,0l-6.67-8.5Z" style="fill:#661ff4"/><path d="M250.91,124.51H161.44a1.65,1.65,0,0,1-1.65-1.65V33.4a1.65,1.65,0,0,1,1.65-1.65h89.47a1.65,1.65,0,0,1,1.65,1.65v89.46A1.65,1.65,0,0,1,250.91,124.51Zm-87.82-3.29h86.17V35H163.09Z" style="fill:#661ff4"/><path d="M250.91,125.3H161.44a2.43,2.43,0,0,1-2.43-2.44V33.4A2.43,2.43,0,0,1,161.44,31h89.47a2.44,2.44,0,0,1,2.44,2.44v89.46A2.44,2.44,0,0,1,250.91,125.3ZM161.44,32.54a.86.86,0,0,0-.86.86v89.46a.86.86,0,0,0,.86.86h89.47a.86.86,0,0,0,.86-.86V33.4a.86.86,0,0,0-.86-.86ZM249.26,122H163.09a.8.8,0,0,1-.79-.79V35a.79.79,0,0,1,.79-.78h86.17a.78.78,0,0,1,.79.78v86.18A.79.79,0,0,1,249.26,122Zm-85.38-1.58h84.59V35.83H163.88Z" style="fill:#661ff4"/><path d="M231.82,95.07H180.54a1.64,1.64,0,0,1-1.47-.89,1.67,1.67,0,0,1,.13-1.72l15.91-22.1a1.7,1.7,0,0,1,1.31-.69,1.63,1.63,0,0,1,1.33.64l7.37,9.4,14.09-17.89a1.61,1.61,0,0,1,1.55-.61,1.64,1.64,0,0,1,1.29,1l11.31,30.59a1.64,1.64,0,0,1-1.54,2.22Zm-48.06-3.29h45.69L220,66.17,206.41,83.39a1.63,1.63,0,0,1-1.29.63h0a1.63,1.63,0,0,1-1.29-.63l-7.31-9.32Z" style="fill:#661ff4"/><path d="M231.82,95.86H180.54a2.44,2.44,0,0,1-2-3.86l15.91-22.1a2.44,2.44,0,0,1,1.93-1,2.34,2.34,0,0,1,2,.93l6.75,8.61,13.46-17.1a2.45,2.45,0,0,1,4.21.66L234.1,92.58a2.43,2.43,0,0,1-2.28,3.28Zm-35.35-25.4h0a.9.9,0,0,0-.69.36l-15.91,22.1a.86.86,0,0,0,.7,1.37h51.28a.86.86,0,0,0,.8-1.16L221.31,62.54a.86.86,0,0,0-1.48-.24L205.74,80.19a.8.8,0,0,1-.62.31h0a.83.83,0,0,1-.62-.31l-7.37-9.4A.85.85,0,0,0,196.47,70.46Zm33,22.11H183.76a.81.81,0,0,1-.71-.43.78.78,0,0,1,.07-.82L195.87,73.6a.75.75,0,0,1,.62-.32.78.78,0,0,1,.64.3l7.31,9.32a.89.89,0,0,0,1.35,0l13.57-17.23a.78.78,0,0,1,1.35.21l9.48,25.61a.82.82,0,0,1-.09.73A.8.8,0,0,1,229.45,92.57ZM185.3,91h43l-8.6-23.23L207,83.88a2.44,2.44,0,0,1-3.83,0l-6.66-8.5Z" style="fill:#661ff4"/><path d="M250.91,224.25H103.59a1.65,1.65,0,0,1-1.65-1.65V133.13a1.64,1.64,0,0,1,1.65-1.64H250.91a1.64,1.64,0,0,1,1.65,1.64V222.6A1.65,1.65,0,0,1,250.91,224.25ZM105.24,221h144V134.78h-144Z" style="fill:#661ff4"/><path d="M250.91,225H103.59a2.44,2.44,0,0,1-2.44-2.44V133.13a2.44,2.44,0,0,1,2.44-2.43H250.91a2.44,2.44,0,0,1,2.44,2.43V222.6A2.44,2.44,0,0,1,250.91,225ZM103.59,132.28a.86.86,0,0,0-.86.85V222.6a.86.86,0,0,0,.86.86H250.91a.86.86,0,0,0,.86-.86V133.13a.86.86,0,0,0-.86-.85Zm145.67,89.46h-144a.78.78,0,0,1-.79-.78V134.78a.79.79,0,0,1,.79-.79h144a.79.79,0,0,1,.79.79V221A.78.78,0,0,1,249.26,221.74ZM106,220.17H248.47v-84.6H106Z" style="fill:#661ff4"/><path d="M93.54,224.25H4.07a1.64,1.64,0,0,1-1.64-1.65V133.13a1.63,1.63,0,0,1,1.64-1.64H93.54a1.64,1.64,0,0,1,1.65,1.64V222.6A1.65,1.65,0,0,1,93.54,224.25ZM5.72,221H91.89V134.78H5.72Z" style="fill:#661ff4"/><path d="M93.54,225H4.08a2.44,2.44,0,0,1-2.44-2.44V133.13a2.43,2.43,0,0,1,2.44-2.43H93.54A2.43,2.43,0,0,1,96,133.13V222.6A2.44,2.44,0,0,1,93.54,225ZM4.08,132.28a.85.85,0,0,0-.86.85V222.6a.85.85,0,0,0,.86.86H93.54a.85.85,0,0,0,.86-.86V133.13a.85.85,0,0,0-.86-.85Zm87.81,89.46H5.72a.79.79,0,0,1-.79-.78V134.78a.8.8,0,0,1,.79-.79H91.89a.79.79,0,0,1,.79.79V221A.78.78,0,0,1,91.89,221.74ZM6.51,220.17h84.6v-84.6H6.51Z" style="fill:#661ff4"/><path d="M74.45,194.81H23.17a1.64,1.64,0,0,1-1.47-.89,1.67,1.67,0,0,1,.13-1.72l15.92-22.1a1.64,1.64,0,0,1,1.3-.69,1.61,1.61,0,0,1,1.33.63l7.37,9.41,14.09-17.9a1.66,1.66,0,0,1,2.84.45L76,192.59a1.64,1.64,0,0,1-1.54,2.22Zm-48.06-3.29H72.08L62.61,165.9,49,183.13a1.63,1.63,0,0,1-1.29.63h0a1.64,1.64,0,0,1-1.3-.63l-7.31-9.33Z" style="fill:#661ff4"/><path d="M74.45,195.6H23.17a2.44,2.44,0,0,1-2-3.86l15.92-22.1a2.41,2.41,0,0,1,1.92-1,2.3,2.3,0,0,1,2,.93l6.75,8.61,13.47-17.1a2.41,2.41,0,0,1,2.29-.9,2.43,2.43,0,0,1,1.91,1.56l11.31,30.59a2.43,2.43,0,0,1-2.28,3.28Zm-35.3-25.4h0a.91.91,0,0,0-.73.36l-15.91,22.1a.85.85,0,0,0,.7,1.36H74.45a.84.84,0,0,0,.7-.36.86.86,0,0,0,.1-.79L63.94,162.28a.87.87,0,0,0-.67-.56.89.89,0,0,0-.81.32L48.37,179.93a.79.79,0,0,1-.62.3h0a.79.79,0,0,1-.62-.3l-7.37-9.4A.79.79,0,0,0,39.15,170.2Zm32.93,22.11H26.39a.78.78,0,0,1-.7-.43.76.76,0,0,1,.06-.82L38.5,173.34a.77.77,0,0,1,.62-.32.73.73,0,0,1,.64.3l7.31,9.32a.89.89,0,0,0,1.35,0L62,165.42a.76.76,0,0,1,.74-.29.78.78,0,0,1,.62.5l9.47,25.61a.79.79,0,0,1-.09.73A.8.8,0,0,1,72.08,192.31Zm-44.15-1.58H71L62.36,167.5l-12.7,16.12a2.44,2.44,0,0,1-3.83,0l-6.66-8.5Z" style="fill:#661ff4"/><path d="M202.89,194.81H151.61a1.65,1.65,0,0,1-1.34-2.61l15.92-22.1a1.64,1.64,0,0,1,1.3-.69,1.6,1.6,0,0,1,1.33.63l7.37,9.41,14.09-17.9a1.66,1.66,0,0,1,2.84.45l11.32,30.59a1.68,1.68,0,0,1-.2,1.52A1.65,1.65,0,0,1,202.89,194.81Zm-48.06-3.29h45.69l-9.47-25.62-13.56,17.23a1.65,1.65,0,0,1-1.3.63h0a1.65,1.65,0,0,1-1.3-.63l-7.31-9.33Z" style="fill:#661ff4"/><path d="M202.89,195.6H151.61a2.44,2.44,0,0,1-2-3.86l15.92-22.1a2.43,2.43,0,0,1,1.93-1,2.26,2.26,0,0,1,2,.93l6.75,8.61,13.47-17.1a2.44,2.44,0,0,1,4.2.66l11.32,30.59a2.44,2.44,0,0,1-2.29,3.28Zm-35.3-25.4h0a.89.89,0,0,0-.72.36l-15.92,22.1a.88.88,0,0,0-.06.9.85.85,0,0,0,.76.46h51.28a.85.85,0,0,0,.71-.37.87.87,0,0,0,.1-.78l-11.32-30.59a.85.85,0,0,0-.67-.56.86.86,0,0,0-.81.32l-14.09,17.89a.78.78,0,0,1-.62.3h0a.79.79,0,0,1-.62-.3l-7.37-9.4A.81.81,0,0,0,167.59,170.2Zm32.93,22.11H154.83a.79.79,0,0,1-.64-1.25l12.75-17.72a.79.79,0,0,1,.63-.32.75.75,0,0,1,.63.3l7.31,9.32a.9.9,0,0,0,1.36,0l13.56-17.23a.76.76,0,0,1,.74-.29.78.78,0,0,1,.62.5l9.47,25.61a.79.79,0,0,1-.09.73A.8.8,0,0,1,200.52,192.31Zm-44.15-1.58h43L190.8,167.5l-12.69,16.12a2.45,2.45,0,0,1-3.84,0l-6.66-8.5Z" style="fill:#661ff4"/></svg>