<svg id="Layer_1" data-name="Layer 1" xmlns="http://www.w3.org/2000/svg" viewBox="0 0 256 256"><path d="M128.28,253.38a21.25,21.25,0,1,1,21.25-21.25A21.28,21.28,0,0,1,128.28,253.38Zm0-35.18a13.93,13.93,0,1,0,13.93,13.93A13.95,13.95,0,0,0,128.28,218.2Z" style="fill:#661ff4"/><path d="M80.77,248.52a16.39,16.39,0,1,1,16.39-16.39A16.4,16.4,0,0,1,80.77,248.52Zm0-25.45a9.07,9.07,0,1,0,9.07,9.06A9.06,9.06,0,0,0,80.77,223.07Z" style="fill:#661ff4"/><path d="M175.79,248.52a16.39,16.39,0,1,1,16.38-16.39A16.41,16.41,0,0,1,175.79,248.52Zm0-25.45a9.07,9.07,0,1,0,9.06,9.06A9.07,9.07,0,0,0,175.79,223.07Z" style="fill:#661ff4"/><path d="M225.87,206.58H30.13a3.66,3.66,0,0,1-3.66-3.66V7.19a3.66,3.66,0,0,1,3.66-3.66H225.87a3.66,3.66,0,0,1,3.66,3.66V202.92A3.66,3.66,0,0,1,225.87,206.58ZM33.79,199.26H222.21V10.85H33.79Z" style="fill:#661ff4"/><path d="M128,149.08a44,44,0,1,1,44-44A44.08,44.08,0,0,1,128,149.08Zm0-80.73a36.71,36.71,0,1,0,36.7,36.7A36.74,36.74,0,0,0,128,68.35Z" style="fill:#661ff4"/><path d="M128,129.08a24,24,0,1,1,24-24A24.06,24.06,0,0,1,128,129.08Zm0-40.73a16.71,16.71,0,1,0,16.71,16.7A16.73,16.73,0,0,0,128,88.35Z" style="fill:#661ff4"/></svg>