<svg id="Layer_1" data-name="Layer 1" xmlns="http://www.w3.org/2000/svg" viewBox="0 0 256 256"><path d="M120.09,250.63H4.63a2.08,2.08,0,0,1-2.09-2.08V177.17a2.09,2.09,0,0,1,2.09-2.09H120.09a2.09,2.09,0,0,1,2.09,2.09v71.38A2.08,2.08,0,0,1,120.09,250.63ZM6.71,246.46H118v-67.2H6.71Z" style="fill:#661ff4"/><path d="M120.09,251.54H4.63a3,3,0,0,1-3-3V177.17a3,3,0,0,1,3-3H120.09a3,3,0,0,1,3,3v71.38A3,3,0,0,1,120.09,251.54ZM4.63,176a1.18,1.18,0,0,0-1.19,1.18v71.38a1.18,1.18,0,0,0,1.19,1.18H120.09a1.18,1.18,0,0,0,1.19-1.18V177.17a1.18,1.18,0,0,0-1.19-1.18ZM118,247.36H6.71a.9.9,0,0,1-.9-.9v-67.2a.9.9,0,0,1,.9-.9H118a.9.9,0,0,1,.91.9v67.2A.9.9,0,0,1,118,247.36ZM7.62,245.55H117.1V180.16H7.62Z" style="fill:#661ff4"/><path d="M120.09,162.72H4.63a2.08,2.08,0,0,1-2.09-2.09V9.1A2.09,2.09,0,0,1,4.63,7H120.09a2.09,2.09,0,0,1,2.09,2.09V160.63A2.08,2.08,0,0,1,120.09,162.72ZM6.71,158.54H118V11.19H6.71Z" style="fill:#661ff4"/><path d="M120.09,163.63H4.63a3,3,0,0,1-3-3V9.1a3,3,0,0,1,3-3H120.09a3,3,0,0,1,3,3V160.63A3,3,0,0,1,120.09,163.63ZM4.63,7.92A1.18,1.18,0,0,0,3.44,9.1V160.63a1.19,1.19,0,0,0,1.19,1.19H120.09a1.19,1.19,0,0,0,1.19-1.19V9.1a1.18,1.18,0,0,0-1.19-1.18ZM118,159.45H6.71a.9.9,0,0,1-.9-.91V11.19a.9.9,0,0,1,.9-.9H118a.9.9,0,0,1,.91.9V158.54A.91.91,0,0,1,118,159.45ZM7.62,157.64H117.1V12.09H7.62Z" style="fill:#661ff4"/><path d="M253,250.63H137.54a2.09,2.09,0,0,1-2.09-2.08V97a2.09,2.09,0,0,1,2.09-2.09H253A2.09,2.09,0,0,1,255.1,97V248.55A2.09,2.09,0,0,1,253,250.63Zm-113.38-4.17H250.92V99.1H139.63Z" style="fill:#661ff4"/><path d="M253,251.54H137.54a3,3,0,0,1-3-3V97a3,3,0,0,1,3-3H253a3,3,0,0,1,3,3V248.55A3,3,0,0,1,253,251.54ZM137.54,95.83A1.19,1.19,0,0,0,136.35,97V248.55a1.19,1.19,0,0,0,1.19,1.18H253a1.18,1.18,0,0,0,1.18-1.18V97A1.18,1.18,0,0,0,253,95.83ZM250.92,247.36H139.63a.9.9,0,0,1-.91-.9V99.1a.91.91,0,0,1,.91-.9H250.92a.9.9,0,0,1,.9.9V246.46A.9.9,0,0,1,250.92,247.36Zm-110.39-1.81H250V100H140.53Z" style="fill:#661ff4"/><path d="M84.43,106.92H40.29a2.09,2.09,0,0,1-1.7-3.31l13.7-19A2.08,2.08,0,0,1,54,83.72a2,2,0,0,1,1.68.8l5.82,7.42,11.6-14.73a2.07,2.07,0,0,1,2-.77,2.11,2.11,0,0,1,1.64,1.34l9.74,26.33a2.09,2.09,0,0,1-2,2.81Zm-40.06-4.18H81.43L74,82.73,63.09,96.61a2.07,2.07,0,0,1-1.64.8h0a2.11,2.11,0,0,1-1.64-.8l-5.74-7.33Z" style="fill:#661ff4"/><path d="M84.43,107.83H40.29a3,3,0,0,1-2.43-4.75l13.7-19a3,3,0,0,1,2.37-1.25A3,3,0,0,1,56.35,84l5.1,6.51L72.33,76.65a3,3,0,0,1,2.83-1.1,3,3,0,0,1,2.33,1.91l9.75,26.33a3,3,0,0,1-2.81,4ZM54,84.62H54a1.17,1.17,0,0,0-.95.5l-13.7,19a1.19,1.19,0,0,0,1,1.88H84.43a1.17,1.17,0,0,0,1-.51,1.21,1.21,0,0,0,.14-1.09L75.8,78.09a1.21,1.21,0,0,0-.93-.76,1.16,1.16,0,0,0-1.11.44L62.16,92.5a.89.89,0,0,1-.71.34h0a.92.92,0,0,1-.71-.34l-5.82-7.42A1.1,1.1,0,0,0,54,84.62Zm27.4,19H44.37a.9.9,0,0,1-.73-1.44l9.68-13.45a.94.94,0,0,1,.72-.38.88.88,0,0,1,.73.35l5.74,7.32a1.22,1.22,0,0,0,1.87,0L73.31,82.17a.9.9,0,0,1,.85-.34.89.89,0,0,1,.71.58l7.4,20a.88.88,0,0,1-.1.83A.92.92,0,0,1,81.43,103.65Zm-35.3-1.81h34l-6.4-17.29L63.8,97.17a3,3,0,0,1-4.71,0l-5-6.38Z" style="fill:#661ff4"/><path d="M253,83.77H137.54a2.09,2.09,0,0,1-2.09-2.08V10.31a2.1,2.1,0,0,1,2.09-2.09H253a2.1,2.1,0,0,1,2.09,2.09V81.69A2.09,2.09,0,0,1,253,83.77ZM139.63,79.6H250.92V12.4H139.63Z" style="fill:#661ff4"/><path d="M253,84.68H137.54a3,3,0,0,1-3-3V10.31a3,3,0,0,1,3-3H253a3,3,0,0,1,3,3V81.69A3,3,0,0,1,253,84.68ZM137.54,9.13a1.19,1.19,0,0,0-1.19,1.18V81.69a1.19,1.19,0,0,0,1.19,1.18H253a1.18,1.18,0,0,0,1.18-1.18V10.31A1.18,1.18,0,0,0,253,9.13ZM250.92,80.5H139.63a.9.9,0,0,1-.91-.9V12.4a.9.9,0,0,1,.91-.9H250.92a.9.9,0,0,1,.9.9V79.6A.9.9,0,0,1,250.92,80.5ZM140.53,78.69H250V13.3H140.53Z" style="fill:#661ff4"/><rect x="191.08" y="150.76" width="8.39" height="44.04" style="fill:#661ff4"/><rect x="191.08" y="150.76" width="8.39" height="44.04" transform="translate(368.05 -22.49) rotate(90)" style="fill:#661ff4"/></svg>