<svg id="Layer_1" data-name="Layer 1" xmlns="http://www.w3.org/2000/svg" viewBox="0 0 256 256"><path d="M122,123.1H5.08a2.39,2.39,0,0,1-2.39-2.39V7.54A2.39,2.39,0,0,1,5.08,5.15H122a2.39,2.39,0,0,1,2.39,2.39V120.71A2.39,2.39,0,0,1,122,123.1ZM7.47,118.31H119.59V9.93H7.47Z" style="fill:#661ff4"/><path d="M122,124.1H5.08a3.39,3.39,0,0,1-3.39-3.39V7.54A3.39,3.39,0,0,1,5.08,4.15H122a3.39,3.39,0,0,1,3.39,3.39V120.71A3.39,3.39,0,0,1,122,124.1ZM5.08,6.15A1.39,1.39,0,0,0,3.69,7.54V120.71a1.39,1.39,0,0,0,1.39,1.39H122a1.39,1.39,0,0,0,1.39-1.39V7.54A1.39,1.39,0,0,0,122,6.15ZM119.59,119.31H7.47a1,1,0,0,1-1-1V9.93a1,1,0,0,1,1-1H119.59a1,1,0,0,1,1,1V118.31A1,1,0,0,1,119.59,119.31Zm-111.12-2H118.59V10.93H8.47Z" style="fill:#661ff4"/><path d="M86,61.1H41.1a2.39,2.39,0,0,1-1.94-3.79L53.08,38a2.39,2.39,0,0,1,3.83-.08l5.7,7.27,11.58-14.7a2.38,2.38,0,0,1,4.12.65l9.9,26.77A2.39,2.39,0,0,1,86,61.1Zm-40.2-4.79H82.53L75.3,36.78,64.49,50.52a2.3,2.3,0,0,1-1.89.91,2.39,2.39,0,0,1-1.88-.92l-5.61-7.16Z" style="fill:#661ff4"/><path d="M86,62.1H41.1a3.4,3.4,0,0,1-2.76-5.38L52.27,37.38A3.41,3.41,0,0,1,55,36a3.45,3.45,0,0,1,2.74,1.3l4.91,6.27L73.4,29.84a3.39,3.39,0,0,1,5.85.92l9.9,26.77A3.38,3.38,0,0,1,86,62.1ZM55,38h0a1.43,1.43,0,0,0-1.11.58L40,57.89A1.39,1.39,0,0,0,41.1,60.1H86a1.38,1.38,0,0,0,1.14-.6,1.42,1.42,0,0,0,.17-1.28L77.37,31.46a1.39,1.39,0,0,0-2.4-.38L63.4,45.78a1,1,0,0,1-.79.38h0a1,1,0,0,1-.79-.38l-5.7-7.27A1.38,1.38,0,0,0,55,38ZM82.53,57.31H45.77A1,1,0,0,1,45,55.73l9.33-13a1,1,0,0,1,.79-.42,1,1,0,0,1,.81.38l5.62,7.17a1.36,1.36,0,0,0,1.09.53,1.3,1.3,0,0,0,1.1-.53L74.52,36.16a1,1,0,0,1,.94-.37,1,1,0,0,1,.78.64L83.47,56a1,1,0,0,1-.94,1.35Zm-34.8-2H81.09L75,38.8,65.27,51.14a3.27,3.27,0,0,1-2.73,1.29h0a3.37,3.37,0,0,1-2.61-1.3L55.14,45Z" style="fill:#661ff4"/><path d="M103.83,85.37H23.24a2.39,2.39,0,1,1,0-4.78h80.59a2.39,2.39,0,1,1,0,4.78Z" style="fill:#661ff4"/><path d="M103.83,86.37H23.24a3.39,3.39,0,1,1,0-6.78h80.59a3.39,3.39,0,1,1,0,6.78ZM23.24,81.59a1.39,1.39,0,1,0,0,2.78h80.59a1.39,1.39,0,1,0,0-2.78Z" style="fill:#661ff4"/><path d="M103.83,98.7H23.24a2.4,2.4,0,1,1,0-4.79h80.59a2.4,2.4,0,1,1,0,4.79Z" style="fill:#661ff4"/><path d="M103.83,99.7H23.24a3.4,3.4,0,1,1,0-6.79h80.59a3.4,3.4,0,1,1,0,6.79ZM23.24,94.91a1.4,1.4,0,1,0,0,2.79h80.59a1.4,1.4,0,1,0,0-2.79Z" style="fill:#661ff4"/><path d="M251.23,123.1H134.32a2.39,2.39,0,0,1-2.39-2.39V7.54a2.39,2.39,0,0,1,2.39-2.39H251.23a2.39,2.39,0,0,1,2.39,2.39V120.71A2.39,2.39,0,0,1,251.23,123.1Zm-114.52-4.79H248.83V9.93H136.71Z" style="fill:#661ff4"/><path d="M251.23,124.1H134.32a3.39,3.39,0,0,1-3.39-3.39V7.54a3.39,3.39,0,0,1,3.39-3.39H251.23a3.39,3.39,0,0,1,3.39,3.39V120.71A3.39,3.39,0,0,1,251.23,124.1ZM134.32,6.15a1.39,1.39,0,0,0-1.39,1.39V120.71a1.39,1.39,0,0,0,1.39,1.39H251.23a1.39,1.39,0,0,0,1.39-1.39V7.54a1.39,1.39,0,0,0-1.39-1.39ZM248.83,119.31H136.71a1,1,0,0,1-1-1V9.93a1,1,0,0,1,1-1H248.83a1,1,0,0,1,1,1V118.31A1,1,0,0,1,248.83,119.31Zm-111.12-2H247.83V10.93H137.71Z" style="fill:#661ff4"/><path d="M215.21,61.1H170.34a2.39,2.39,0,0,1-1.94-3.79L182.32,38a2.42,2.42,0,0,1,1.9-1,2.38,2.38,0,0,1,1.93.92l5.7,7.27,11.58-14.7a2.38,2.38,0,0,1,4.12.65l9.9,26.77a2.35,2.35,0,0,1-.28,2.19A2.38,2.38,0,0,1,215.21,61.1ZM175,56.31h36.76l-7.23-19.53L193.73,50.52a2.42,2.42,0,0,1-1.88.91h0a2.39,2.39,0,0,1-1.88-.92l-5.61-7.16Z" style="fill:#661ff4"/><path d="M215.21,62.1H170.34a3.4,3.4,0,0,1-2.76-5.38l13.93-19.34a3.4,3.4,0,0,1,5.43-.11l4.91,6.27,10.79-13.7a3.4,3.4,0,0,1,5.85.92l9.9,26.77a3.39,3.39,0,0,1-3.18,4.57ZM184.28,38h0a1.43,1.43,0,0,0-1.11.58L169.21,57.89a1.39,1.39,0,0,0,1.13,2.21h44.87a1.38,1.38,0,0,0,1.14-.6,1.42,1.42,0,0,0,.17-1.28l-9.91-26.76a1.39,1.39,0,0,0-2.4-.38l-11.57,14.7a1,1,0,0,1-.79.38h0a1,1,0,0,1-.79-.38l-5.7-7.27A1.38,1.38,0,0,0,184.28,38Zm27.49,19.34H175a1,1,0,0,1-.81-1.58l9.33-13a1,1,0,0,1,.79-.41,1,1,0,0,1,.81.38l5.62,7.17a1.44,1.44,0,0,0,2.19,0l10.82-13.74a1,1,0,0,1,.94-.37,1,1,0,0,1,.78.64L212.71,56a1,1,0,0,1-.94,1.35Zm-34.8-2h33.36L204.22,38.8l-9.71,12.34a3.4,3.4,0,0,1-5.34,0L184.38,45Z" style="fill:#661ff4"/><path d="M233.07,85.37H152.48a2.39,2.39,0,1,1,0-4.78h80.59a2.39,2.39,0,1,1,0,4.78Z" style="fill:#661ff4"/><path d="M233.07,86.37H152.48a3.39,3.39,0,1,1,0-6.78h80.59a3.39,3.39,0,1,1,0,6.78Zm-80.59-4.78a1.39,1.39,0,1,0,0,2.78h80.59a1.39,1.39,0,1,0,0-2.78Z" style="fill:#661ff4"/><path d="M233.07,98.7H152.48a2.4,2.4,0,1,1,0-4.79h80.59a2.4,2.4,0,1,1,0,4.79Z" style="fill:#661ff4"/><path d="M233.07,99.7H152.48a3.4,3.4,0,1,1,0-6.79h80.59a3.4,3.4,0,1,1,0,6.79Zm-80.59-4.79a1.4,1.4,0,1,0,0,2.79h80.59a1.4,1.4,0,1,0,0-2.79Z" style="fill:#661ff4"/><path d="M122,249.47H5.08a2.39,2.39,0,0,1-2.39-2.39V133.91a2.39,2.39,0,0,1,2.39-2.39H122a2.39,2.39,0,0,1,2.39,2.39V247.08A2.39,2.39,0,0,1,122,249.47ZM7.47,244.69H119.59V136.31H7.47Z" style="fill:#661ff4"/><path d="M122,250.48H5.08a3.4,3.4,0,0,1-3.39-3.4V133.91a3.39,3.39,0,0,1,3.39-3.39H122a3.39,3.39,0,0,1,3.39,3.39V247.08A3.4,3.4,0,0,1,122,250.48ZM5.08,132.52a1.39,1.39,0,0,0-1.39,1.39V247.08a1.39,1.39,0,0,0,1.39,1.39H122a1.39,1.39,0,0,0,1.39-1.39V133.91a1.39,1.39,0,0,0-1.39-1.39ZM119.59,245.69H7.47a1,1,0,0,1-1-1V136.31a1,1,0,0,1,1-1H119.59a1,1,0,0,1,1,1V244.69A1,1,0,0,1,119.59,245.69Zm-111.12-2H118.59V137.31H8.47Z" style="fill:#661ff4"/><path d="M86,187.47H41.1a2.39,2.39,0,0,1-1.94-3.79l13.92-19.34a2.42,2.42,0,0,1,1.9-1,2.33,2.33,0,0,1,1.93.92l5.7,7.27,11.58-14.7a2.39,2.39,0,0,1,4.12.65l9.9,26.77A2.39,2.39,0,0,1,86,187.47Zm-40.2-4.79H82.53L75.3,163.15,64.49,176.89a2.4,2.4,0,0,1-1.89.91h0a2.39,2.39,0,0,1-1.88-.92l-5.61-7.16Z" style="fill:#661ff4"/><path d="M86,188.47H41.1a3.4,3.4,0,0,1-2.76-5.38l13.93-19.34A3.43,3.43,0,0,1,55,162.34a3.32,3.32,0,0,1,2.75,1.3l4.91,6.27,10.79-13.7a3.4,3.4,0,0,1,5.85.92l9.9,26.77A3.38,3.38,0,0,1,86,188.47ZM55.11,164.34H55a1.45,1.45,0,0,0-1.15.58L40,184.26a1.39,1.39,0,0,0,1.13,2.21H86a1.38,1.38,0,0,0,1.14-.6,1.42,1.42,0,0,0,.17-1.28l-9.91-26.76a1.38,1.38,0,0,0-1.09-.9,1.41,1.41,0,0,0-1.31.52L63.4,172.15a1,1,0,0,1-.79.38h0a1,1,0,0,1-.79-.38l-5.7-7.27A1.31,1.31,0,0,0,55.11,164.34Zm27.42,19.34H45.77A1,1,0,0,1,45,182.1l9.33-13a1,1,0,0,1,.79-.42,1.06,1.06,0,0,1,.81.38l5.62,7.17a1.44,1.44,0,0,0,2.19,0l10.82-13.74a1,1,0,0,1,.94-.37,1,1,0,0,1,.78.64l7.23,19.54a1,1,0,0,1-.94,1.34Zm-34.8-2H81.09L75,165.17l-9.71,12.34a3.4,3.4,0,0,1-5.34,0l-4.79-6.11Z" style="fill:#661ff4"/><path d="M103.83,211.75H23.24a2.4,2.4,0,1,1,0-4.79h80.59a2.4,2.4,0,1,1,0,4.79Z" style="fill:#661ff4"/><path d="M103.83,212.75H23.24a3.4,3.4,0,1,1,0-6.79h80.59a3.4,3.4,0,1,1,0,6.79ZM23.24,208a1.4,1.4,0,1,0,0,2.79h80.59a1.4,1.4,0,1,0,0-2.79Z" style="fill:#661ff4"/><path d="M103.83,225.07H23.24a2.39,2.39,0,1,1,0-4.78h80.59a2.39,2.39,0,1,1,0,4.78Z" style="fill:#661ff4"/><path d="M103.83,226.08H23.24a3.4,3.4,0,1,1,0-6.79h80.59a3.4,3.4,0,1,1,0,6.79Zm-80.59-4.79a1.39,1.39,0,1,0,0,2.78h80.59a1.39,1.39,0,1,0,0-2.78Z" style="fill:#661ff4"/><path d="M251.23,249.47H134.32a2.39,2.39,0,0,1-2.39-2.39V133.91a2.39,2.39,0,0,1,2.39-2.39H251.23a2.39,2.39,0,0,1,2.39,2.39V247.08A2.39,2.39,0,0,1,251.23,249.47Zm-114.52-4.78H248.83V136.31H136.71Z" style="fill:#661ff4"/><path d="M251.23,250.48H134.32a3.4,3.4,0,0,1-3.39-3.4V133.91a3.39,3.39,0,0,1,3.39-3.39H251.23a3.39,3.39,0,0,1,3.39,3.39V247.08A3.4,3.4,0,0,1,251.23,250.48Zm-116.91-118a1.39,1.39,0,0,0-1.39,1.39V247.08a1.39,1.39,0,0,0,1.39,1.39H251.23a1.39,1.39,0,0,0,1.39-1.39V133.91a1.39,1.39,0,0,0-1.39-1.39ZM248.83,245.69H136.71a1,1,0,0,1-1-1V136.31a1,1,0,0,1,1-1H248.83a1,1,0,0,1,1,1V244.69A1,1,0,0,1,248.83,245.69Zm-111.12-2H247.83V137.31H137.71Z" style="fill:#661ff4"/><path d="M215.21,187.47H170.34a2.39,2.39,0,0,1-1.94-3.79l13.92-19.34a2.42,2.42,0,0,1,1.9-1,2.3,2.3,0,0,1,1.93.92l5.7,7.27,11.58-14.7a2.39,2.39,0,0,1,4.12.65l9.9,26.77a2.37,2.37,0,0,1-.28,2.2A2.39,2.39,0,0,1,215.21,187.47ZM175,182.68h36.76l-7.23-19.53-10.81,13.74a2.39,2.39,0,0,1-1.88.91h0a2.41,2.41,0,0,1-1.88-.91l-5.61-7.17Z" style="fill:#661ff4"/><path d="M215.21,188.47H170.34a3.4,3.4,0,0,1-2.76-5.38l13.93-19.34a3.43,3.43,0,0,1,2.68-1.41,3.28,3.28,0,0,1,2.74,1.3l4.92,6.27,10.79-13.7a3.4,3.4,0,0,1,5.85.92l9.9,26.77a3.39,3.39,0,0,1-3.18,4.57Zm-30.86-24.13h-.07a1.45,1.45,0,0,0-1.15.58l-13.92,19.34a1.39,1.39,0,0,0,1.13,2.21h44.87a1.38,1.38,0,0,0,1.14-.6,1.4,1.4,0,0,0,.17-1.27l-9.91-26.77a1.38,1.38,0,0,0-1.09-.9,1.41,1.41,0,0,0-1.31.52l-11.57,14.7a1,1,0,0,1-.79.38h0a1,1,0,0,1-.79-.38l-5.7-7.27A1.32,1.32,0,0,0,184.35,164.34Zm27.42,19.34H175a1,1,0,0,1-.81-1.58l9.33-13a1,1,0,0,1,.79-.42,1,1,0,0,1,.81.38l5.62,7.17a1.44,1.44,0,0,0,2.19,0l10.82-13.74a1,1,0,0,1,.94-.37,1,1,0,0,1,.78.64l7.23,19.54a1,1,0,0,1-.94,1.34Zm-34.8-2h33.36l-6.11-16.51-9.71,12.34a3.4,3.4,0,0,1-5.34,0l-4.79-6.11Z" style="fill:#661ff4"/><path d="M233.07,211.75H152.48a2.4,2.4,0,1,1,0-4.79h80.59a2.4,2.4,0,1,1,0,4.79Z" style="fill:#661ff4"/><path d="M233.07,212.75H152.48a3.4,3.4,0,1,1,0-6.79h80.59a3.4,3.4,0,1,1,0,6.79ZM152.48,208a1.4,1.4,0,1,0,0,2.79h80.59a1.4,1.4,0,1,0,0-2.79Z" style="fill:#661ff4"/><path d="M233.07,225.07H152.48a2.39,2.39,0,1,1,0-4.78h80.59a2.39,2.39,0,1,1,0,4.78Z" style="fill:#661ff4"/><path d="M233.07,226.08H152.48a3.4,3.4,0,1,1,0-6.79h80.59a3.4,3.4,0,1,1,0,6.79Zm-80.59-4.79a1.39,1.39,0,1,0,0,2.78h80.59a1.39,1.39,0,1,0,0-2.78Z" style="fill:#661ff4"/></svg>