<svg id="Layer_1" data-name="Layer 1" xmlns="http://www.w3.org/2000/svg" viewBox="0 0 256 256"><path d="M223.71,223.53H34.33V34.16H223.71ZM39.22,218.65h179.6V39H39.22Z" style="fill:#661ff4"/><path d="M223.71,224.45H34.33a.92.92,0,0,1-.92-.92V34.16a.92.92,0,0,1,.92-.92H223.71a.92.92,0,0,1,.92.92V223.53A.92.92,0,0,1,223.71,224.45ZM35.25,222.61H222.79V35.08H35.25Zm183.57-3H39.22a.92.92,0,0,1-.92-.92V39a.92.92,0,0,1,.92-.92h179.6a.92.92,0,0,1,.92.92V218.65A.92.92,0,0,1,218.82,219.57ZM40.13,217.73H217.91V40H40.13Z" style="fill:#661ff4"/><path d="M159.4,197.61H90.89V174.15H159.4Zm-63.63-4.88h58.75V179H95.77Z" style="fill:#661ff4"/><path d="M159.4,198.53H90.89a.92.92,0,0,1-.92-.92V174.14a.92.92,0,0,1,.92-.91H159.4a.92.92,0,0,1,.92.91v23.47A.92.92,0,0,1,159.4,198.53Zm-67.59-1.84h66.67V175.06H91.81Zm62.71-3H95.77a.92.92,0,0,1-.91-.92V179a.92.92,0,0,1,.91-.92h58.75a.92.92,0,0,1,.92.92v13.7A.92.92,0,0,1,154.52,193.65Zm-57.83-1.84H153.6V180H96.69Z" style="fill:#661ff4"/><path d="M192.49,113.27H67.79a.92.92,0,1,1,0-1.83h124.7a.92.92,0,1,1,0,1.83Z" style="fill:#661ff4"/><rect x="67.79" y="109.91" width="124.7" height="4.88" style="fill:#661ff4"/><path d="M192.49,115.72H67.79a.92.92,0,0,1-.92-.92v-4.89a.92.92,0,0,1,.92-.91h124.7a.92.92,0,0,1,.92.91v4.89A.93.93,0,0,1,192.49,115.72ZM68.71,113.88H191.57v-3H68.71Z" style="fill:#661ff4"/><path d="M192.49,131.64H67.79a.92.92,0,1,1,0-1.84h124.7a.92.92,0,0,1,0,1.84Z" style="fill:#661ff4"/><rect x="67.79" y="128.28" width="124.7" height="4.88" style="fill:#661ff4"/><path d="M192.49,134.08H67.79a.92.92,0,0,1-.92-.92v-4.88a.92.92,0,0,1,.92-.92h124.7a.92.92,0,0,1,.92.92v4.88A.92.92,0,0,1,192.49,134.08ZM68.71,132.24H191.57v-3H68.71Z" style="fill:#661ff4"/><path d="M192.49,149.93H67.79a.92.92,0,0,1,0-1.84h124.7a.92.92,0,0,1,0,1.84Z" style="fill:#661ff4"/><rect x="67.79" y="146.57" width="124.7" height="4.88" style="fill:#661ff4"/><path d="M192.49,152.37H67.79a.92.92,0,0,1-.92-.92v-4.88a.92.92,0,0,1,.92-.92h124.7a.92.92,0,0,1,.92.92v4.88A.92.92,0,0,1,192.49,152.37ZM68.71,150.53H191.57v-3.05H68.71Z" style="fill:#661ff4"/><path d="M251.14,41.65a2.44,2.44,0,0,1-2.44-2.44v-32h-32a2.44,2.44,0,1,1,0-4.88h34.41a2.44,2.44,0,0,1,2.44,2.44v34.4A2.44,2.44,0,0,1,251.14,41.65Z" style="fill:#661ff4"/><path d="M251.14,42.57a3.35,3.35,0,0,1-3.36-3.36v-31H216.73a3.36,3.36,0,1,1,0-6.72h34.41a3.36,3.36,0,0,1,3.36,3.36v34.4A3.36,3.36,0,0,1,251.14,42.57ZM216.73,3.28a1.53,1.53,0,0,0,0,3.05h32a.92.92,0,0,1,.91.92v32a1.53,1.53,0,1,0,3,0V4.81a1.53,1.53,0,0,0-1.52-1.53Z" style="fill:#661ff4"/><path d="M227.59,31.57a2.45,2.45,0,0,1-1.73-4.17L249.41,3.85a2.44,2.44,0,0,1,3.45,3.45L229.31,30.85A2.41,2.41,0,0,1,227.59,31.57Z" style="fill:#661ff4"/><path d="M227.59,32.48a3.33,3.33,0,0,1-2.38-1,3.36,3.36,0,0,1,0-4.75L248.76,3.2A3.36,3.36,0,0,1,253.51,8L230,31.5A3.33,3.33,0,0,1,227.59,32.48ZM251.14,4.06a1.51,1.51,0,0,0-1.08.44L226.51,28.05a1.53,1.53,0,0,0,0,2.15,1.55,1.55,0,0,0,2.15,0L252.21,6.65a1.51,1.51,0,0,0,0-2.15A1.47,1.47,0,0,0,251.14,4.06Z" style="fill:#661ff4"/><path d="M38.65,254.06H4.25a2.45,2.45,0,0,1-2.45-2.44V217.21a2.45,2.45,0,0,1,4.89,0v32h32a2.44,2.44,0,1,1,0,4.88Z" style="fill:#661ff4"/><path d="M38.65,255H4.25a3.36,3.36,0,0,1-3.36-3.36V217.21a3.36,3.36,0,1,1,6.72,0v31h31a3.36,3.36,0,0,1,0,6.72ZM4.25,215.69a1.53,1.53,0,0,0-1.53,1.52v34.41a1.53,1.53,0,0,0,1.53,1.52h34.4a1.52,1.52,0,1,0,0-3h-32a.92.92,0,0,1-.92-.92v-32A1.53,1.53,0,0,0,4.25,215.69Z" style="fill:#661ff4"/><path d="M4.25,254.06a2.45,2.45,0,0,1-1.73-4.17l23.55-23.54a2.44,2.44,0,1,1,3.45,3.45L6,253.34A2.42,2.42,0,0,1,4.25,254.06Z" style="fill:#661ff4"/><path d="M4.25,255a3.32,3.32,0,0,1-2.38-1,3.36,3.36,0,0,1,0-4.75L25.42,225.7a3.36,3.36,0,0,1,4.75,4.75L6.62,254A3.31,3.31,0,0,1,4.25,255Zm23.54-28.43a1.51,1.51,0,0,0-1.07.44L3.17,250.54a1.52,1.52,0,0,0,0,2.16,1.57,1.57,0,0,0,2.15,0l23.55-23.55a1.54,1.54,0,0,0,0-2.16A1.55,1.55,0,0,0,27.79,226.55Z" style="fill:#661ff4"/><path d="M4.43,41.93A2.44,2.44,0,0,1,2,39.49V5.08A2.44,2.44,0,0,1,4.43,2.64H38.84a2.44,2.44,0,0,1,0,4.88h-32v32A2.44,2.44,0,0,1,4.43,41.93Z" style="fill:#661ff4"/><path d="M4.43,42.85a3.37,3.37,0,0,1-3.36-3.36V5.08A3.37,3.37,0,0,1,4.43,1.72H38.84a3.36,3.36,0,0,1,0,6.72H7.79V39.49A3.37,3.37,0,0,1,4.43,42.85Zm0-39.29A1.52,1.52,0,0,0,2.91,5.08V39.49a1.52,1.52,0,0,0,3,0v-32a.92.92,0,0,1,.92-.92h32a1.52,1.52,0,0,0,0-3Z" style="fill:#661ff4"/><path d="M28.75,31.07A2.43,2.43,0,0,1,27,30.35L3.48,6.81A2.44,2.44,0,0,1,6.93,3.35L30.47,26.9a2.45,2.45,0,0,1-1.72,4.17Z" style="fill:#661ff4"/><path d="M28.75,32a3.34,3.34,0,0,1-2.38-1L2.83,7.45A3.36,3.36,0,0,1,7.58,2.7L31.12,26.25a3.36,3.36,0,0,1,0,4.75A3.3,3.3,0,0,1,28.75,32ZM5.2,3.56a1.52,1.52,0,0,0-1.07,2.6L27.67,29.7a1.56,1.56,0,0,0,2.16,0,1.53,1.53,0,0,0,0-2.15L6.28,4A1.55,1.55,0,0,0,5.2,3.56Z" style="fill:#661ff4"/><path d="M251.19,254H216.78a2.44,2.44,0,0,1,0-4.88h32v-32a2.44,2.44,0,1,1,4.88,0v34.4A2.44,2.44,0,0,1,251.19,254Z" style="fill:#661ff4"/><path d="M251.19,255H216.78a3.36,3.36,0,0,1,0-6.72h31.05v-31a3.36,3.36,0,0,1,6.72,0v34.4A3.37,3.37,0,0,1,251.19,255Zm-34.41-4.88a1.52,1.52,0,0,0,0,3h34.41a1.52,1.52,0,0,0,1.52-1.52v-34.4a1.52,1.52,0,1,0-3,0v32a.92.92,0,0,1-.92.92Z" style="fill:#661ff4"/><path d="M251.19,254a2.42,2.42,0,0,1-1.73-.71l-23.55-23.55a2.44,2.44,0,0,1,3.46-3.45l23.54,23.55a2.43,2.43,0,0,1,0,3.45A2.4,2.4,0,0,1,251.19,254Z" style="fill:#661ff4"/><path d="M251.19,255a3.37,3.37,0,0,1-2.38-1l-23.55-23.55a3.36,3.36,0,1,1,4.76-4.75l23.54,23.55a3.36,3.36,0,0,1-2.37,5.73Zm-23.55-28.43a1.53,1.53,0,0,0-1.08,2.6l23.55,23.55a1.57,1.57,0,0,0,2.15,0,1.51,1.51,0,0,0,0-2.15L228.72,227A1.52,1.52,0,0,0,227.64,226.52Z" style="fill:#661ff4"/></svg>