<svg id="Layer_1" data-name="Layer 1" xmlns="http://www.w3.org/2000/svg" viewBox="0 0 256 256"><path d="M32.83,228.81h-19a9.15,9.15,0,0,1-9.13-9.13V17.39a9.15,9.15,0,0,1,9.13-9.13H216.07a9.15,9.15,0,0,1,9.13,9.13V33h-3.67V17.39a5.47,5.47,0,0,0-5.46-5.46H13.78a5.47,5.47,0,0,0-5.46,5.46V219.68a5.47,5.47,0,0,0,5.46,5.46h19Z" style="fill:#661ff4"/><path d="M34.43,230.4H13.78A10.73,10.73,0,0,1,3.06,219.68V17.39A10.73,10.73,0,0,1,13.78,6.67H216.07a10.73,10.73,0,0,1,10.72,10.72V34.55h-6.86V17.39a3.86,3.86,0,0,0-3.86-3.86H13.78a3.86,3.86,0,0,0-3.86,3.86V219.68a3.86,3.86,0,0,0,3.86,3.86H34.43ZM13.78,9.86a7.54,7.54,0,0,0-7.53,7.53V219.68a7.54,7.54,0,0,0,7.53,7.53H31.24v-.48H13.78a7.05,7.05,0,0,1-7-7V17.39a7.05,7.05,0,0,1,7-7H216.07a7.05,7.05,0,0,1,7.05,7.05v14h.48v-14a7.54,7.54,0,0,0-7.53-7.53Z" style="fill:#661ff4"/><path d="M242.4,251.66H40.13A9.13,9.13,0,0,1,31,242.53V40.25a9.14,9.14,0,0,1,9.13-9.13H242.4a9.14,9.14,0,0,1,9.13,9.13V242.53A9.13,9.13,0,0,1,242.4,251.66ZM40.13,34.79a5.47,5.47,0,0,0-5.47,5.46V242.53A5.47,5.47,0,0,0,40.13,248H242.4a5.46,5.46,0,0,0,5.46-5.46V40.25a5.46,5.46,0,0,0-5.46-5.46Z" style="fill:#661ff4"/><path d="M242.4,253.26H40.13A10.74,10.74,0,0,1,29.4,242.53V40.25A10.74,10.74,0,0,1,40.13,29.53H242.4a10.74,10.74,0,0,1,10.73,10.72V242.53A10.74,10.74,0,0,1,242.4,253.26ZM40.13,32.72a7.54,7.54,0,0,0-7.54,7.53V242.53a7.55,7.55,0,0,0,7.54,7.54H242.4a7.55,7.55,0,0,0,7.54-7.54V40.25a7.54,7.54,0,0,0-7.54-7.53ZM242.4,249.59H40.13a7.07,7.07,0,0,1-7.06-7.06V40.25a7.06,7.06,0,0,1,7.06-7H242.4a7.06,7.06,0,0,1,7.06,7V242.53A7.07,7.07,0,0,1,242.4,249.59ZM40.13,36.39a3.86,3.86,0,0,0-3.87,3.86V242.53a3.87,3.87,0,0,0,3.87,3.87H242.4a3.87,3.87,0,0,0,3.87-3.87V40.25a3.86,3.86,0,0,0-3.87-3.86Z" style="fill:#661ff4"/><path d="M227,195.42H57.26V160H227Zm-166-3.67H223.3V163.68H60.93Z" style="fill:#661ff4"/><path d="M228.56,197H55.67V158.41H228.56Zm-169.7-3.19H225.38V161.6H58.86Zm166-.48H59.34V162.08H224.9ZM62.53,190.16H221.71V165.27H62.53Z" style="fill:#661ff4"/><path d="M108.75,231H57.26V213.4h51.49Zm-47.82-3.67h44.15v-10.3H60.93Z" style="fill:#661ff4"/><path d="M110.34,232.63H55.67V211.81h54.67Zm-51.48-3.18h48.29V215H58.86Zm47.81-.48H59.34V215.48h47.33Zm-44.14-3.19h41v-7.11H62.53Z" style="fill:#661ff4"/><rect x="57.39" y="51.74" width="57.53" height="3.67" style="fill:#661ff4"/><path d="M116.52,57H55.8V50.15h60.72ZM59,53.82h54.34v-.48H59Z" style="fill:#661ff4"/><rect x="126.03" y="51.74" width="57.53" height="3.67" style="fill:#661ff4"/><path d="M185.16,57H124.44V50.15h60.72Zm-57.53-3.19H182v-.48H127.63Z" style="fill:#661ff4"/><rect x="57.39" y="138.35" width="57.53" height="3.67" style="fill:#661ff4"/><path d="M116.52,143.62H55.8v-6.86h60.72ZM59,140.43h54.34V140H59Z" style="fill:#661ff4"/><rect x="126.03" y="138.35" width="57.53" height="3.67" style="fill:#661ff4"/><path d="M185.16,143.62H124.44v-6.86h60.72Zm-57.53-3.19H182V140H127.63Z" style="fill:#661ff4"/><rect x="57.39" y="73.4" width="126.17" height="3.67" style="fill:#661ff4"/><path d="M185.16,78.66H55.8V71.8H185.16ZM59,75.47H182V75H59Z" style="fill:#661ff4"/><rect x="57.39" y="95.05" width="126.17" height="3.67" style="fill:#661ff4"/><path d="M185.16,100.31H55.8V93.46H185.16ZM59,97.12H182v-.48H59Z" style="fill:#661ff4"/><rect x="57.39" y="116.7" width="126.17" height="3.67" style="fill:#661ff4"/><path d="M185.16,122H55.8v-6.86H185.16ZM59,118.78H182v-.48H59Z" style="fill:#661ff4"/></svg>